%TF.GenerationSoftware,KiCad,Pcbnew,6.0.11+dfsg-1*%
%TF.CreationDate,2023-12-17T01:08:28-05:00*%
%TF.ProjectId,28byj_controller,32386279-6a5f-4636-9f6e-74726f6c6c65,rev?*%
%TF.SameCoordinates,Original*%
%TF.FileFunction,Legend,Bot*%
%TF.FilePolarity,Positive*%
%FSLAX46Y46*%
G04 Gerber Fmt 4.6, Leading zero omitted, Abs format (unit mm)*
G04 Created by KiCad (PCBNEW 6.0.11+dfsg-1) date 2023-12-17 01:08:28*
%MOMM*%
%LPD*%
G01*
G04 APERTURE LIST*
%ADD10C,0.300000*%
%ADD11C,0.150000*%
%ADD12C,0.120000*%
G04 APERTURE END LIST*
D10*
X121491428Y-59098571D02*
X122348571Y-59098571D01*
X121920000Y-59098571D02*
X121920000Y-57598571D01*
X122062857Y-57812857D01*
X122205714Y-57955714D01*
X122348571Y-58027142D01*
X103568571Y-63607142D02*
X104711428Y-63607142D01*
X103568571Y-68687142D02*
X104711428Y-68687142D01*
X104140000Y-69258571D02*
X104140000Y-68115714D01*
D11*
%TO.C,J1*%
X118348380Y-55546666D02*
X119062666Y-55546666D01*
X119205523Y-55499047D01*
X119300761Y-55403809D01*
X119348380Y-55260952D01*
X119348380Y-55165714D01*
X119348380Y-56546666D02*
X119348380Y-55975238D01*
X119348380Y-56260952D02*
X118348380Y-56260952D01*
X118491238Y-56165714D01*
X118586476Y-56070476D01*
X118634095Y-55975238D01*
%TO.C,J2*%
X107267333Y-70040380D02*
X107267333Y-70754666D01*
X107314952Y-70897523D01*
X107410190Y-70992761D01*
X107553047Y-71040380D01*
X107648285Y-71040380D01*
X106838761Y-70135619D02*
X106791142Y-70088000D01*
X106695904Y-70040380D01*
X106457809Y-70040380D01*
X106362571Y-70088000D01*
X106314952Y-70135619D01*
X106267333Y-70230857D01*
X106267333Y-70326095D01*
X106314952Y-70468952D01*
X106886380Y-71040380D01*
X106267333Y-71040380D01*
%TO.C,C1*%
X115575142Y-66381333D02*
X115622761Y-66333714D01*
X115670380Y-66190857D01*
X115670380Y-66095619D01*
X115622761Y-65952761D01*
X115527523Y-65857523D01*
X115432285Y-65809904D01*
X115241809Y-65762285D01*
X115098952Y-65762285D01*
X114908476Y-65809904D01*
X114813238Y-65857523D01*
X114718000Y-65952761D01*
X114670380Y-66095619D01*
X114670380Y-66190857D01*
X114718000Y-66333714D01*
X114765619Y-66381333D01*
X115670380Y-67333714D02*
X115670380Y-66762285D01*
X115670380Y-67048000D02*
X114670380Y-67048000D01*
X114813238Y-66952761D01*
X114908476Y-66857523D01*
X114956095Y-66762285D01*
%TO.C,R6*%
X110910666Y-92780380D02*
X111244000Y-92304190D01*
X111482095Y-92780380D02*
X111482095Y-91780380D01*
X111101142Y-91780380D01*
X111005904Y-91828000D01*
X110958285Y-91875619D01*
X110910666Y-91970857D01*
X110910666Y-92113714D01*
X110958285Y-92208952D01*
X111005904Y-92256571D01*
X111101142Y-92304190D01*
X111482095Y-92304190D01*
X110053523Y-91780380D02*
X110244000Y-91780380D01*
X110339238Y-91828000D01*
X110386857Y-91875619D01*
X110482095Y-92018476D01*
X110529714Y-92208952D01*
X110529714Y-92589904D01*
X110482095Y-92685142D01*
X110434476Y-92732761D01*
X110339238Y-92780380D01*
X110148761Y-92780380D01*
X110053523Y-92732761D01*
X110005904Y-92685142D01*
X109958285Y-92589904D01*
X109958285Y-92351809D01*
X110005904Y-92256571D01*
X110053523Y-92208952D01*
X110148761Y-92161333D01*
X110339238Y-92161333D01*
X110434476Y-92208952D01*
X110482095Y-92256571D01*
X110529714Y-92351809D01*
%TO.C,U1*%
X112013904Y-74324380D02*
X112013904Y-75133904D01*
X111966285Y-75229142D01*
X111918666Y-75276761D01*
X111823428Y-75324380D01*
X111632952Y-75324380D01*
X111537714Y-75276761D01*
X111490095Y-75229142D01*
X111442476Y-75133904D01*
X111442476Y-74324380D01*
X110442476Y-75324380D02*
X111013904Y-75324380D01*
X110728190Y-75324380D02*
X110728190Y-74324380D01*
X110823428Y-74467238D01*
X110918666Y-74562476D01*
X111013904Y-74610095D01*
%TO.C,U2*%
X130555904Y-85602380D02*
X130555904Y-86411904D01*
X130508285Y-86507142D01*
X130460666Y-86554761D01*
X130365428Y-86602380D01*
X130174952Y-86602380D01*
X130079714Y-86554761D01*
X130032095Y-86507142D01*
X129984476Y-86411904D01*
X129984476Y-85602380D01*
X129555904Y-85697619D02*
X129508285Y-85650000D01*
X129413047Y-85602380D01*
X129174952Y-85602380D01*
X129079714Y-85650000D01*
X129032095Y-85697619D01*
X128984476Y-85792857D01*
X128984476Y-85888095D01*
X129032095Y-86030952D01*
X129603523Y-86602380D01*
X128984476Y-86602380D01*
D12*
%TO.C,J1*%
X120336000Y-57210000D02*
X121666000Y-57210000D01*
X122936000Y-57210000D02*
X133156000Y-57210000D01*
X122936000Y-54550000D02*
X133156000Y-54550000D01*
X122936000Y-54550000D02*
X122936000Y-57210000D01*
X133156000Y-54550000D02*
X133156000Y-57210000D01*
X120336000Y-55880000D02*
X120336000Y-57210000D01*
%TO.C,J2*%
X105604000Y-66548000D02*
X105604000Y-63948000D01*
X108264000Y-66548000D02*
X108264000Y-63948000D01*
X105604000Y-66548000D02*
X108264000Y-66548000D01*
X106934000Y-69148000D02*
X108264000Y-69148000D01*
X108264000Y-69148000D02*
X108264000Y-67818000D01*
X105604000Y-63948000D02*
X108264000Y-63948000D01*
%TO.C,C1*%
X114273000Y-66809252D02*
X114273000Y-66286748D01*
X112803000Y-66809252D02*
X112803000Y-66286748D01*
%TO.C,R6*%
X110516936Y-89943000D02*
X110971064Y-89943000D01*
X110516936Y-91413000D02*
X110971064Y-91413000D01*
%TO.C,U1*%
X111252000Y-75712000D02*
X109302000Y-75712000D01*
X111252000Y-85832000D02*
X109302000Y-85832000D01*
X111252000Y-85832000D02*
X113202000Y-85832000D01*
X111252000Y-75712000D02*
X114702000Y-75712000D01*
%TO.C,U2*%
X132444000Y-85150000D02*
X130794000Y-85150000D01*
X127144000Y-62170000D02*
X132444000Y-62170000D01*
X132444000Y-62170000D02*
X132444000Y-85150000D01*
X127144000Y-85150000D02*
X127144000Y-62170000D01*
X128794000Y-85150000D02*
X127144000Y-85150000D01*
X130794000Y-85150000D02*
G75*
G03*
X128794000Y-85150000I-1000000J0D01*
G01*
%TD*%
M02*
