%TF.GenerationSoftware,KiCad,Pcbnew,6.0.11+dfsg-1*%
%TF.CreationDate,2023-12-17T01:08:28-05:00*%
%TF.ProjectId,28byj_controller,32386279-6a5f-4636-9f6e-74726f6c6c65,rev?*%
%TF.SameCoordinates,Original*%
%TF.FileFunction,Copper,L1,Top*%
%TF.FilePolarity,Positive*%
%FSLAX46Y46*%
G04 Gerber Fmt 4.6, Leading zero omitted, Abs format (unit mm)*
G04 Created by KiCad (PCBNEW 6.0.11+dfsg-1) date 2023-12-17 01:08:28*
%MOMM*%
%LPD*%
G01*
G04 APERTURE LIST*
G04 Aperture macros list*
%AMRoundRect*
0 Rectangle with rounded corners*
0 $1 Rounding radius*
0 $2 $3 $4 $5 $6 $7 $8 $9 X,Y pos of 4 corners*
0 Add a 4 corners polygon primitive as box body*
4,1,4,$2,$3,$4,$5,$6,$7,$8,$9,$2,$3,0*
0 Add four circle primitives for the rounded corners*
1,1,$1+$1,$2,$3*
1,1,$1+$1,$4,$5*
1,1,$1+$1,$6,$7*
1,1,$1+$1,$8,$9*
0 Add four rect primitives between the rounded corners*
20,1,$1+$1,$2,$3,$4,$5,0*
20,1,$1+$1,$4,$5,$6,$7,0*
20,1,$1+$1,$6,$7,$8,$9,0*
20,1,$1+$1,$8,$9,$2,$3,0*%
G04 Aperture macros list end*
%TA.AperFunction,ComponentPad*%
%ADD10R,1.700000X1.700000*%
%TD*%
%TA.AperFunction,ComponentPad*%
%ADD11O,1.700000X1.700000*%
%TD*%
%TA.AperFunction,ComponentPad*%
%ADD12RoundRect,0.250000X0.725000X-0.600000X0.725000X0.600000X-0.725000X0.600000X-0.725000X-0.600000X0*%
%TD*%
%TA.AperFunction,ComponentPad*%
%ADD13O,1.950000X1.700000*%
%TD*%
%TA.AperFunction,ComponentPad*%
%ADD14RoundRect,0.250000X-0.600000X-0.725000X0.600000X-0.725000X0.600000X0.725000X-0.600000X0.725000X0*%
%TD*%
%TA.AperFunction,ComponentPad*%
%ADD15O,1.700000X1.950000*%
%TD*%
%TA.AperFunction,SMDPad,CuDef*%
%ADD16RoundRect,0.250000X0.450000X-0.350000X0.450000X0.350000X-0.450000X0.350000X-0.450000X-0.350000X0*%
%TD*%
%TA.AperFunction,ComponentPad*%
%ADD17R,1.600000X1.600000*%
%TD*%
%TA.AperFunction,ComponentPad*%
%ADD18O,1.600000X1.600000*%
%TD*%
%TA.AperFunction,ViaPad*%
%ADD19C,0.800000*%
%TD*%
%TA.AperFunction,Conductor*%
%ADD20C,0.250000*%
%TD*%
G04 APERTURE END LIST*
D10*
%TO.P,J1,1,Pin_1*%
%TO.N,Net-(J1-Pad1)*%
X121666000Y-55880000D03*
D11*
%TO.P,J1,2,Pin_2*%
%TO.N,Net-(J1-Pad2)*%
X124206000Y-55880000D03*
%TO.P,J1,3,Pin_3*%
%TO.N,Net-(J1-Pad3)*%
X126746000Y-55880000D03*
%TO.P,J1,4,Pin_4*%
%TO.N,Net-(J1-Pad4)*%
X129286000Y-55880000D03*
%TO.P,J1,5,Pin_5*%
%TO.N,Net-(J1-Pad5)*%
X131826000Y-55880000D03*
%TD*%
D10*
%TO.P,J2,1,Pin_1*%
%TO.N,+5V*%
X106934000Y-67818000D03*
D11*
%TO.P,J2,2,Pin_2*%
%TO.N,Earth*%
X106934000Y-65278000D03*
%TD*%
D12*
%TO.P,M1,1*%
%TO.N,Net-(M1-Pad1)*%
X141478000Y-78486000D03*
D13*
%TO.P,M1,2*%
%TO.N,Net-(M1-Pad2)*%
X141478000Y-75986000D03*
%TO.P,M1,3*%
%TO.N,Net-(M1-Pad3)*%
X141478000Y-73486000D03*
%TO.P,M1,4*%
%TO.N,Net-(M1-Pad4)*%
X141478000Y-70986000D03*
%TO.P,M1,5,VIN*%
%TO.N,+5V*%
X141478000Y-68486000D03*
%TD*%
D14*
%TO.P,M2,1*%
%TO.N,Net-(M2-Pad1)*%
X121666000Y-91440000D03*
D15*
%TO.P,M2,2*%
%TO.N,Net-(M2-Pad2)*%
X124166000Y-91440000D03*
%TO.P,M2,3*%
%TO.N,Net-(M2-Pad3)*%
X126666000Y-91440000D03*
%TO.P,M2,4*%
%TO.N,Net-(M2-Pad4)*%
X129166000Y-91440000D03*
%TO.P,M2,5,VIN*%
%TO.N,+5V*%
X131666000Y-91440000D03*
%TD*%
D16*
%TO.P,R1,1*%
%TO.N,+5V*%
X117602000Y-62976000D03*
%TO.P,R1,2*%
%TO.N,Net-(J1-Pad1)*%
X117602000Y-60976000D03*
%TD*%
%TO.P,R2,1*%
%TO.N,+5V*%
X119380000Y-69834000D03*
%TO.P,R2,2*%
%TO.N,Net-(J1-Pad2)*%
X119380000Y-67834000D03*
%TD*%
%TO.P,R3,1*%
%TO.N,+5V*%
X119380000Y-76184000D03*
%TO.P,R3,2*%
%TO.N,Net-(J1-Pad3)*%
X119380000Y-74184000D03*
%TD*%
%TO.P,R4,1*%
%TO.N,+5V*%
X118618000Y-82026000D03*
%TO.P,R4,2*%
%TO.N,Net-(J1-Pad4)*%
X118618000Y-80026000D03*
%TD*%
%TO.P,R5,1*%
%TO.N,+5V*%
X118618000Y-86852000D03*
%TO.P,R5,2*%
%TO.N,Net-(J1-Pad5)*%
X118618000Y-84852000D03*
%TD*%
D17*
%TO.P,U2,1,I1*%
%TO.N,Net-(U1-Pad7)*%
X125984000Y-83820000D03*
D18*
%TO.P,U2,2,I2*%
%TO.N,Net-(U1-Pad6)*%
X125984000Y-81280000D03*
%TO.P,U2,3,I3*%
%TO.N,Net-(U1-Pad5)*%
X125984000Y-78740000D03*
%TO.P,U2,4,I4*%
%TO.N,Net-(U1-Pad4)*%
X125984000Y-76200000D03*
%TO.P,U2,5,I5*%
%TO.N,Net-(U1-Pad3)*%
X125984000Y-73660000D03*
%TO.P,U2,6,I6*%
%TO.N,Net-(U1-Pad2)*%
X125984000Y-71120000D03*
%TO.P,U2,7,I7*%
%TO.N,Net-(U1-Pad1)*%
X125984000Y-68580000D03*
%TO.P,U2,8,I8*%
%TO.N,Net-(U1-Pad15)*%
X125984000Y-66040000D03*
%TO.P,U2,9,GND*%
%TO.N,Earth*%
X125984000Y-63500000D03*
%TO.P,U2,10,COM*%
%TO.N,+5V*%
X133604000Y-63500000D03*
%TO.P,U2,11,O8*%
%TO.N,Net-(M2-Pad4)*%
X133604000Y-66040000D03*
%TO.P,U2,12,O7*%
%TO.N,Net-(M2-Pad3)*%
X133604000Y-68580000D03*
%TO.P,U2,13,O6*%
%TO.N,Net-(M2-Pad2)*%
X133604000Y-71120000D03*
%TO.P,U2,14,O5*%
%TO.N,Net-(M2-Pad1)*%
X133604000Y-73660000D03*
%TO.P,U2,15,O4*%
%TO.N,Net-(M1-Pad4)*%
X133604000Y-76200000D03*
%TO.P,U2,16,O3*%
%TO.N,Net-(M1-Pad3)*%
X133604000Y-78740000D03*
%TO.P,U2,17,O2*%
%TO.N,Net-(M1-Pad2)*%
X133604000Y-81280000D03*
%TO.P,U2,18,O1*%
%TO.N,Net-(M1-Pad1)*%
X133604000Y-83820000D03*
%TD*%
D19*
%TO.N,Earth*%
X110958000Y-65318000D03*
X112476000Y-86568000D03*
%TO.N,+5V*%
X116099500Y-67585500D03*
%TO.N,Net-(J1-Pad3)*%
X115573465Y-53594000D03*
%TO.N,Net-(J1-Pad2)*%
X113792000Y-54356000D03*
%TD*%
D20*
%TO.N,Earth*%
X110958000Y-65318000D02*
X110958000Y-85050000D01*
X110958000Y-85050000D02*
X112476000Y-86568000D01*
%TO.N,+5V*%
X118354990Y-70859010D02*
X118354990Y-75158990D01*
X116099500Y-83946690D02*
X116078000Y-83968190D01*
X117131500Y-67585500D02*
X119380000Y-69834000D01*
X118618000Y-82026000D02*
X117592990Y-83051010D01*
X116099500Y-64478500D02*
X117602000Y-62976000D01*
X118354990Y-75158990D02*
X119380000Y-76184000D01*
X129634000Y-89408000D02*
X131666000Y-91440000D01*
X138590000Y-68486000D02*
X133604000Y-63500000D01*
X116099500Y-67585500D02*
X116099500Y-83946690D01*
X116078000Y-83968190D02*
X116078000Y-87122000D01*
X116078000Y-87122000D02*
X118364000Y-89408000D01*
X116099500Y-67585500D02*
X117131500Y-67585500D01*
X117592990Y-81000990D02*
X118618000Y-82026000D01*
X141478000Y-68486000D02*
X138590000Y-68486000D01*
X116099500Y-67585500D02*
X116099500Y-64478500D01*
X118364000Y-89408000D02*
X129634000Y-89408000D01*
X117592990Y-77971010D02*
X117592990Y-81000990D01*
X117592990Y-85826990D02*
X118618000Y-86852000D01*
X119380000Y-76184000D02*
X117592990Y-77971010D01*
X117592990Y-83051010D02*
X117592990Y-85826990D01*
X119380000Y-69834000D02*
X118354990Y-70859010D01*
%TO.N,Net-(J1-Pad5)*%
X131666000Y-55880000D02*
X131666000Y-84653285D01*
X130924274Y-85395011D02*
X119161011Y-85395011D01*
X131666000Y-84653285D02*
X130924274Y-85395011D01*
X119161011Y-85395011D02*
X118618000Y-84852000D01*
%TO.N,Net-(J1-Pad4)*%
X127044001Y-84945001D02*
X123537001Y-84945001D01*
X127841010Y-56104990D02*
X127841010Y-84147992D01*
X128066000Y-55880000D02*
X127841010Y-56104990D01*
X129166000Y-55880000D02*
X128066000Y-55880000D01*
X123537001Y-84945001D02*
X118618000Y-80026000D01*
X127841010Y-84147992D02*
X127044001Y-84945001D01*
%TO.N,Net-(J1-Pad3)*%
X124858999Y-57687001D02*
X124858999Y-68705001D01*
X115573465Y-53594000D02*
X124380000Y-53594000D01*
X124380000Y-53594000D02*
X126666000Y-55880000D01*
X126666000Y-55880000D02*
X124858999Y-57687001D01*
X124858999Y-68705001D02*
X119380000Y-74184000D01*
%TO.N,Net-(J1-Pad2)*%
X113792000Y-54356000D02*
X122642000Y-54356000D01*
X124166000Y-55880000D02*
X124166000Y-63048000D01*
X124166000Y-63048000D02*
X119380000Y-67834000D01*
X122642000Y-54356000D02*
X124166000Y-55880000D01*
%TO.N,Net-(J1-Pad1)*%
X121666000Y-56912000D02*
X117602000Y-60976000D01*
X121666000Y-55880000D02*
X121666000Y-56912000D01*
%TO.N,Net-(M1-Pad4)*%
X133604000Y-76200000D02*
X136264000Y-76200000D01*
X136264000Y-76200000D02*
X141478000Y-70986000D01*
%TO.N,Net-(M1-Pad3)*%
X133604000Y-78740000D02*
X136224000Y-78740000D01*
X136224000Y-78740000D02*
X141478000Y-73486000D01*
%TO.N,Net-(M1-Pad2)*%
X133604000Y-81280000D02*
X136184000Y-81280000D01*
X136184000Y-81280000D02*
X141478000Y-75986000D01*
%TO.N,Net-(M1-Pad1)*%
X133604000Y-83820000D02*
X136144000Y-83820000D01*
X136144000Y-83820000D02*
X141478000Y-78486000D01*
%TD*%
M02*
