M48
INCH,TZ
T1C0.0157
T2C0.0315
T3C0.0374
T4C0.0394
%
G90
G05
T1
X43684Y-25716
X44282Y-34082
X44800Y-21400
X45501Y-21100
X45708Y-26608
T2
X49600Y-25000
X49600Y-26000
X49600Y-27000
X49600Y-28000
X49600Y-29000
X49600Y-30000
X49600Y-31000
X49600Y-32000
X49600Y-33000
X52600Y-25000
X52600Y-26000
X52600Y-27000
X52600Y-28000
X52600Y-29000
X52600Y-30000
X52600Y-31000
X52600Y-32000
X52600Y-33000
T3
X47900Y-36000
X48884Y-36000
X49869Y-36000
X50853Y-36000
X51837Y-36000
X55700Y-26963
X55700Y-27947
X55700Y-28931
X55700Y-29916
X55700Y-30900
T4
X42100Y-25700
X42100Y-26700
X47900Y-22000
X48900Y-22000
X49900Y-22000
X50900Y-22000
X51900Y-22000
T0
M30
