%TF.GenerationSoftware,KiCad,Pcbnew,6.0.11+dfsg-1*%
%TF.CreationDate,2023-12-17T01:08:24-05:00*%
%TF.ProjectId,28byj_controller,32386279-6a5f-4636-9f6e-74726f6c6c65,rev?*%
%TF.SameCoordinates,Original*%
%TF.FileFunction,Drillmap*%
%TF.FilePolarity,Positive*%
%FSLAX45Y45*%
G04 Gerber Fmt 4.5, Leading zero omitted, Abs format (unit mm)*
G04 Created by KiCad (PCBNEW 6.0.11+dfsg-1) date 2023-12-17 01:08:24*
%MOMM*%
%LPD*%
G01*
G04 APERTURE LIST*
%ADD10C,0.150000*%
%ADD11C,0.200000*%
%ADD12C,0.040000*%
%ADD13C,0.080000*%
%ADD14C,0.095000*%
%ADD15C,0.100000*%
G04 APERTURE END LIST*
D10*
X10000000Y-9500000D02*
X10000000Y-5500000D01*
X15000000Y-5500000D02*
X15000000Y-9500000D01*
X14500000Y-10000000D02*
G75*
G03*
X15000000Y-9500000I0J500000D01*
G01*
X10500000Y-5000000D02*
X14500000Y-5000000D01*
X15000000Y-5500000D02*
G75*
G03*
X14500000Y-5000000I-500000J0D01*
G01*
X10000000Y-9500000D02*
G75*
G03*
X10500000Y-10000000I500000J0D01*
G01*
X14500000Y-10000000D02*
X10500000Y-10000000D01*
X10500000Y-5000000D02*
G75*
G03*
X10000000Y-5500000I0J-500000D01*
G01*
D11*
D12*
X11075800Y-6511800D02*
X11115800Y-6551800D01*
X11115800Y-6511800D02*
X11075800Y-6551800D01*
X11227600Y-8636800D02*
X11267600Y-8676800D01*
X11267600Y-8636800D02*
X11227600Y-8676800D01*
X11359200Y-5415600D02*
X11399200Y-5455600D01*
X11399200Y-5415600D02*
X11359200Y-5455600D01*
X11537346Y-5339400D02*
X11577346Y-5379400D01*
X11577346Y-5339400D02*
X11537346Y-5379400D01*
X11589950Y-6738550D02*
X11629950Y-6778550D01*
X11629950Y-6738550D02*
X11589950Y-6778550D01*
D13*
X12638400Y-6350000D02*
G75*
G03*
X12638400Y-6350000I-40000J0D01*
G01*
X12638400Y-6604000D02*
G75*
G03*
X12638400Y-6604000I-40000J0D01*
G01*
X12638400Y-6858000D02*
G75*
G03*
X12638400Y-6858000I-40000J0D01*
G01*
X12638400Y-7112000D02*
G75*
G03*
X12638400Y-7112000I-40000J0D01*
G01*
X12638400Y-7366000D02*
G75*
G03*
X12638400Y-7366000I-40000J0D01*
G01*
X12638400Y-7620000D02*
G75*
G03*
X12638400Y-7620000I-40000J0D01*
G01*
X12638400Y-7874000D02*
G75*
G03*
X12638400Y-7874000I-40000J0D01*
G01*
X12638400Y-8128000D02*
G75*
G03*
X12638400Y-8128000I-40000J0D01*
G01*
X12638400Y-8382000D02*
G75*
G03*
X12638400Y-8382000I-40000J0D01*
G01*
X13400400Y-6350000D02*
G75*
G03*
X13400400Y-6350000I-40000J0D01*
G01*
X13400400Y-6604000D02*
G75*
G03*
X13400400Y-6604000I-40000J0D01*
G01*
X13400400Y-6858000D02*
G75*
G03*
X13400400Y-6858000I-40000J0D01*
G01*
X13400400Y-7112000D02*
G75*
G03*
X13400400Y-7112000I-40000J0D01*
G01*
X13400400Y-7366000D02*
G75*
G03*
X13400400Y-7366000I-40000J0D01*
G01*
X13400400Y-7620000D02*
G75*
G03*
X13400400Y-7620000I-40000J0D01*
G01*
X13400400Y-7874000D02*
G75*
G03*
X13400400Y-7874000I-40000J0D01*
G01*
X13400400Y-8128000D02*
G75*
G03*
X13400400Y-8128000I-40000J0D01*
G01*
X13400400Y-8382000D02*
G75*
G03*
X13400400Y-8382000I-40000J0D01*
G01*
D14*
X12166600Y-9096500D02*
X12166600Y-9191500D01*
X12119100Y-9144000D02*
X12214100Y-9144000D01*
X12416600Y-9096500D02*
X12416600Y-9191500D01*
X12369100Y-9144000D02*
X12464100Y-9144000D01*
X12666600Y-9096500D02*
X12666600Y-9191500D01*
X12619100Y-9144000D02*
X12714100Y-9144000D01*
X12916600Y-9096500D02*
X12916600Y-9191500D01*
X12869100Y-9144000D02*
X12964100Y-9144000D01*
X13166600Y-9096500D02*
X13166600Y-9191500D01*
X13119100Y-9144000D02*
X13214100Y-9144000D01*
X14147800Y-6801100D02*
X14147800Y-6896100D01*
X14100300Y-6848600D02*
X14195300Y-6848600D01*
X14147800Y-7051100D02*
X14147800Y-7146100D01*
X14100300Y-7098600D02*
X14195300Y-7098600D01*
X14147800Y-7301100D02*
X14147800Y-7396100D01*
X14100300Y-7348600D02*
X14195300Y-7348600D01*
X14147800Y-7551100D02*
X14147800Y-7646100D01*
X14100300Y-7598600D02*
X14195300Y-7598600D01*
X14147800Y-7801100D02*
X14147800Y-7896100D01*
X14100300Y-7848600D02*
X14195300Y-7848600D01*
D15*
X10728756Y-6563156D02*
X10728756Y-6492444D01*
X10658044Y-6492444D01*
X10658044Y-6563156D01*
X10728756Y-6563156D01*
X10728756Y-6817156D02*
X10728756Y-6746444D01*
X10658044Y-6746444D01*
X10658044Y-6817156D01*
X10728756Y-6817156D01*
X12201956Y-5623356D02*
X12201956Y-5552644D01*
X12131244Y-5552644D01*
X12131244Y-5623356D01*
X12201956Y-5623356D01*
X12455956Y-5623356D02*
X12455956Y-5552644D01*
X12385244Y-5552644D01*
X12385244Y-5623356D01*
X12455956Y-5623356D01*
X12709956Y-5623356D02*
X12709956Y-5552644D01*
X12639244Y-5552644D01*
X12639244Y-5623356D01*
X12709956Y-5623356D01*
X12963956Y-5623356D02*
X12963956Y-5552644D01*
X12893244Y-5552644D01*
X12893244Y-5623356D01*
X12963956Y-5623356D01*
X13217956Y-5623356D02*
X13217956Y-5552644D01*
X13147244Y-5552644D01*
X13147244Y-5623356D01*
X13217956Y-5623356D01*
D11*
X10250119Y-10317976D02*
X10250119Y-10117976D01*
X10297738Y-10117976D01*
X10326310Y-10127500D01*
X10345357Y-10146548D01*
X10354881Y-10165595D01*
X10364405Y-10203690D01*
X10364405Y-10232262D01*
X10354881Y-10270357D01*
X10345357Y-10289405D01*
X10326310Y-10308452D01*
X10297738Y-10317976D01*
X10250119Y-10317976D01*
X10450119Y-10317976D02*
X10450119Y-10184643D01*
X10450119Y-10222738D02*
X10459643Y-10203690D01*
X10469167Y-10194167D01*
X10488214Y-10184643D01*
X10507262Y-10184643D01*
X10573929Y-10317976D02*
X10573929Y-10184643D01*
X10573929Y-10117976D02*
X10564405Y-10127500D01*
X10573929Y-10137024D01*
X10583452Y-10127500D01*
X10573929Y-10117976D01*
X10573929Y-10137024D01*
X10697738Y-10317976D02*
X10678690Y-10308452D01*
X10669167Y-10289405D01*
X10669167Y-10117976D01*
X10802500Y-10317976D02*
X10783452Y-10308452D01*
X10773929Y-10289405D01*
X10773929Y-10117976D01*
X11031071Y-10317976D02*
X11031071Y-10117976D01*
X11097738Y-10260833D01*
X11164405Y-10117976D01*
X11164405Y-10317976D01*
X11345357Y-10317976D02*
X11345357Y-10213214D01*
X11335833Y-10194167D01*
X11316786Y-10184643D01*
X11278690Y-10184643D01*
X11259643Y-10194167D01*
X11345357Y-10308452D02*
X11326309Y-10317976D01*
X11278690Y-10317976D01*
X11259643Y-10308452D01*
X11250119Y-10289405D01*
X11250119Y-10270357D01*
X11259643Y-10251310D01*
X11278690Y-10241786D01*
X11326309Y-10241786D01*
X11345357Y-10232262D01*
X11440595Y-10184643D02*
X11440595Y-10384643D01*
X11440595Y-10194167D02*
X11459643Y-10184643D01*
X11497738Y-10184643D01*
X11516786Y-10194167D01*
X11526309Y-10203690D01*
X11535833Y-10222738D01*
X11535833Y-10279881D01*
X11526309Y-10298929D01*
X11516786Y-10308452D01*
X11497738Y-10317976D01*
X11459643Y-10317976D01*
X11440595Y-10308452D01*
X11621548Y-10298929D02*
X11631071Y-10308452D01*
X11621548Y-10317976D01*
X11612024Y-10308452D01*
X11621548Y-10298929D01*
X11621548Y-10317976D01*
X11621548Y-10194167D02*
X11631071Y-10203690D01*
X11621548Y-10213214D01*
X11612024Y-10203690D01*
X11621548Y-10194167D01*
X11621548Y-10213214D01*
D12*
X9952500Y-10627500D02*
X9992500Y-10667500D01*
X9992500Y-10627500D02*
X9952500Y-10667500D01*
D11*
X10288214Y-10537976D02*
X10307262Y-10537976D01*
X10326310Y-10547500D01*
X10335833Y-10557024D01*
X10345357Y-10576071D01*
X10354881Y-10614167D01*
X10354881Y-10661786D01*
X10345357Y-10699881D01*
X10335833Y-10718929D01*
X10326310Y-10728452D01*
X10307262Y-10737976D01*
X10288214Y-10737976D01*
X10269167Y-10728452D01*
X10259643Y-10718929D01*
X10250119Y-10699881D01*
X10240595Y-10661786D01*
X10240595Y-10614167D01*
X10250119Y-10576071D01*
X10259643Y-10557024D01*
X10269167Y-10547500D01*
X10288214Y-10537976D01*
X10440595Y-10718929D02*
X10450119Y-10728452D01*
X10440595Y-10737976D01*
X10431071Y-10728452D01*
X10440595Y-10718929D01*
X10440595Y-10737976D01*
X10621548Y-10604643D02*
X10621548Y-10737976D01*
X10573929Y-10528452D02*
X10526310Y-10671310D01*
X10650119Y-10671310D01*
X10764405Y-10537976D02*
X10783452Y-10537976D01*
X10802500Y-10547500D01*
X10812024Y-10557024D01*
X10821548Y-10576071D01*
X10831071Y-10614167D01*
X10831071Y-10661786D01*
X10821548Y-10699881D01*
X10812024Y-10718929D01*
X10802500Y-10728452D01*
X10783452Y-10737976D01*
X10764405Y-10737976D01*
X10745357Y-10728452D01*
X10735833Y-10718929D01*
X10726310Y-10699881D01*
X10716786Y-10661786D01*
X10716786Y-10614167D01*
X10726310Y-10576071D01*
X10735833Y-10557024D01*
X10745357Y-10547500D01*
X10764405Y-10537976D01*
X10954881Y-10537976D02*
X10973929Y-10537976D01*
X10992976Y-10547500D01*
X11002500Y-10557024D01*
X11012024Y-10576071D01*
X11021548Y-10614167D01*
X11021548Y-10661786D01*
X11012024Y-10699881D01*
X11002500Y-10718929D01*
X10992976Y-10728452D01*
X10973929Y-10737976D01*
X10954881Y-10737976D01*
X10935833Y-10728452D01*
X10926310Y-10718929D01*
X10916786Y-10699881D01*
X10907262Y-10661786D01*
X10907262Y-10614167D01*
X10916786Y-10576071D01*
X10926310Y-10557024D01*
X10935833Y-10547500D01*
X10954881Y-10537976D01*
X11107262Y-10737976D02*
X11107262Y-10604643D01*
X11107262Y-10623690D02*
X11116786Y-10614167D01*
X11135833Y-10604643D01*
X11164405Y-10604643D01*
X11183452Y-10614167D01*
X11192976Y-10633214D01*
X11192976Y-10737976D01*
X11192976Y-10633214D02*
X11202500Y-10614167D01*
X11221548Y-10604643D01*
X11250119Y-10604643D01*
X11269167Y-10614167D01*
X11278690Y-10633214D01*
X11278690Y-10737976D01*
X11373928Y-10737976D02*
X11373928Y-10604643D01*
X11373928Y-10623690D02*
X11383452Y-10614167D01*
X11402500Y-10604643D01*
X11431071Y-10604643D01*
X11450119Y-10614167D01*
X11459643Y-10633214D01*
X11459643Y-10737976D01*
X11459643Y-10633214D02*
X11469167Y-10614167D01*
X11488214Y-10604643D01*
X11516786Y-10604643D01*
X11535833Y-10614167D01*
X11545357Y-10633214D01*
X11545357Y-10737976D01*
X11935833Y-10528452D02*
X11764405Y-10785595D01*
X12192976Y-10537976D02*
X12212024Y-10537976D01*
X12231071Y-10547500D01*
X12240595Y-10557024D01*
X12250119Y-10576071D01*
X12259643Y-10614167D01*
X12259643Y-10661786D01*
X12250119Y-10699881D01*
X12240595Y-10718929D01*
X12231071Y-10728452D01*
X12212024Y-10737976D01*
X12192976Y-10737976D01*
X12173928Y-10728452D01*
X12164405Y-10718929D01*
X12154881Y-10699881D01*
X12145357Y-10661786D01*
X12145357Y-10614167D01*
X12154881Y-10576071D01*
X12164405Y-10557024D01*
X12173928Y-10547500D01*
X12192976Y-10537976D01*
X12345357Y-10718929D02*
X12354881Y-10728452D01*
X12345357Y-10737976D01*
X12335833Y-10728452D01*
X12345357Y-10718929D01*
X12345357Y-10737976D01*
X12478690Y-10537976D02*
X12497738Y-10537976D01*
X12516786Y-10547500D01*
X12526309Y-10557024D01*
X12535833Y-10576071D01*
X12545357Y-10614167D01*
X12545357Y-10661786D01*
X12535833Y-10699881D01*
X12526309Y-10718929D01*
X12516786Y-10728452D01*
X12497738Y-10737976D01*
X12478690Y-10737976D01*
X12459643Y-10728452D01*
X12450119Y-10718929D01*
X12440595Y-10699881D01*
X12431071Y-10661786D01*
X12431071Y-10614167D01*
X12440595Y-10576071D01*
X12450119Y-10557024D01*
X12459643Y-10547500D01*
X12478690Y-10537976D01*
X12735833Y-10737976D02*
X12621548Y-10737976D01*
X12678690Y-10737976D02*
X12678690Y-10537976D01*
X12659643Y-10566548D01*
X12640595Y-10585595D01*
X12621548Y-10595119D01*
X12916786Y-10537976D02*
X12821548Y-10537976D01*
X12812024Y-10633214D01*
X12821548Y-10623690D01*
X12840595Y-10614167D01*
X12888214Y-10614167D01*
X12907262Y-10623690D01*
X12916786Y-10633214D01*
X12926309Y-10652262D01*
X12926309Y-10699881D01*
X12916786Y-10718929D01*
X12907262Y-10728452D01*
X12888214Y-10737976D01*
X12840595Y-10737976D01*
X12821548Y-10728452D01*
X12812024Y-10718929D01*
X12992976Y-10537976D02*
X13126309Y-10537976D01*
X13040595Y-10737976D01*
X13192976Y-10537976D02*
X13192976Y-10576071D01*
X13269167Y-10537976D02*
X13269167Y-10576071D01*
X13564405Y-10814167D02*
X13554881Y-10804643D01*
X13535833Y-10776071D01*
X13526309Y-10757024D01*
X13516786Y-10728452D01*
X13507262Y-10680833D01*
X13507262Y-10642738D01*
X13516786Y-10595119D01*
X13526309Y-10566548D01*
X13535833Y-10547500D01*
X13554881Y-10518929D01*
X13564405Y-10509405D01*
X13735833Y-10537976D02*
X13640595Y-10537976D01*
X13631071Y-10633214D01*
X13640595Y-10623690D01*
X13659643Y-10614167D01*
X13707262Y-10614167D01*
X13726309Y-10623690D01*
X13735833Y-10633214D01*
X13745357Y-10652262D01*
X13745357Y-10699881D01*
X13735833Y-10718929D01*
X13726309Y-10728452D01*
X13707262Y-10737976D01*
X13659643Y-10737976D01*
X13640595Y-10728452D01*
X13631071Y-10718929D01*
X13983452Y-10737976D02*
X13983452Y-10537976D01*
X14069167Y-10737976D02*
X14069167Y-10633214D01*
X14059643Y-10614167D01*
X14040595Y-10604643D01*
X14012024Y-10604643D01*
X13992976Y-10614167D01*
X13983452Y-10623690D01*
X14192976Y-10737976D02*
X14173928Y-10728452D01*
X14164405Y-10718929D01*
X14154881Y-10699881D01*
X14154881Y-10642738D01*
X14164405Y-10623690D01*
X14173928Y-10614167D01*
X14192976Y-10604643D01*
X14221548Y-10604643D01*
X14240595Y-10614167D01*
X14250119Y-10623690D01*
X14259643Y-10642738D01*
X14259643Y-10699881D01*
X14250119Y-10718929D01*
X14240595Y-10728452D01*
X14221548Y-10737976D01*
X14192976Y-10737976D01*
X14373928Y-10737976D02*
X14354881Y-10728452D01*
X14345357Y-10709405D01*
X14345357Y-10537976D01*
X14526309Y-10728452D02*
X14507262Y-10737976D01*
X14469167Y-10737976D01*
X14450119Y-10728452D01*
X14440595Y-10709405D01*
X14440595Y-10633214D01*
X14450119Y-10614167D01*
X14469167Y-10604643D01*
X14507262Y-10604643D01*
X14526309Y-10614167D01*
X14535833Y-10633214D01*
X14535833Y-10652262D01*
X14440595Y-10671310D01*
X14612024Y-10728452D02*
X14631071Y-10737976D01*
X14669167Y-10737976D01*
X14688214Y-10728452D01*
X14697738Y-10709405D01*
X14697738Y-10699881D01*
X14688214Y-10680833D01*
X14669167Y-10671310D01*
X14640595Y-10671310D01*
X14621548Y-10661786D01*
X14612024Y-10642738D01*
X14612024Y-10633214D01*
X14621548Y-10614167D01*
X14640595Y-10604643D01*
X14669167Y-10604643D01*
X14688214Y-10614167D01*
X14764405Y-10814167D02*
X14773928Y-10804643D01*
X14792976Y-10776071D01*
X14802500Y-10757024D01*
X14812024Y-10728452D01*
X14821548Y-10680833D01*
X14821548Y-10642738D01*
X14812024Y-10595119D01*
X14802500Y-10566548D01*
X14792976Y-10547500D01*
X14773928Y-10518929D01*
X14764405Y-10509405D01*
D13*
X9992500Y-10911500D02*
G75*
G03*
X9992500Y-10911500I-40000J0D01*
G01*
D11*
X10288214Y-10801976D02*
X10307262Y-10801976D01*
X10326310Y-10811500D01*
X10335833Y-10821024D01*
X10345357Y-10840071D01*
X10354881Y-10878167D01*
X10354881Y-10925786D01*
X10345357Y-10963881D01*
X10335833Y-10982929D01*
X10326310Y-10992452D01*
X10307262Y-11001976D01*
X10288214Y-11001976D01*
X10269167Y-10992452D01*
X10259643Y-10982929D01*
X10250119Y-10963881D01*
X10240595Y-10925786D01*
X10240595Y-10878167D01*
X10250119Y-10840071D01*
X10259643Y-10821024D01*
X10269167Y-10811500D01*
X10288214Y-10801976D01*
X10440595Y-10982929D02*
X10450119Y-10992452D01*
X10440595Y-11001976D01*
X10431071Y-10992452D01*
X10440595Y-10982929D01*
X10440595Y-11001976D01*
X10564405Y-10887690D02*
X10545357Y-10878167D01*
X10535833Y-10868643D01*
X10526310Y-10849595D01*
X10526310Y-10840071D01*
X10535833Y-10821024D01*
X10545357Y-10811500D01*
X10564405Y-10801976D01*
X10602500Y-10801976D01*
X10621548Y-10811500D01*
X10631071Y-10821024D01*
X10640595Y-10840071D01*
X10640595Y-10849595D01*
X10631071Y-10868643D01*
X10621548Y-10878167D01*
X10602500Y-10887690D01*
X10564405Y-10887690D01*
X10545357Y-10897214D01*
X10535833Y-10906738D01*
X10526310Y-10925786D01*
X10526310Y-10963881D01*
X10535833Y-10982929D01*
X10545357Y-10992452D01*
X10564405Y-11001976D01*
X10602500Y-11001976D01*
X10621548Y-10992452D01*
X10631071Y-10982929D01*
X10640595Y-10963881D01*
X10640595Y-10925786D01*
X10631071Y-10906738D01*
X10621548Y-10897214D01*
X10602500Y-10887690D01*
X10764405Y-10801976D02*
X10783452Y-10801976D01*
X10802500Y-10811500D01*
X10812024Y-10821024D01*
X10821548Y-10840071D01*
X10831071Y-10878167D01*
X10831071Y-10925786D01*
X10821548Y-10963881D01*
X10812024Y-10982929D01*
X10802500Y-10992452D01*
X10783452Y-11001976D01*
X10764405Y-11001976D01*
X10745357Y-10992452D01*
X10735833Y-10982929D01*
X10726310Y-10963881D01*
X10716786Y-10925786D01*
X10716786Y-10878167D01*
X10726310Y-10840071D01*
X10735833Y-10821024D01*
X10745357Y-10811500D01*
X10764405Y-10801976D01*
X10954881Y-10801976D02*
X10973929Y-10801976D01*
X10992976Y-10811500D01*
X11002500Y-10821024D01*
X11012024Y-10840071D01*
X11021548Y-10878167D01*
X11021548Y-10925786D01*
X11012024Y-10963881D01*
X11002500Y-10982929D01*
X10992976Y-10992452D01*
X10973929Y-11001976D01*
X10954881Y-11001976D01*
X10935833Y-10992452D01*
X10926310Y-10982929D01*
X10916786Y-10963881D01*
X10907262Y-10925786D01*
X10907262Y-10878167D01*
X10916786Y-10840071D01*
X10926310Y-10821024D01*
X10935833Y-10811500D01*
X10954881Y-10801976D01*
X11107262Y-11001976D02*
X11107262Y-10868643D01*
X11107262Y-10887690D02*
X11116786Y-10878167D01*
X11135833Y-10868643D01*
X11164405Y-10868643D01*
X11183452Y-10878167D01*
X11192976Y-10897214D01*
X11192976Y-11001976D01*
X11192976Y-10897214D02*
X11202500Y-10878167D01*
X11221548Y-10868643D01*
X11250119Y-10868643D01*
X11269167Y-10878167D01*
X11278690Y-10897214D01*
X11278690Y-11001976D01*
X11373928Y-11001976D02*
X11373928Y-10868643D01*
X11373928Y-10887690D02*
X11383452Y-10878167D01*
X11402500Y-10868643D01*
X11431071Y-10868643D01*
X11450119Y-10878167D01*
X11459643Y-10897214D01*
X11459643Y-11001976D01*
X11459643Y-10897214D02*
X11469167Y-10878167D01*
X11488214Y-10868643D01*
X11516786Y-10868643D01*
X11535833Y-10878167D01*
X11545357Y-10897214D01*
X11545357Y-11001976D01*
X11935833Y-10792452D02*
X11764405Y-11049595D01*
X12192976Y-10801976D02*
X12212024Y-10801976D01*
X12231071Y-10811500D01*
X12240595Y-10821024D01*
X12250119Y-10840071D01*
X12259643Y-10878167D01*
X12259643Y-10925786D01*
X12250119Y-10963881D01*
X12240595Y-10982929D01*
X12231071Y-10992452D01*
X12212024Y-11001976D01*
X12192976Y-11001976D01*
X12173928Y-10992452D01*
X12164405Y-10982929D01*
X12154881Y-10963881D01*
X12145357Y-10925786D01*
X12145357Y-10878167D01*
X12154881Y-10840071D01*
X12164405Y-10821024D01*
X12173928Y-10811500D01*
X12192976Y-10801976D01*
X12345357Y-10982929D02*
X12354881Y-10992452D01*
X12345357Y-11001976D01*
X12335833Y-10992452D01*
X12345357Y-10982929D01*
X12345357Y-11001976D01*
X12478690Y-10801976D02*
X12497738Y-10801976D01*
X12516786Y-10811500D01*
X12526309Y-10821024D01*
X12535833Y-10840071D01*
X12545357Y-10878167D01*
X12545357Y-10925786D01*
X12535833Y-10963881D01*
X12526309Y-10982929D01*
X12516786Y-10992452D01*
X12497738Y-11001976D01*
X12478690Y-11001976D01*
X12459643Y-10992452D01*
X12450119Y-10982929D01*
X12440595Y-10963881D01*
X12431071Y-10925786D01*
X12431071Y-10878167D01*
X12440595Y-10840071D01*
X12450119Y-10821024D01*
X12459643Y-10811500D01*
X12478690Y-10801976D01*
X12612024Y-10801976D02*
X12735833Y-10801976D01*
X12669167Y-10878167D01*
X12697738Y-10878167D01*
X12716786Y-10887690D01*
X12726309Y-10897214D01*
X12735833Y-10916262D01*
X12735833Y-10963881D01*
X12726309Y-10982929D01*
X12716786Y-10992452D01*
X12697738Y-11001976D01*
X12640595Y-11001976D01*
X12621548Y-10992452D01*
X12612024Y-10982929D01*
X12926309Y-11001976D02*
X12812024Y-11001976D01*
X12869167Y-11001976D02*
X12869167Y-10801976D01*
X12850119Y-10830548D01*
X12831071Y-10849595D01*
X12812024Y-10859119D01*
X13107262Y-10801976D02*
X13012024Y-10801976D01*
X13002500Y-10897214D01*
X13012024Y-10887690D01*
X13031071Y-10878167D01*
X13078690Y-10878167D01*
X13097738Y-10887690D01*
X13107262Y-10897214D01*
X13116786Y-10916262D01*
X13116786Y-10963881D01*
X13107262Y-10982929D01*
X13097738Y-10992452D01*
X13078690Y-11001976D01*
X13031071Y-11001976D01*
X13012024Y-10992452D01*
X13002500Y-10982929D01*
X13192976Y-10801976D02*
X13192976Y-10840071D01*
X13269167Y-10801976D02*
X13269167Y-10840071D01*
X13564405Y-11078167D02*
X13554881Y-11068643D01*
X13535833Y-11040071D01*
X13526309Y-11021024D01*
X13516786Y-10992452D01*
X13507262Y-10944833D01*
X13507262Y-10906738D01*
X13516786Y-10859119D01*
X13526309Y-10830548D01*
X13535833Y-10811500D01*
X13554881Y-10782929D01*
X13564405Y-10773405D01*
X13745357Y-11001976D02*
X13631071Y-11001976D01*
X13688214Y-11001976D02*
X13688214Y-10801976D01*
X13669167Y-10830548D01*
X13650119Y-10849595D01*
X13631071Y-10859119D01*
X13859643Y-10887690D02*
X13840595Y-10878167D01*
X13831071Y-10868643D01*
X13821548Y-10849595D01*
X13821548Y-10840071D01*
X13831071Y-10821024D01*
X13840595Y-10811500D01*
X13859643Y-10801976D01*
X13897738Y-10801976D01*
X13916786Y-10811500D01*
X13926309Y-10821024D01*
X13935833Y-10840071D01*
X13935833Y-10849595D01*
X13926309Y-10868643D01*
X13916786Y-10878167D01*
X13897738Y-10887690D01*
X13859643Y-10887690D01*
X13840595Y-10897214D01*
X13831071Y-10906738D01*
X13821548Y-10925786D01*
X13821548Y-10963881D01*
X13831071Y-10982929D01*
X13840595Y-10992452D01*
X13859643Y-11001976D01*
X13897738Y-11001976D01*
X13916786Y-10992452D01*
X13926309Y-10982929D01*
X13935833Y-10963881D01*
X13935833Y-10925786D01*
X13926309Y-10906738D01*
X13916786Y-10897214D01*
X13897738Y-10887690D01*
X14173928Y-11001976D02*
X14173928Y-10801976D01*
X14259643Y-11001976D02*
X14259643Y-10897214D01*
X14250119Y-10878167D01*
X14231071Y-10868643D01*
X14202500Y-10868643D01*
X14183452Y-10878167D01*
X14173928Y-10887690D01*
X14383452Y-11001976D02*
X14364405Y-10992452D01*
X14354881Y-10982929D01*
X14345357Y-10963881D01*
X14345357Y-10906738D01*
X14354881Y-10887690D01*
X14364405Y-10878167D01*
X14383452Y-10868643D01*
X14412024Y-10868643D01*
X14431071Y-10878167D01*
X14440595Y-10887690D01*
X14450119Y-10906738D01*
X14450119Y-10963881D01*
X14440595Y-10982929D01*
X14431071Y-10992452D01*
X14412024Y-11001976D01*
X14383452Y-11001976D01*
X14564405Y-11001976D02*
X14545357Y-10992452D01*
X14535833Y-10973405D01*
X14535833Y-10801976D01*
X14716786Y-10992452D02*
X14697738Y-11001976D01*
X14659643Y-11001976D01*
X14640595Y-10992452D01*
X14631071Y-10973405D01*
X14631071Y-10897214D01*
X14640595Y-10878167D01*
X14659643Y-10868643D01*
X14697738Y-10868643D01*
X14716786Y-10878167D01*
X14726309Y-10897214D01*
X14726309Y-10916262D01*
X14631071Y-10935310D01*
X14802500Y-10992452D02*
X14821548Y-11001976D01*
X14859643Y-11001976D01*
X14878690Y-10992452D01*
X14888214Y-10973405D01*
X14888214Y-10963881D01*
X14878690Y-10944833D01*
X14859643Y-10935310D01*
X14831071Y-10935310D01*
X14812024Y-10925786D01*
X14802500Y-10906738D01*
X14802500Y-10897214D01*
X14812024Y-10878167D01*
X14831071Y-10868643D01*
X14859643Y-10868643D01*
X14878690Y-10878167D01*
X14954881Y-11078167D02*
X14964405Y-11068643D01*
X14983452Y-11040071D01*
X14992976Y-11021024D01*
X15002500Y-10992452D01*
X15012024Y-10944833D01*
X15012024Y-10906738D01*
X15002500Y-10859119D01*
X14992976Y-10830548D01*
X14983452Y-10811500D01*
X14964405Y-10782929D01*
X14954881Y-10773405D01*
D14*
X9945000Y-11128000D02*
X9945000Y-11223000D01*
X9897500Y-11175500D02*
X9992500Y-11175500D01*
D11*
X10288214Y-11065976D02*
X10307262Y-11065976D01*
X10326310Y-11075500D01*
X10335833Y-11085024D01*
X10345357Y-11104071D01*
X10354881Y-11142167D01*
X10354881Y-11189786D01*
X10345357Y-11227881D01*
X10335833Y-11246928D01*
X10326310Y-11256452D01*
X10307262Y-11265976D01*
X10288214Y-11265976D01*
X10269167Y-11256452D01*
X10259643Y-11246928D01*
X10250119Y-11227881D01*
X10240595Y-11189786D01*
X10240595Y-11142167D01*
X10250119Y-11104071D01*
X10259643Y-11085024D01*
X10269167Y-11075500D01*
X10288214Y-11065976D01*
X10440595Y-11246928D02*
X10450119Y-11256452D01*
X10440595Y-11265976D01*
X10431071Y-11256452D01*
X10440595Y-11246928D01*
X10440595Y-11265976D01*
X10545357Y-11265976D02*
X10583452Y-11265976D01*
X10602500Y-11256452D01*
X10612024Y-11246928D01*
X10631071Y-11218357D01*
X10640595Y-11180262D01*
X10640595Y-11104071D01*
X10631071Y-11085024D01*
X10621548Y-11075500D01*
X10602500Y-11065976D01*
X10564405Y-11065976D01*
X10545357Y-11075500D01*
X10535833Y-11085024D01*
X10526310Y-11104071D01*
X10526310Y-11151690D01*
X10535833Y-11170738D01*
X10545357Y-11180262D01*
X10564405Y-11189786D01*
X10602500Y-11189786D01*
X10621548Y-11180262D01*
X10631071Y-11170738D01*
X10640595Y-11151690D01*
X10821548Y-11065976D02*
X10726310Y-11065976D01*
X10716786Y-11161214D01*
X10726310Y-11151690D01*
X10745357Y-11142167D01*
X10792976Y-11142167D01*
X10812024Y-11151690D01*
X10821548Y-11161214D01*
X10831071Y-11180262D01*
X10831071Y-11227881D01*
X10821548Y-11246928D01*
X10812024Y-11256452D01*
X10792976Y-11265976D01*
X10745357Y-11265976D01*
X10726310Y-11256452D01*
X10716786Y-11246928D01*
X10954881Y-11065976D02*
X10973929Y-11065976D01*
X10992976Y-11075500D01*
X11002500Y-11085024D01*
X11012024Y-11104071D01*
X11021548Y-11142167D01*
X11021548Y-11189786D01*
X11012024Y-11227881D01*
X11002500Y-11246928D01*
X10992976Y-11256452D01*
X10973929Y-11265976D01*
X10954881Y-11265976D01*
X10935833Y-11256452D01*
X10926310Y-11246928D01*
X10916786Y-11227881D01*
X10907262Y-11189786D01*
X10907262Y-11142167D01*
X10916786Y-11104071D01*
X10926310Y-11085024D01*
X10935833Y-11075500D01*
X10954881Y-11065976D01*
X11107262Y-11265976D02*
X11107262Y-11132643D01*
X11107262Y-11151690D02*
X11116786Y-11142167D01*
X11135833Y-11132643D01*
X11164405Y-11132643D01*
X11183452Y-11142167D01*
X11192976Y-11161214D01*
X11192976Y-11265976D01*
X11192976Y-11161214D02*
X11202500Y-11142167D01*
X11221548Y-11132643D01*
X11250119Y-11132643D01*
X11269167Y-11142167D01*
X11278690Y-11161214D01*
X11278690Y-11265976D01*
X11373928Y-11265976D02*
X11373928Y-11132643D01*
X11373928Y-11151690D02*
X11383452Y-11142167D01*
X11402500Y-11132643D01*
X11431071Y-11132643D01*
X11450119Y-11142167D01*
X11459643Y-11161214D01*
X11459643Y-11265976D01*
X11459643Y-11161214D02*
X11469167Y-11142167D01*
X11488214Y-11132643D01*
X11516786Y-11132643D01*
X11535833Y-11142167D01*
X11545357Y-11161214D01*
X11545357Y-11265976D01*
X11935833Y-11056452D02*
X11764405Y-11313595D01*
X12192976Y-11065976D02*
X12212024Y-11065976D01*
X12231071Y-11075500D01*
X12240595Y-11085024D01*
X12250119Y-11104071D01*
X12259643Y-11142167D01*
X12259643Y-11189786D01*
X12250119Y-11227881D01*
X12240595Y-11246928D01*
X12231071Y-11256452D01*
X12212024Y-11265976D01*
X12192976Y-11265976D01*
X12173928Y-11256452D01*
X12164405Y-11246928D01*
X12154881Y-11227881D01*
X12145357Y-11189786D01*
X12145357Y-11142167D01*
X12154881Y-11104071D01*
X12164405Y-11085024D01*
X12173928Y-11075500D01*
X12192976Y-11065976D01*
X12345357Y-11246928D02*
X12354881Y-11256452D01*
X12345357Y-11265976D01*
X12335833Y-11256452D01*
X12345357Y-11246928D01*
X12345357Y-11265976D01*
X12478690Y-11065976D02*
X12497738Y-11065976D01*
X12516786Y-11075500D01*
X12526309Y-11085024D01*
X12535833Y-11104071D01*
X12545357Y-11142167D01*
X12545357Y-11189786D01*
X12535833Y-11227881D01*
X12526309Y-11246928D01*
X12516786Y-11256452D01*
X12497738Y-11265976D01*
X12478690Y-11265976D01*
X12459643Y-11256452D01*
X12450119Y-11246928D01*
X12440595Y-11227881D01*
X12431071Y-11189786D01*
X12431071Y-11142167D01*
X12440595Y-11104071D01*
X12450119Y-11085024D01*
X12459643Y-11075500D01*
X12478690Y-11065976D01*
X12612024Y-11065976D02*
X12735833Y-11065976D01*
X12669167Y-11142167D01*
X12697738Y-11142167D01*
X12716786Y-11151690D01*
X12726309Y-11161214D01*
X12735833Y-11180262D01*
X12735833Y-11227881D01*
X12726309Y-11246928D01*
X12716786Y-11256452D01*
X12697738Y-11265976D01*
X12640595Y-11265976D01*
X12621548Y-11256452D01*
X12612024Y-11246928D01*
X12802500Y-11065976D02*
X12935833Y-11065976D01*
X12850119Y-11265976D01*
X13097738Y-11132643D02*
X13097738Y-11265976D01*
X13050119Y-11056452D02*
X13002500Y-11199309D01*
X13126309Y-11199309D01*
X13192976Y-11065976D02*
X13192976Y-11104071D01*
X13269167Y-11065976D02*
X13269167Y-11104071D01*
X13564405Y-11342167D02*
X13554881Y-11332643D01*
X13535833Y-11304071D01*
X13526309Y-11285024D01*
X13516786Y-11256452D01*
X13507262Y-11208833D01*
X13507262Y-11170738D01*
X13516786Y-11123119D01*
X13526309Y-11094548D01*
X13535833Y-11075500D01*
X13554881Y-11046929D01*
X13564405Y-11037405D01*
X13745357Y-11265976D02*
X13631071Y-11265976D01*
X13688214Y-11265976D02*
X13688214Y-11065976D01*
X13669167Y-11094548D01*
X13650119Y-11113595D01*
X13631071Y-11123119D01*
X13869167Y-11065976D02*
X13888214Y-11065976D01*
X13907262Y-11075500D01*
X13916786Y-11085024D01*
X13926309Y-11104071D01*
X13935833Y-11142167D01*
X13935833Y-11189786D01*
X13926309Y-11227881D01*
X13916786Y-11246928D01*
X13907262Y-11256452D01*
X13888214Y-11265976D01*
X13869167Y-11265976D01*
X13850119Y-11256452D01*
X13840595Y-11246928D01*
X13831071Y-11227881D01*
X13821548Y-11189786D01*
X13821548Y-11142167D01*
X13831071Y-11104071D01*
X13840595Y-11085024D01*
X13850119Y-11075500D01*
X13869167Y-11065976D01*
X14173928Y-11265976D02*
X14173928Y-11065976D01*
X14259643Y-11265976D02*
X14259643Y-11161214D01*
X14250119Y-11142167D01*
X14231071Y-11132643D01*
X14202500Y-11132643D01*
X14183452Y-11142167D01*
X14173928Y-11151690D01*
X14383452Y-11265976D02*
X14364405Y-11256452D01*
X14354881Y-11246928D01*
X14345357Y-11227881D01*
X14345357Y-11170738D01*
X14354881Y-11151690D01*
X14364405Y-11142167D01*
X14383452Y-11132643D01*
X14412024Y-11132643D01*
X14431071Y-11142167D01*
X14440595Y-11151690D01*
X14450119Y-11170738D01*
X14450119Y-11227881D01*
X14440595Y-11246928D01*
X14431071Y-11256452D01*
X14412024Y-11265976D01*
X14383452Y-11265976D01*
X14564405Y-11265976D02*
X14545357Y-11256452D01*
X14535833Y-11237405D01*
X14535833Y-11065976D01*
X14716786Y-11256452D02*
X14697738Y-11265976D01*
X14659643Y-11265976D01*
X14640595Y-11256452D01*
X14631071Y-11237405D01*
X14631071Y-11161214D01*
X14640595Y-11142167D01*
X14659643Y-11132643D01*
X14697738Y-11132643D01*
X14716786Y-11142167D01*
X14726309Y-11161214D01*
X14726309Y-11180262D01*
X14631071Y-11199309D01*
X14802500Y-11256452D02*
X14821548Y-11265976D01*
X14859643Y-11265976D01*
X14878690Y-11256452D01*
X14888214Y-11237405D01*
X14888214Y-11227881D01*
X14878690Y-11208833D01*
X14859643Y-11199309D01*
X14831071Y-11199309D01*
X14812024Y-11189786D01*
X14802500Y-11170738D01*
X14802500Y-11161214D01*
X14812024Y-11142167D01*
X14831071Y-11132643D01*
X14859643Y-11132643D01*
X14878690Y-11142167D01*
X14954881Y-11342167D02*
X14964405Y-11332643D01*
X14983452Y-11304071D01*
X14992976Y-11285024D01*
X15002500Y-11256452D01*
X15012024Y-11208833D01*
X15012024Y-11170738D01*
X15002500Y-11123119D01*
X14992976Y-11094548D01*
X14983452Y-11075500D01*
X14964405Y-11046929D01*
X14954881Y-11037405D01*
D15*
X9977856Y-11474856D02*
X9977856Y-11404144D01*
X9907144Y-11404144D01*
X9907144Y-11474856D01*
X9977856Y-11474856D01*
D11*
X10354881Y-11529976D02*
X10240595Y-11529976D01*
X10297738Y-11529976D02*
X10297738Y-11329976D01*
X10278690Y-11358548D01*
X10259643Y-11377595D01*
X10240595Y-11387119D01*
X10440595Y-11510928D02*
X10450119Y-11520452D01*
X10440595Y-11529976D01*
X10431071Y-11520452D01*
X10440595Y-11510928D01*
X10440595Y-11529976D01*
X10573929Y-11329976D02*
X10592976Y-11329976D01*
X10612024Y-11339500D01*
X10621548Y-11349024D01*
X10631071Y-11368071D01*
X10640595Y-11406167D01*
X10640595Y-11453786D01*
X10631071Y-11491881D01*
X10621548Y-11510928D01*
X10612024Y-11520452D01*
X10592976Y-11529976D01*
X10573929Y-11529976D01*
X10554881Y-11520452D01*
X10545357Y-11510928D01*
X10535833Y-11491881D01*
X10526310Y-11453786D01*
X10526310Y-11406167D01*
X10535833Y-11368071D01*
X10545357Y-11349024D01*
X10554881Y-11339500D01*
X10573929Y-11329976D01*
X10764405Y-11329976D02*
X10783452Y-11329976D01*
X10802500Y-11339500D01*
X10812024Y-11349024D01*
X10821548Y-11368071D01*
X10831071Y-11406167D01*
X10831071Y-11453786D01*
X10821548Y-11491881D01*
X10812024Y-11510928D01*
X10802500Y-11520452D01*
X10783452Y-11529976D01*
X10764405Y-11529976D01*
X10745357Y-11520452D01*
X10735833Y-11510928D01*
X10726310Y-11491881D01*
X10716786Y-11453786D01*
X10716786Y-11406167D01*
X10726310Y-11368071D01*
X10735833Y-11349024D01*
X10745357Y-11339500D01*
X10764405Y-11329976D01*
X10954881Y-11329976D02*
X10973929Y-11329976D01*
X10992976Y-11339500D01*
X11002500Y-11349024D01*
X11012024Y-11368071D01*
X11021548Y-11406167D01*
X11021548Y-11453786D01*
X11012024Y-11491881D01*
X11002500Y-11510928D01*
X10992976Y-11520452D01*
X10973929Y-11529976D01*
X10954881Y-11529976D01*
X10935833Y-11520452D01*
X10926310Y-11510928D01*
X10916786Y-11491881D01*
X10907262Y-11453786D01*
X10907262Y-11406167D01*
X10916786Y-11368071D01*
X10926310Y-11349024D01*
X10935833Y-11339500D01*
X10954881Y-11329976D01*
X11107262Y-11529976D02*
X11107262Y-11396643D01*
X11107262Y-11415690D02*
X11116786Y-11406167D01*
X11135833Y-11396643D01*
X11164405Y-11396643D01*
X11183452Y-11406167D01*
X11192976Y-11425214D01*
X11192976Y-11529976D01*
X11192976Y-11425214D02*
X11202500Y-11406167D01*
X11221548Y-11396643D01*
X11250119Y-11396643D01*
X11269167Y-11406167D01*
X11278690Y-11425214D01*
X11278690Y-11529976D01*
X11373928Y-11529976D02*
X11373928Y-11396643D01*
X11373928Y-11415690D02*
X11383452Y-11406167D01*
X11402500Y-11396643D01*
X11431071Y-11396643D01*
X11450119Y-11406167D01*
X11459643Y-11425214D01*
X11459643Y-11529976D01*
X11459643Y-11425214D02*
X11469167Y-11406167D01*
X11488214Y-11396643D01*
X11516786Y-11396643D01*
X11535833Y-11406167D01*
X11545357Y-11425214D01*
X11545357Y-11529976D01*
X11935833Y-11320452D02*
X11764405Y-11577595D01*
X12192976Y-11329976D02*
X12212024Y-11329976D01*
X12231071Y-11339500D01*
X12240595Y-11349024D01*
X12250119Y-11368071D01*
X12259643Y-11406167D01*
X12259643Y-11453786D01*
X12250119Y-11491881D01*
X12240595Y-11510928D01*
X12231071Y-11520452D01*
X12212024Y-11529976D01*
X12192976Y-11529976D01*
X12173928Y-11520452D01*
X12164405Y-11510928D01*
X12154881Y-11491881D01*
X12145357Y-11453786D01*
X12145357Y-11406167D01*
X12154881Y-11368071D01*
X12164405Y-11349024D01*
X12173928Y-11339500D01*
X12192976Y-11329976D01*
X12345357Y-11510928D02*
X12354881Y-11520452D01*
X12345357Y-11529976D01*
X12335833Y-11520452D01*
X12345357Y-11510928D01*
X12345357Y-11529976D01*
X12478690Y-11329976D02*
X12497738Y-11329976D01*
X12516786Y-11339500D01*
X12526309Y-11349024D01*
X12535833Y-11368071D01*
X12545357Y-11406167D01*
X12545357Y-11453786D01*
X12535833Y-11491881D01*
X12526309Y-11510928D01*
X12516786Y-11520452D01*
X12497738Y-11529976D01*
X12478690Y-11529976D01*
X12459643Y-11520452D01*
X12450119Y-11510928D01*
X12440595Y-11491881D01*
X12431071Y-11453786D01*
X12431071Y-11406167D01*
X12440595Y-11368071D01*
X12450119Y-11349024D01*
X12459643Y-11339500D01*
X12478690Y-11329976D01*
X12612024Y-11329976D02*
X12735833Y-11329976D01*
X12669167Y-11406167D01*
X12697738Y-11406167D01*
X12716786Y-11415690D01*
X12726309Y-11425214D01*
X12735833Y-11444262D01*
X12735833Y-11491881D01*
X12726309Y-11510928D01*
X12716786Y-11520452D01*
X12697738Y-11529976D01*
X12640595Y-11529976D01*
X12621548Y-11520452D01*
X12612024Y-11510928D01*
X12831071Y-11529976D02*
X12869167Y-11529976D01*
X12888214Y-11520452D01*
X12897738Y-11510928D01*
X12916786Y-11482357D01*
X12926309Y-11444262D01*
X12926309Y-11368071D01*
X12916786Y-11349024D01*
X12907262Y-11339500D01*
X12888214Y-11329976D01*
X12850119Y-11329976D01*
X12831071Y-11339500D01*
X12821548Y-11349024D01*
X12812024Y-11368071D01*
X12812024Y-11415690D01*
X12821548Y-11434738D01*
X12831071Y-11444262D01*
X12850119Y-11453786D01*
X12888214Y-11453786D01*
X12907262Y-11444262D01*
X12916786Y-11434738D01*
X12926309Y-11415690D01*
X13097738Y-11396643D02*
X13097738Y-11529976D01*
X13050119Y-11320452D02*
X13002500Y-11463309D01*
X13126309Y-11463309D01*
X13192976Y-11329976D02*
X13192976Y-11368071D01*
X13269167Y-11329976D02*
X13269167Y-11368071D01*
X13564405Y-11606167D02*
X13554881Y-11596643D01*
X13535833Y-11568071D01*
X13526309Y-11549024D01*
X13516786Y-11520452D01*
X13507262Y-11472833D01*
X13507262Y-11434738D01*
X13516786Y-11387119D01*
X13526309Y-11358548D01*
X13535833Y-11339500D01*
X13554881Y-11310928D01*
X13564405Y-11301405D01*
X13621548Y-11329976D02*
X13754881Y-11329976D01*
X13669167Y-11529976D01*
X13983452Y-11529976D02*
X13983452Y-11329976D01*
X14069167Y-11529976D02*
X14069167Y-11425214D01*
X14059643Y-11406167D01*
X14040595Y-11396643D01*
X14012024Y-11396643D01*
X13992976Y-11406167D01*
X13983452Y-11415690D01*
X14192976Y-11529976D02*
X14173928Y-11520452D01*
X14164405Y-11510928D01*
X14154881Y-11491881D01*
X14154881Y-11434738D01*
X14164405Y-11415690D01*
X14173928Y-11406167D01*
X14192976Y-11396643D01*
X14221548Y-11396643D01*
X14240595Y-11406167D01*
X14250119Y-11415690D01*
X14259643Y-11434738D01*
X14259643Y-11491881D01*
X14250119Y-11510928D01*
X14240595Y-11520452D01*
X14221548Y-11529976D01*
X14192976Y-11529976D01*
X14373928Y-11529976D02*
X14354881Y-11520452D01*
X14345357Y-11501405D01*
X14345357Y-11329976D01*
X14526309Y-11520452D02*
X14507262Y-11529976D01*
X14469167Y-11529976D01*
X14450119Y-11520452D01*
X14440595Y-11501405D01*
X14440595Y-11425214D01*
X14450119Y-11406167D01*
X14469167Y-11396643D01*
X14507262Y-11396643D01*
X14526309Y-11406167D01*
X14535833Y-11425214D01*
X14535833Y-11444262D01*
X14440595Y-11463309D01*
X14612024Y-11520452D02*
X14631071Y-11529976D01*
X14669167Y-11529976D01*
X14688214Y-11520452D01*
X14697738Y-11501405D01*
X14697738Y-11491881D01*
X14688214Y-11472833D01*
X14669167Y-11463309D01*
X14640595Y-11463309D01*
X14621548Y-11453786D01*
X14612024Y-11434738D01*
X14612024Y-11425214D01*
X14621548Y-11406167D01*
X14640595Y-11396643D01*
X14669167Y-11396643D01*
X14688214Y-11406167D01*
X14764405Y-11606167D02*
X14773928Y-11596643D01*
X14792976Y-11568071D01*
X14802500Y-11549024D01*
X14812024Y-11520452D01*
X14821548Y-11472833D01*
X14821548Y-11434738D01*
X14812024Y-11387119D01*
X14802500Y-11358548D01*
X14792976Y-11339500D01*
X14773928Y-11310928D01*
X14764405Y-11301405D01*
M02*
