%TF.GenerationSoftware,KiCad,Pcbnew,6.0.11+dfsg-1*%
%TF.CreationDate,2023-12-17T01:08:28-05:00*%
%TF.ProjectId,28byj_controller,32386279-6a5f-4636-9f6e-74726f6c6c65,rev?*%
%TF.SameCoordinates,Original*%
%TF.FileFunction,Copper,L2,Bot*%
%TF.FilePolarity,Positive*%
%FSLAX46Y46*%
G04 Gerber Fmt 4.6, Leading zero omitted, Abs format (unit mm)*
G04 Created by KiCad (PCBNEW 6.0.11+dfsg-1) date 2023-12-17 01:08:28*
%MOMM*%
%LPD*%
G01*
G04 APERTURE LIST*
G04 Aperture macros list*
%AMRoundRect*
0 Rectangle with rounded corners*
0 $1 Rounding radius*
0 $2 $3 $4 $5 $6 $7 $8 $9 X,Y pos of 4 corners*
0 Add a 4 corners polygon primitive as box body*
4,1,4,$2,$3,$4,$5,$6,$7,$8,$9,$2,$3,0*
0 Add four circle primitives for the rounded corners*
1,1,$1+$1,$2,$3*
1,1,$1+$1,$4,$5*
1,1,$1+$1,$6,$7*
1,1,$1+$1,$8,$9*
0 Add four rect primitives between the rounded corners*
20,1,$1+$1,$2,$3,$4,$5,0*
20,1,$1+$1,$4,$5,$6,$7,0*
20,1,$1+$1,$6,$7,$8,$9,0*
20,1,$1+$1,$8,$9,$2,$3,0*%
G04 Aperture macros list end*
%TA.AperFunction,ComponentPad*%
%ADD10R,1.700000X1.700000*%
%TD*%
%TA.AperFunction,ComponentPad*%
%ADD11O,1.700000X1.700000*%
%TD*%
%TA.AperFunction,ComponentPad*%
%ADD12RoundRect,0.250000X0.725000X-0.600000X0.725000X0.600000X-0.725000X0.600000X-0.725000X-0.600000X0*%
%TD*%
%TA.AperFunction,ComponentPad*%
%ADD13O,1.950000X1.700000*%
%TD*%
%TA.AperFunction,ComponentPad*%
%ADD14RoundRect,0.250000X-0.600000X-0.725000X0.600000X-0.725000X0.600000X0.725000X-0.600000X0.725000X0*%
%TD*%
%TA.AperFunction,ComponentPad*%
%ADD15O,1.700000X1.950000*%
%TD*%
%TA.AperFunction,SMDPad,CuDef*%
%ADD16RoundRect,0.250000X0.475000X-0.337500X0.475000X0.337500X-0.475000X0.337500X-0.475000X-0.337500X0*%
%TD*%
%TA.AperFunction,SMDPad,CuDef*%
%ADD17RoundRect,0.250000X-0.350000X-0.450000X0.350000X-0.450000X0.350000X0.450000X-0.350000X0.450000X0*%
%TD*%
%TA.AperFunction,SMDPad,CuDef*%
%ADD18RoundRect,0.150000X0.725000X0.150000X-0.725000X0.150000X-0.725000X-0.150000X0.725000X-0.150000X0*%
%TD*%
%TA.AperFunction,ComponentPad*%
%ADD19R,1.600000X1.600000*%
%TD*%
%TA.AperFunction,ComponentPad*%
%ADD20O,1.600000X1.600000*%
%TD*%
%TA.AperFunction,ViaPad*%
%ADD21C,0.800000*%
%TD*%
%TA.AperFunction,Conductor*%
%ADD22C,0.250000*%
%TD*%
G04 APERTURE END LIST*
D10*
%TO.P,J1,1,Pin_1*%
%TO.N,Net-(J1-Pad1)*%
X121666000Y-55880000D03*
D11*
%TO.P,J1,2,Pin_2*%
%TO.N,Net-(J1-Pad2)*%
X124206000Y-55880000D03*
%TO.P,J1,3,Pin_3*%
%TO.N,Net-(J1-Pad3)*%
X126746000Y-55880000D03*
%TO.P,J1,4,Pin_4*%
%TO.N,Net-(J1-Pad4)*%
X129286000Y-55880000D03*
%TO.P,J1,5,Pin_5*%
%TO.N,Net-(J1-Pad5)*%
X131826000Y-55880000D03*
%TD*%
D10*
%TO.P,J2,1,Pin_1*%
%TO.N,+5V*%
X106934000Y-67818000D03*
D11*
%TO.P,J2,2,Pin_2*%
%TO.N,Earth*%
X106934000Y-65278000D03*
%TD*%
D12*
%TO.P,M1,1*%
%TO.N,Net-(M1-Pad1)*%
X141478000Y-78486000D03*
D13*
%TO.P,M1,2*%
%TO.N,Net-(M1-Pad2)*%
X141478000Y-75986000D03*
%TO.P,M1,3*%
%TO.N,Net-(M1-Pad3)*%
X141478000Y-73486000D03*
%TO.P,M1,4*%
%TO.N,Net-(M1-Pad4)*%
X141478000Y-70986000D03*
%TO.P,M1,5,VIN*%
%TO.N,+5V*%
X141478000Y-68486000D03*
%TD*%
D14*
%TO.P,M2,1*%
%TO.N,Net-(M2-Pad1)*%
X121666000Y-91440000D03*
D15*
%TO.P,M2,2*%
%TO.N,Net-(M2-Pad2)*%
X124166000Y-91440000D03*
%TO.P,M2,3*%
%TO.N,Net-(M2-Pad3)*%
X126666000Y-91440000D03*
%TO.P,M2,4*%
%TO.N,Net-(M2-Pad4)*%
X129166000Y-91440000D03*
%TO.P,M2,5,VIN*%
%TO.N,+5V*%
X131666000Y-91440000D03*
%TD*%
D16*
%TO.P,C1,1*%
%TO.N,+5V*%
X113538000Y-67585500D03*
%TO.P,C1,2*%
%TO.N,Earth*%
X113538000Y-65510500D03*
%TD*%
D17*
%TO.P,R6,1*%
%TO.N,Net-(R6-Pad1)*%
X109744000Y-90678000D03*
%TO.P,R6,2*%
%TO.N,Earth*%
X111744000Y-90678000D03*
%TD*%
D18*
%TO.P,U1,1,QB*%
%TO.N,Net-(U1-Pad1)*%
X113827000Y-76327000D03*
%TO.P,U1,2,QC*%
%TO.N,Net-(U1-Pad2)*%
X113827000Y-77597000D03*
%TO.P,U1,3,QD*%
%TO.N,Net-(U1-Pad3)*%
X113827000Y-78867000D03*
%TO.P,U1,4,QE*%
%TO.N,Net-(U1-Pad4)*%
X113827000Y-80137000D03*
%TO.P,U1,5,QF*%
%TO.N,Net-(U1-Pad5)*%
X113827000Y-81407000D03*
%TO.P,U1,6,QG*%
%TO.N,Net-(U1-Pad6)*%
X113827000Y-82677000D03*
%TO.P,U1,7,QH*%
%TO.N,Net-(U1-Pad7)*%
X113827000Y-83947000D03*
%TO.P,U1,8,GND*%
%TO.N,Earth*%
X113827000Y-85217000D03*
%TO.P,U1,9,QH'*%
%TO.N,Net-(R6-Pad1)*%
X108677000Y-85217000D03*
%TO.P,U1,10,~{SRCLR}*%
%TO.N,Net-(J1-Pad5)*%
X108677000Y-83947000D03*
%TO.P,U1,11,SRCLK*%
%TO.N,Net-(J1-Pad2)*%
X108677000Y-82677000D03*
%TO.P,U1,12,RCLK*%
%TO.N,Net-(J1-Pad3)*%
X108677000Y-81407000D03*
%TO.P,U1,13,~{OE}*%
%TO.N,Net-(J1-Pad4)*%
X108677000Y-80137000D03*
%TO.P,U1,14,SER*%
%TO.N,Net-(J1-Pad1)*%
X108677000Y-78867000D03*
%TO.P,U1,15,QA*%
%TO.N,Net-(U1-Pad15)*%
X108677000Y-77597000D03*
%TO.P,U1,16,VCC*%
%TO.N,+5V*%
X108677000Y-76327000D03*
%TD*%
D19*
%TO.P,U2,1,I1*%
%TO.N,Net-(U1-Pad7)*%
X125984000Y-83820000D03*
D20*
%TO.P,U2,2,I2*%
%TO.N,Net-(U1-Pad6)*%
X125984000Y-81280000D03*
%TO.P,U2,3,I3*%
%TO.N,Net-(U1-Pad5)*%
X125984000Y-78740000D03*
%TO.P,U2,4,I4*%
%TO.N,Net-(U1-Pad4)*%
X125984000Y-76200000D03*
%TO.P,U2,5,I5*%
%TO.N,Net-(U1-Pad3)*%
X125984000Y-73660000D03*
%TO.P,U2,6,I6*%
%TO.N,Net-(U1-Pad2)*%
X125984000Y-71120000D03*
%TO.P,U2,7,I7*%
%TO.N,Net-(U1-Pad1)*%
X125984000Y-68580000D03*
%TO.P,U2,8,I8*%
%TO.N,Net-(U1-Pad15)*%
X125984000Y-66040000D03*
%TO.P,U2,9,GND*%
%TO.N,Earth*%
X125984000Y-63500000D03*
%TO.P,U2,10,COM*%
%TO.N,+5V*%
X133604000Y-63500000D03*
%TO.P,U2,11,O8*%
%TO.N,Net-(M2-Pad4)*%
X133604000Y-66040000D03*
%TO.P,U2,12,O7*%
%TO.N,Net-(M2-Pad3)*%
X133604000Y-68580000D03*
%TO.P,U2,13,O6*%
%TO.N,Net-(M2-Pad2)*%
X133604000Y-71120000D03*
%TO.P,U2,14,O5*%
%TO.N,Net-(M2-Pad1)*%
X133604000Y-73660000D03*
%TO.P,U2,15,O4*%
%TO.N,Net-(M1-Pad4)*%
X133604000Y-76200000D03*
%TO.P,U2,16,O3*%
%TO.N,Net-(M1-Pad3)*%
X133604000Y-78740000D03*
%TO.P,U2,17,O2*%
%TO.N,Net-(M1-Pad2)*%
X133604000Y-81280000D03*
%TO.P,U2,18,O1*%
%TO.N,Net-(M1-Pad1)*%
X133604000Y-83820000D03*
%TD*%
D21*
%TO.N,Earth*%
X110958000Y-65318000D03*
X112476000Y-86568000D03*
%TO.N,+5V*%
X116099500Y-67585500D03*
%TO.N,Net-(J1-Pad3)*%
X115573465Y-53594000D03*
%TO.N,Net-(J1-Pad2)*%
X113792000Y-54356000D03*
%TD*%
D22*
%TO.N,Earth*%
X112476000Y-86568000D02*
X113827000Y-85217000D01*
X110958000Y-65318000D02*
X113345500Y-65318000D01*
X111744000Y-87300000D02*
X112476000Y-86568000D01*
X111744000Y-90678000D02*
X111744000Y-87300000D01*
X113538000Y-65510500D02*
X123973500Y-65510500D01*
X123973500Y-65510500D02*
X125984000Y-63500000D01*
X113345500Y-65318000D02*
X113538000Y-65510500D01*
X106934000Y-65318000D02*
X110958000Y-65318000D01*
%TO.N,+5V*%
X116099500Y-67585500D02*
X116099500Y-67585500D01*
X108677000Y-76327000D02*
X108677000Y-75008000D01*
X113305500Y-67818000D02*
X113538000Y-67585500D01*
X132478999Y-62374999D02*
X128887001Y-62374999D01*
X113538000Y-67585500D02*
X116099500Y-67585500D01*
X108677000Y-75008000D02*
X116099500Y-67585500D01*
X125205411Y-64914999D02*
X122534910Y-67585500D01*
X122534910Y-67585500D02*
X116099500Y-67585500D01*
X126347001Y-64914999D02*
X125205411Y-64914999D01*
X133604000Y-63500000D02*
X132478999Y-62374999D01*
X128887001Y-62374999D02*
X126347001Y-64914999D01*
X106934000Y-67818000D02*
X113305500Y-67818000D01*
%TO.N,Net-(J1-Pad5)*%
X103747981Y-63327017D02*
X114750998Y-52324000D01*
X114750998Y-52324000D02*
X127396715Y-52324000D01*
X103747981Y-79892981D02*
X103747981Y-63327017D01*
X130952715Y-55880000D02*
X131666000Y-55880000D01*
X107802000Y-83947000D02*
X103747981Y-79892981D01*
X127396715Y-52324000D02*
X130952715Y-55880000D01*
X108677000Y-83947000D02*
X107802000Y-83947000D01*
%TO.N,Net-(J1-Pad4)*%
X115223885Y-54579990D02*
X127865990Y-54579990D01*
X105158981Y-77493981D02*
X105158981Y-64644894D01*
X105158981Y-64644894D02*
X115223885Y-54579990D01*
X127865990Y-54579990D02*
X129166000Y-55880000D01*
X108677000Y-80137000D02*
X107802000Y-80137000D01*
X107802000Y-80137000D02*
X105158981Y-77493981D01*
%TO.N,Net-(J1-Pad3)*%
X115573465Y-53594000D02*
X115573465Y-53594000D01*
X104648000Y-78253000D02*
X104648000Y-64519465D01*
X108677000Y-81407000D02*
X107802000Y-81407000D01*
X104648000Y-64519465D02*
X115573465Y-53594000D01*
X107802000Y-81407000D02*
X104648000Y-78253000D01*
%TO.N,Net-(J1-Pad2)*%
X108677000Y-82677000D02*
X107802000Y-82677000D01*
X104197991Y-63896472D02*
X104251528Y-63896472D01*
X104197991Y-79072991D02*
X104197991Y-63896472D01*
X104251528Y-63896472D02*
X113792000Y-54356000D01*
X107802000Y-82677000D02*
X104197991Y-79072991D01*
%TO.N,Net-(J1-Pad1)*%
X105608990Y-64831295D02*
X114560285Y-55880000D01*
X108677000Y-78867000D02*
X107802000Y-78867000D01*
X105608990Y-76673990D02*
X105608990Y-64831295D01*
X114560285Y-55880000D02*
X121666000Y-55880000D01*
X107802000Y-78867000D02*
X105608990Y-76673990D01*
%TO.N,Net-(M2-Pad4)*%
X135629019Y-84976981D02*
X129166000Y-91440000D01*
X135629019Y-68065019D02*
X135629019Y-84976981D01*
X133604000Y-66040000D02*
X135629019Y-68065019D01*
%TO.N,Net-(M2-Pad3)*%
X129460000Y-88646000D02*
X126666000Y-91440000D01*
X135179010Y-84546402D02*
X131079412Y-88646000D01*
X135179010Y-70155010D02*
X135179010Y-84546402D01*
X133604000Y-68580000D02*
X135179010Y-70155010D01*
X131079412Y-88646000D02*
X129460000Y-88646000D01*
%TO.N,Net-(M2-Pad2)*%
X131967002Y-87122000D02*
X128484000Y-87122000D01*
X134729001Y-84360001D02*
X131967002Y-87122000D01*
X128484000Y-87122000D02*
X124166000Y-91440000D01*
X133604000Y-71120000D02*
X134729001Y-72245001D01*
X134729001Y-72245001D02*
X134729001Y-84360001D01*
%TO.N,Net-(M2-Pad1)*%
X132478999Y-74785001D02*
X132478999Y-80627001D01*
X132478999Y-80627001D02*
X121666000Y-91440000D01*
X133604000Y-73660000D02*
X132478999Y-74785001D01*
%TO.N,Net-(R6-Pad1)*%
X108677000Y-85217000D02*
X108677000Y-89611000D01*
X108677000Y-89611000D02*
X109744000Y-90678000D01*
%TO.N,Net-(U1-Pad15)*%
X118650990Y-68498010D02*
X109552000Y-77597000D01*
X125984000Y-66040000D02*
X123525990Y-68498010D01*
X109552000Y-77597000D02*
X108677000Y-77597000D01*
X123525990Y-68498010D02*
X118650990Y-68498010D01*
%TO.N,Net-(U1-Pad7)*%
X113827000Y-83947000D02*
X125857000Y-83947000D01*
X125857000Y-83947000D02*
X125984000Y-83820000D01*
%TO.N,Net-(U1-Pad6)*%
X113827000Y-82677000D02*
X124587000Y-82677000D01*
X124587000Y-82677000D02*
X125984000Y-81280000D01*
%TO.N,Net-(U1-Pad5)*%
X123317000Y-81407000D02*
X125984000Y-78740000D01*
X113827000Y-81407000D02*
X123317000Y-81407000D01*
%TO.N,Net-(U1-Pad4)*%
X113827000Y-80137000D02*
X122047000Y-80137000D01*
X122047000Y-80137000D02*
X125984000Y-76200000D01*
%TO.N,Net-(U1-Pad3)*%
X113827000Y-78867000D02*
X120777000Y-78867000D01*
X120777000Y-78867000D02*
X125984000Y-73660000D01*
%TO.N,Net-(U1-Pad2)*%
X113827000Y-77597000D02*
X119507000Y-77597000D01*
X119507000Y-77597000D02*
X125984000Y-71120000D01*
%TO.N,Net-(U1-Pad1)*%
X118237000Y-76327000D02*
X125984000Y-68580000D01*
X113827000Y-76327000D02*
X118237000Y-76327000D01*
%TD*%
M02*
