%TF.GenerationSoftware,KiCad,Pcbnew,6.0.11+dfsg-1*%
%TF.CreationDate,2023-12-17T01:10:28-05:00*%
%TF.ProjectId,x27_controller,7832375f-636f-46e7-9472-6f6c6c65722e,rev?*%
%TF.SameCoordinates,Original*%
%TF.FileFunction,Legend,Bot*%
%TF.FilePolarity,Positive*%
%FSLAX46Y46*%
G04 Gerber Fmt 4.6, Leading zero omitted, Abs format (unit mm)*
G04 Created by KiCad (PCBNEW 6.0.11+dfsg-1) date 2023-12-17 01:10:28*
%MOMM*%
%LPD*%
G01*
G04 APERTURE LIST*
%ADD10C,0.300000*%
%ADD11C,0.150000*%
%ADD12C,0.120000*%
G04 APERTURE END LIST*
D10*
X118951428Y-59098571D02*
X119808571Y-59098571D01*
X119380000Y-59098571D02*
X119380000Y-57598571D01*
X119522857Y-57812857D01*
X119665714Y-57955714D01*
X119808571Y-58027142D01*
X102171428Y-63607142D02*
X101028571Y-63607142D01*
X102171428Y-68687142D02*
X101028571Y-68687142D01*
X101600000Y-69258571D02*
X101600000Y-68115714D01*
X125947428Y-87212214D02*
X126018857Y-87283642D01*
X126233142Y-87355071D01*
X126376000Y-87355071D01*
X126590285Y-87283642D01*
X126733142Y-87140785D01*
X126804571Y-86997928D01*
X126876000Y-86712214D01*
X126876000Y-86497928D01*
X126804571Y-86212214D01*
X126733142Y-86069357D01*
X126590285Y-85926500D01*
X126376000Y-85855071D01*
X126233142Y-85855071D01*
X126018857Y-85926500D01*
X125947428Y-85997928D01*
X125090285Y-87355071D02*
X125233142Y-87283642D01*
X125304571Y-87212214D01*
X125376000Y-87069357D01*
X125376000Y-86640785D01*
X125304571Y-86497928D01*
X125233142Y-86426500D01*
X125090285Y-86355071D01*
X124876000Y-86355071D01*
X124733142Y-86426500D01*
X124661714Y-86497928D01*
X124590285Y-86640785D01*
X124590285Y-87069357D01*
X124661714Y-87212214D01*
X124733142Y-87283642D01*
X124876000Y-87355071D01*
X125090285Y-87355071D01*
X123947428Y-86355071D02*
X123947428Y-87355071D01*
X123947428Y-86497928D02*
X123876000Y-86426500D01*
X123733142Y-86355071D01*
X123518857Y-86355071D01*
X123376000Y-86426500D01*
X123304571Y-86569357D01*
X123304571Y-87355071D01*
X122590285Y-86355071D02*
X122590285Y-87355071D01*
X122590285Y-86497928D02*
X122518857Y-86426500D01*
X122376000Y-86355071D01*
X122161714Y-86355071D01*
X122018857Y-86426500D01*
X121947428Y-86569357D01*
X121947428Y-87355071D01*
X121018857Y-87355071D02*
X121161714Y-87283642D01*
X121233142Y-87212214D01*
X121304571Y-87069357D01*
X121304571Y-86640785D01*
X121233142Y-86497928D01*
X121161714Y-86426500D01*
X121018857Y-86355071D01*
X120804571Y-86355071D01*
X120661714Y-86426500D01*
X120590285Y-86497928D01*
X120518857Y-86640785D01*
X120518857Y-87069357D01*
X120590285Y-87212214D01*
X120661714Y-87283642D01*
X120804571Y-87355071D01*
X121018857Y-87355071D01*
X119876000Y-87355071D02*
X119876000Y-86355071D01*
X119876000Y-86640785D02*
X119804571Y-86497928D01*
X119733142Y-86426500D01*
X119590285Y-86355071D01*
X119447428Y-86355071D01*
X117304571Y-86569357D02*
X117090285Y-86640785D01*
X117018857Y-86712214D01*
X116947428Y-86855071D01*
X116947428Y-87069357D01*
X117018857Y-87212214D01*
X117090285Y-87283642D01*
X117233142Y-87355071D01*
X117804571Y-87355071D01*
X117804571Y-85855071D01*
X117304571Y-85855071D01*
X117161714Y-85926500D01*
X117090285Y-85997928D01*
X117018857Y-86140785D01*
X117018857Y-86283642D01*
X117090285Y-86426500D01*
X117161714Y-86497928D01*
X117304571Y-86569357D01*
X117804571Y-86569357D01*
X116304571Y-87355071D02*
X116304571Y-86355071D01*
X116304571Y-86640785D02*
X116233142Y-86497928D01*
X116161714Y-86426500D01*
X116018857Y-86355071D01*
X115876000Y-86355071D01*
X115376000Y-87355071D02*
X115376000Y-86355071D01*
X115376000Y-85855071D02*
X115447428Y-85926500D01*
X115376000Y-85997928D01*
X115304571Y-85926500D01*
X115376000Y-85855071D01*
X115376000Y-85997928D01*
X114018857Y-86355071D02*
X114018857Y-87569357D01*
X114090285Y-87712214D01*
X114161714Y-87783642D01*
X114304571Y-87855071D01*
X114518857Y-87855071D01*
X114661714Y-87783642D01*
X114018857Y-87283642D02*
X114161714Y-87355071D01*
X114447428Y-87355071D01*
X114590285Y-87283642D01*
X114661714Y-87212214D01*
X114733142Y-87069357D01*
X114733142Y-86640785D01*
X114661714Y-86497928D01*
X114590285Y-86426500D01*
X114447428Y-86355071D01*
X114161714Y-86355071D01*
X114018857Y-86426500D01*
X112661714Y-86355071D02*
X112661714Y-87569357D01*
X112733142Y-87712214D01*
X112804571Y-87783642D01*
X112947428Y-87855071D01*
X113161714Y-87855071D01*
X113304571Y-87783642D01*
X112661714Y-87283642D02*
X112804571Y-87355071D01*
X113090285Y-87355071D01*
X113233142Y-87283642D01*
X113304571Y-87212214D01*
X113376000Y-87069357D01*
X113376000Y-86640785D01*
X113304571Y-86497928D01*
X113233142Y-86426500D01*
X113090285Y-86355071D01*
X112804571Y-86355071D01*
X112661714Y-86426500D01*
X112018857Y-87283642D02*
X111876000Y-87355071D01*
X111590285Y-87355071D01*
X111447428Y-87283642D01*
X111376000Y-87140785D01*
X111376000Y-87069357D01*
X111447428Y-86926500D01*
X111590285Y-86855071D01*
X111804571Y-86855071D01*
X111947428Y-86783642D01*
X112018857Y-86640785D01*
X112018857Y-86569357D01*
X111947428Y-86426500D01*
X111804571Y-86355071D01*
X111590285Y-86355071D01*
X111447428Y-86426500D01*
X131233142Y-89770071D02*
X131233142Y-88270071D01*
X130661714Y-88270071D01*
X130518857Y-88341500D01*
X130447428Y-88412928D01*
X130376000Y-88555785D01*
X130376000Y-88770071D01*
X130447428Y-88912928D01*
X130518857Y-88984357D01*
X130661714Y-89055785D01*
X131233142Y-89055785D01*
X129733142Y-89770071D02*
X129733142Y-88770071D01*
X129733142Y-88270071D02*
X129804571Y-88341500D01*
X129733142Y-88412928D01*
X129661714Y-88341500D01*
X129733142Y-88270071D01*
X129733142Y-88412928D01*
X128804571Y-89770071D02*
X128947428Y-89698642D01*
X129018857Y-89555785D01*
X129018857Y-88270071D01*
X128018857Y-89770071D02*
X128161714Y-89698642D01*
X128233142Y-89627214D01*
X128304571Y-89484357D01*
X128304571Y-89055785D01*
X128233142Y-88912928D01*
X128161714Y-88841500D01*
X128018857Y-88770071D01*
X127804571Y-88770071D01*
X127661714Y-88841500D01*
X127590285Y-88912928D01*
X127518857Y-89055785D01*
X127518857Y-89484357D01*
X127590285Y-89627214D01*
X127661714Y-89698642D01*
X127804571Y-89770071D01*
X128018857Y-89770071D01*
X127090285Y-88770071D02*
X126518857Y-88770071D01*
X126876000Y-88270071D02*
X126876000Y-89555785D01*
X126804571Y-89698642D01*
X126661714Y-89770071D01*
X126518857Y-89770071D01*
X126161714Y-88270071D02*
X125804571Y-89770071D01*
X125518857Y-88698642D01*
X125233142Y-89770071D01*
X124876000Y-88270071D01*
X123661714Y-89770071D02*
X123661714Y-88984357D01*
X123733142Y-88841500D01*
X123876000Y-88770071D01*
X124161714Y-88770071D01*
X124304571Y-88841500D01*
X123661714Y-89698642D02*
X123804571Y-89770071D01*
X124161714Y-89770071D01*
X124304571Y-89698642D01*
X124376000Y-89555785D01*
X124376000Y-89412928D01*
X124304571Y-89270071D01*
X124161714Y-89198642D01*
X123804571Y-89198642D01*
X123661714Y-89127214D01*
X123090285Y-88770071D02*
X122733142Y-89770071D01*
X122376000Y-88770071D01*
X121233142Y-89698642D02*
X121376000Y-89770071D01*
X121661714Y-89770071D01*
X121804571Y-89698642D01*
X121876000Y-89555785D01*
X121876000Y-88984357D01*
X121804571Y-88841500D01*
X121661714Y-88770071D01*
X121376000Y-88770071D01*
X121233142Y-88841500D01*
X121161714Y-88984357D01*
X121161714Y-89127214D01*
X121876000Y-89270071D01*
X119518857Y-89770071D02*
X118733142Y-88770071D01*
X119518857Y-88770071D02*
X118733142Y-89770071D01*
X118233142Y-88412928D02*
X118161714Y-88341500D01*
X118018857Y-88270071D01*
X117661714Y-88270071D01*
X117518857Y-88341500D01*
X117447428Y-88412928D01*
X117376000Y-88555785D01*
X117376000Y-88698642D01*
X117447428Y-88912928D01*
X118304571Y-89770071D01*
X117376000Y-89770071D01*
X116876000Y-88270071D02*
X115876000Y-88270071D01*
X116518857Y-89770071D01*
X114161714Y-89770071D02*
X114161714Y-88270071D01*
X113661714Y-89341500D01*
X113161714Y-88270071D01*
X113161714Y-89770071D01*
X112233142Y-89770071D02*
X112376000Y-89698642D01*
X112447428Y-89627214D01*
X112518857Y-89484357D01*
X112518857Y-89055785D01*
X112447428Y-88912928D01*
X112376000Y-88841500D01*
X112233142Y-88770071D01*
X112018857Y-88770071D01*
X111876000Y-88841500D01*
X111804571Y-88912928D01*
X111733142Y-89055785D01*
X111733142Y-89484357D01*
X111804571Y-89627214D01*
X111876000Y-89698642D01*
X112018857Y-89770071D01*
X112233142Y-89770071D01*
X110447428Y-89770071D02*
X110447428Y-88270071D01*
X110447428Y-89698642D02*
X110590285Y-89770071D01*
X110876000Y-89770071D01*
X111018857Y-89698642D01*
X111090285Y-89627214D01*
X111161714Y-89484357D01*
X111161714Y-89055785D01*
X111090285Y-88912928D01*
X111018857Y-88841500D01*
X110876000Y-88770071D01*
X110590285Y-88770071D01*
X110447428Y-88841500D01*
X109090285Y-88770071D02*
X109090285Y-89770071D01*
X109733142Y-88770071D02*
X109733142Y-89555785D01*
X109661714Y-89698642D01*
X109518857Y-89770071D01*
X109304571Y-89770071D01*
X109161714Y-89698642D01*
X109090285Y-89627214D01*
X108161714Y-89770071D02*
X108304571Y-89698642D01*
X108376000Y-89555785D01*
X108376000Y-88270071D01*
X107018857Y-89698642D02*
X107161714Y-89770071D01*
X107447428Y-89770071D01*
X107590285Y-89698642D01*
X107661714Y-89555785D01*
X107661714Y-88984357D01*
X107590285Y-88841500D01*
X107447428Y-88770071D01*
X107161714Y-88770071D01*
X107018857Y-88841500D01*
X106947428Y-88984357D01*
X106947428Y-89127214D01*
X107661714Y-89270071D01*
D11*
%TO.C,J2*%
X106251333Y-69092380D02*
X106251333Y-69806666D01*
X106298952Y-69949523D01*
X106394190Y-70044761D01*
X106537047Y-70092380D01*
X106632285Y-70092380D01*
X105822761Y-69187619D02*
X105775142Y-69140000D01*
X105679904Y-69092380D01*
X105441809Y-69092380D01*
X105346571Y-69140000D01*
X105298952Y-69187619D01*
X105251333Y-69282857D01*
X105251333Y-69378095D01*
X105298952Y-69520952D01*
X105870380Y-70092380D01*
X105251333Y-70092380D01*
%TO.C,J1*%
X117264380Y-55292666D02*
X117978666Y-55292666D01*
X118121523Y-55245047D01*
X118216761Y-55149809D01*
X118264380Y-55006952D01*
X118264380Y-54911714D01*
X118264380Y-56292666D02*
X118264380Y-55721238D01*
X118264380Y-56006952D02*
X117264380Y-56006952D01*
X117407238Y-55911714D01*
X117502476Y-55816476D01*
X117550095Y-55721238D01*
%TO.C,C1*%
X115321142Y-66105833D02*
X115368761Y-66058214D01*
X115416380Y-65915357D01*
X115416380Y-65820119D01*
X115368761Y-65677261D01*
X115273523Y-65582023D01*
X115178285Y-65534404D01*
X114987809Y-65486785D01*
X114844952Y-65486785D01*
X114654476Y-65534404D01*
X114559238Y-65582023D01*
X114464000Y-65677261D01*
X114416380Y-65820119D01*
X114416380Y-65915357D01*
X114464000Y-66058214D01*
X114511619Y-66105833D01*
X115416380Y-67058214D02*
X115416380Y-66486785D01*
X115416380Y-66772500D02*
X114416380Y-66772500D01*
X114559238Y-66677261D01*
X114654476Y-66582023D01*
X114702095Y-66486785D01*
%TO.C,R1*%
X115642380Y-62825333D02*
X115166190Y-62492000D01*
X115642380Y-62253904D02*
X114642380Y-62253904D01*
X114642380Y-62634857D01*
X114690000Y-62730095D01*
X114737619Y-62777714D01*
X114832857Y-62825333D01*
X114975714Y-62825333D01*
X115070952Y-62777714D01*
X115118571Y-62730095D01*
X115166190Y-62634857D01*
X115166190Y-62253904D01*
X115642380Y-63777714D02*
X115642380Y-63206285D01*
X115642380Y-63492000D02*
X114642380Y-63492000D01*
X114785238Y-63396761D01*
X114880476Y-63301523D01*
X114928095Y-63206285D01*
%TO.C,R2*%
X119198380Y-62809333D02*
X118722190Y-62476000D01*
X119198380Y-62237904D02*
X118198380Y-62237904D01*
X118198380Y-62618857D01*
X118246000Y-62714095D01*
X118293619Y-62761714D01*
X118388857Y-62809333D01*
X118531714Y-62809333D01*
X118626952Y-62761714D01*
X118674571Y-62714095D01*
X118722190Y-62618857D01*
X118722190Y-62237904D01*
X118293619Y-63190285D02*
X118246000Y-63237904D01*
X118198380Y-63333142D01*
X118198380Y-63571238D01*
X118246000Y-63666476D01*
X118293619Y-63714095D01*
X118388857Y-63761714D01*
X118484095Y-63761714D01*
X118626952Y-63714095D01*
X119198380Y-63142666D01*
X119198380Y-63761714D01*
%TO.C,R3*%
X128342380Y-62571333D02*
X127866190Y-62238000D01*
X128342380Y-61999904D02*
X127342380Y-61999904D01*
X127342380Y-62380857D01*
X127390000Y-62476095D01*
X127437619Y-62523714D01*
X127532857Y-62571333D01*
X127675714Y-62571333D01*
X127770952Y-62523714D01*
X127818571Y-62476095D01*
X127866190Y-62380857D01*
X127866190Y-61999904D01*
X127342380Y-62904666D02*
X127342380Y-63523714D01*
X127723333Y-63190380D01*
X127723333Y-63333238D01*
X127770952Y-63428476D01*
X127818571Y-63476095D01*
X127913809Y-63523714D01*
X128151904Y-63523714D01*
X128247142Y-63476095D01*
X128294761Y-63428476D01*
X128342380Y-63333238D01*
X128342380Y-63047523D01*
X128294761Y-62952285D01*
X128247142Y-62904666D01*
%TO.C,R4*%
X131898380Y-62571333D02*
X131422190Y-62238000D01*
X131898380Y-61999904D02*
X130898380Y-61999904D01*
X130898380Y-62380857D01*
X130946000Y-62476095D01*
X130993619Y-62523714D01*
X131088857Y-62571333D01*
X131231714Y-62571333D01*
X131326952Y-62523714D01*
X131374571Y-62476095D01*
X131422190Y-62380857D01*
X131422190Y-61999904D01*
X131231714Y-63428476D02*
X131898380Y-63428476D01*
X130850761Y-63190380D02*
X131565047Y-62952285D01*
X131565047Y-63571333D01*
%TO.C,R5*%
X135200380Y-62809333D02*
X134724190Y-62476000D01*
X135200380Y-62237904D02*
X134200380Y-62237904D01*
X134200380Y-62618857D01*
X134248000Y-62714095D01*
X134295619Y-62761714D01*
X134390857Y-62809333D01*
X134533714Y-62809333D01*
X134628952Y-62761714D01*
X134676571Y-62714095D01*
X134724190Y-62618857D01*
X134724190Y-62237904D01*
X134200380Y-63714095D02*
X134200380Y-63237904D01*
X134676571Y-63190285D01*
X134628952Y-63237904D01*
X134581333Y-63333142D01*
X134581333Y-63571238D01*
X134628952Y-63666476D01*
X134676571Y-63714095D01*
X134771809Y-63761714D01*
X135009904Y-63761714D01*
X135105142Y-63714095D01*
X135152761Y-63666476D01*
X135200380Y-63571238D01*
X135200380Y-63333142D01*
X135152761Y-63237904D01*
X135105142Y-63190285D01*
%TO.C,R6*%
X143328380Y-72985333D02*
X142852190Y-72652000D01*
X143328380Y-72413904D02*
X142328380Y-72413904D01*
X142328380Y-72794857D01*
X142376000Y-72890095D01*
X142423619Y-72937714D01*
X142518857Y-72985333D01*
X142661714Y-72985333D01*
X142756952Y-72937714D01*
X142804571Y-72890095D01*
X142852190Y-72794857D01*
X142852190Y-72413904D01*
X142328380Y-73842476D02*
X142328380Y-73652000D01*
X142376000Y-73556761D01*
X142423619Y-73509142D01*
X142566476Y-73413904D01*
X142756952Y-73366285D01*
X143137904Y-73366285D01*
X143233142Y-73413904D01*
X143280761Y-73461523D01*
X143328380Y-73556761D01*
X143328380Y-73747238D01*
X143280761Y-73842476D01*
X143233142Y-73890095D01*
X143137904Y-73937714D01*
X142899809Y-73937714D01*
X142804571Y-73890095D01*
X142756952Y-73842476D01*
X142709333Y-73747238D01*
X142709333Y-73556761D01*
X142756952Y-73461523D01*
X142804571Y-73413904D01*
X142899809Y-73366285D01*
%TO.C,R7*%
X107512380Y-76033333D02*
X107036190Y-75700000D01*
X107512380Y-75461904D02*
X106512380Y-75461904D01*
X106512380Y-75842857D01*
X106560000Y-75938095D01*
X106607619Y-75985714D01*
X106702857Y-76033333D01*
X106845714Y-76033333D01*
X106940952Y-75985714D01*
X106988571Y-75938095D01*
X107036190Y-75842857D01*
X107036190Y-75461904D01*
X106512380Y-76366666D02*
X106512380Y-77033333D01*
X107512380Y-76604761D01*
%TO.C,R8*%
X107512380Y-82653333D02*
X107036190Y-82320000D01*
X107512380Y-82081904D02*
X106512380Y-82081904D01*
X106512380Y-82462857D01*
X106560000Y-82558095D01*
X106607619Y-82605714D01*
X106702857Y-82653333D01*
X106845714Y-82653333D01*
X106940952Y-82605714D01*
X106988571Y-82558095D01*
X107036190Y-82462857D01*
X107036190Y-82081904D01*
X106940952Y-83224761D02*
X106893333Y-83129523D01*
X106845714Y-83081904D01*
X106750476Y-83034285D01*
X106702857Y-83034285D01*
X106607619Y-83081904D01*
X106560000Y-83129523D01*
X106512380Y-83224761D01*
X106512380Y-83415238D01*
X106560000Y-83510476D01*
X106607619Y-83558095D01*
X106702857Y-83605714D01*
X106750476Y-83605714D01*
X106845714Y-83558095D01*
X106893333Y-83510476D01*
X106940952Y-83415238D01*
X106940952Y-83224761D01*
X106988571Y-83129523D01*
X107036190Y-83081904D01*
X107131428Y-83034285D01*
X107321904Y-83034285D01*
X107417142Y-83081904D01*
X107464761Y-83129523D01*
X107512380Y-83224761D01*
X107512380Y-83415238D01*
X107464761Y-83510476D01*
X107417142Y-83558095D01*
X107321904Y-83605714D01*
X107131428Y-83605714D01*
X107036190Y-83558095D01*
X106988571Y-83510476D01*
X106940952Y-83415238D01*
%TO.C,R9*%
X112942666Y-94814380D02*
X113276000Y-94338190D01*
X113514095Y-94814380D02*
X113514095Y-93814380D01*
X113133142Y-93814380D01*
X113037904Y-93862000D01*
X112990285Y-93909619D01*
X112942666Y-94004857D01*
X112942666Y-94147714D01*
X112990285Y-94242952D01*
X113037904Y-94290571D01*
X113133142Y-94338190D01*
X113514095Y-94338190D01*
X112466476Y-94814380D02*
X112276000Y-94814380D01*
X112180761Y-94766761D01*
X112133142Y-94719142D01*
X112037904Y-94576285D01*
X111990285Y-94385809D01*
X111990285Y-94004857D01*
X112037904Y-93909619D01*
X112085523Y-93862000D01*
X112180761Y-93814380D01*
X112371238Y-93814380D01*
X112466476Y-93862000D01*
X112514095Y-93909619D01*
X112561714Y-94004857D01*
X112561714Y-94242952D01*
X112514095Y-94338190D01*
X112466476Y-94385809D01*
X112371238Y-94433428D01*
X112180761Y-94433428D01*
X112085523Y-94385809D01*
X112037904Y-94338190D01*
X111990285Y-94242952D01*
%TO.C,R10*%
X119784857Y-94814380D02*
X120118190Y-94338190D01*
X120356285Y-94814380D02*
X120356285Y-93814380D01*
X119975333Y-93814380D01*
X119880095Y-93862000D01*
X119832476Y-93909619D01*
X119784857Y-94004857D01*
X119784857Y-94147714D01*
X119832476Y-94242952D01*
X119880095Y-94290571D01*
X119975333Y-94338190D01*
X120356285Y-94338190D01*
X118832476Y-94814380D02*
X119403904Y-94814380D01*
X119118190Y-94814380D02*
X119118190Y-93814380D01*
X119213428Y-93957238D01*
X119308666Y-94052476D01*
X119403904Y-94100095D01*
X118213428Y-93814380D02*
X118118190Y-93814380D01*
X118022952Y-93862000D01*
X117975333Y-93909619D01*
X117927714Y-94004857D01*
X117880095Y-94195333D01*
X117880095Y-94433428D01*
X117927714Y-94623904D01*
X117975333Y-94719142D01*
X118022952Y-94766761D01*
X118118190Y-94814380D01*
X118213428Y-94814380D01*
X118308666Y-94766761D01*
X118356285Y-94719142D01*
X118403904Y-94623904D01*
X118451523Y-94433428D01*
X118451523Y-94195333D01*
X118403904Y-94004857D01*
X118356285Y-93909619D01*
X118308666Y-93862000D01*
X118213428Y-93814380D01*
%TO.C,U1*%
X125983904Y-82060380D02*
X125983904Y-82869904D01*
X125936285Y-82965142D01*
X125888666Y-83012761D01*
X125793428Y-83060380D01*
X125602952Y-83060380D01*
X125507714Y-83012761D01*
X125460095Y-82965142D01*
X125412476Y-82869904D01*
X125412476Y-82060380D01*
X124412476Y-83060380D02*
X124983904Y-83060380D01*
X124698190Y-83060380D02*
X124698190Y-82060380D01*
X124793428Y-82203238D01*
X124888666Y-82298476D01*
X124983904Y-82346095D01*
D12*
%TO.C,J2*%
X104588000Y-67310000D02*
X104588000Y-68640000D01*
X104588000Y-63440000D02*
X107248000Y-63440000D01*
X104588000Y-66040000D02*
X104588000Y-63440000D01*
X104588000Y-66040000D02*
X107248000Y-66040000D01*
X104588000Y-68640000D02*
X105918000Y-68640000D01*
X107248000Y-66040000D02*
X107248000Y-63440000D01*
%TO.C,J1*%
X121412000Y-56956000D02*
X131632000Y-56956000D01*
X118812000Y-54296000D02*
X118812000Y-55626000D01*
X121412000Y-54296000D02*
X131632000Y-54296000D01*
X131632000Y-54296000D02*
X131632000Y-56956000D01*
X121412000Y-54296000D02*
X121412000Y-56956000D01*
X120142000Y-54296000D02*
X118812000Y-54296000D01*
%TO.C,M1*%
X139950000Y-75000000D02*
G75*
G03*
X139950000Y-75000000I-1450000J0D01*
G01*
X112950000Y-75000000D02*
G75*
G03*
X112950000Y-75000000I-1450000J0D01*
G01*
%TO.C,C1*%
X112549000Y-66533752D02*
X112549000Y-66011248D01*
X114019000Y-66533752D02*
X114019000Y-66011248D01*
%TO.C,R1*%
X117575000Y-62764936D02*
X117575000Y-63219064D01*
X116105000Y-62764936D02*
X116105000Y-63219064D01*
%TO.C,R2*%
X119661000Y-62748936D02*
X119661000Y-63203064D01*
X121131000Y-62748936D02*
X121131000Y-63203064D01*
%TO.C,R3*%
X130275000Y-62510936D02*
X130275000Y-62965064D01*
X128805000Y-62510936D02*
X128805000Y-62965064D01*
%TO.C,R4*%
X133831000Y-62510936D02*
X133831000Y-62965064D01*
X132361000Y-62510936D02*
X132361000Y-62965064D01*
%TO.C,R5*%
X137133000Y-62748936D02*
X137133000Y-63203064D01*
X135663000Y-62748936D02*
X135663000Y-63203064D01*
%TO.C,R6*%
X145261000Y-72924936D02*
X145261000Y-73379064D01*
X143791000Y-72924936D02*
X143791000Y-73379064D01*
%TO.C,R7*%
X104675000Y-76427064D02*
X104675000Y-75972936D01*
X106145000Y-76427064D02*
X106145000Y-75972936D01*
%TO.C,R8*%
X104675000Y-83047064D02*
X104675000Y-82592936D01*
X106145000Y-83047064D02*
X106145000Y-82592936D01*
%TO.C,R9*%
X113003064Y-96747000D02*
X112548936Y-96747000D01*
X113003064Y-95277000D02*
X112548936Y-95277000D01*
%TO.C,R10*%
X119369064Y-95277000D02*
X118914936Y-95277000D01*
X119369064Y-96747000D02*
X118914936Y-96747000D01*
%TO.C,U1*%
X125222000Y-71648000D02*
X127172000Y-71648000D01*
X125222000Y-71648000D02*
X123272000Y-71648000D01*
X125222000Y-81768000D02*
X127172000Y-81768000D01*
X125222000Y-81768000D02*
X121772000Y-81768000D01*
%TD*%
M02*
