%TF.GenerationSoftware,KiCad,Pcbnew,6.0.11+dfsg-1*%
%TF.CreationDate,2023-12-17T01:10:28-05:00*%
%TF.ProjectId,x27_controller,7832375f-636f-46e7-9472-6f6c6c65722e,rev?*%
%TF.SameCoordinates,Original*%
%TF.FileFunction,Soldermask,Bot*%
%TF.FilePolarity,Negative*%
%FSLAX46Y46*%
G04 Gerber Fmt 4.6, Leading zero omitted, Abs format (unit mm)*
G04 Created by KiCad (PCBNEW 6.0.11+dfsg-1) date 2023-12-17 01:10:28*
%MOMM*%
%LPD*%
G01*
G04 APERTURE LIST*
G04 Aperture macros list*
%AMRoundRect*
0 Rectangle with rounded corners*
0 $1 Rounding radius*
0 $2 $3 $4 $5 $6 $7 $8 $9 X,Y pos of 4 corners*
0 Add a 4 corners polygon primitive as box body*
4,1,4,$2,$3,$4,$5,$6,$7,$8,$9,$2,$3,0*
0 Add four circle primitives for the rounded corners*
1,1,$1+$1,$2,$3*
1,1,$1+$1,$4,$5*
1,1,$1+$1,$6,$7*
1,1,$1+$1,$8,$9*
0 Add four rect primitives between the rounded corners*
20,1,$1+$1,$2,$3,$4,$5,0*
20,1,$1+$1,$4,$5,$6,$7,0*
20,1,$1+$1,$6,$7,$8,$9,0*
20,1,$1+$1,$8,$9,$2,$3,0*%
G04 Aperture macros list end*
%ADD10R,1.700000X1.700000*%
%ADD11O,1.700000X1.700000*%
%ADD12C,1.850000*%
%ADD13C,4.300000*%
%ADD14C,2.800000*%
%ADD15C,2.000000*%
%ADD16C,1.524000*%
%ADD17RoundRect,0.250000X0.475000X-0.337500X0.475000X0.337500X-0.475000X0.337500X-0.475000X-0.337500X0*%
%ADD18RoundRect,0.250000X-0.450000X0.350000X-0.450000X-0.350000X0.450000X-0.350000X0.450000X0.350000X0*%
%ADD19RoundRect,0.250000X0.450000X-0.350000X0.450000X0.350000X-0.450000X0.350000X-0.450000X-0.350000X0*%
%ADD20RoundRect,0.250000X0.350000X0.450000X-0.350000X0.450000X-0.350000X-0.450000X0.350000X-0.450000X0*%
%ADD21RoundRect,0.150000X-0.725000X-0.150000X0.725000X-0.150000X0.725000X0.150000X-0.725000X0.150000X0*%
G04 APERTURE END LIST*
D10*
%TO.C,J2*%
X105918000Y-67310000D03*
D11*
X105918000Y-64770000D03*
%TD*%
D10*
%TO.C,J1*%
X120142000Y-55626000D03*
D11*
X122682000Y-55626000D03*
X125222000Y-55626000D03*
X127762000Y-55626000D03*
X130302000Y-55626000D03*
%TD*%
D12*
%TO.C,M1*%
X138500000Y-75000000D03*
D13*
X125000000Y-65000000D03*
D14*
X134000000Y-84000000D03*
D15*
X111500000Y-75000000D03*
D16*
X136430000Y-71190000D03*
X136430000Y-78810000D03*
X113570000Y-78810000D03*
X113570000Y-71190000D03*
%TD*%
D13*
%TO.C,REF\u002A\u002A*%
X105000000Y-55000000D03*
%TD*%
%TO.C,REF\u002A\u002A*%
X145000000Y-55000000D03*
%TD*%
%TO.C,REF\u002A\u002A*%
X105000000Y-95000000D03*
%TD*%
%TO.C,REF\u002A\u002A*%
X145000000Y-95000000D03*
%TD*%
D17*
%TO.C,C1*%
X113284000Y-67310000D03*
X113284000Y-65235000D03*
%TD*%
D18*
%TO.C,R1*%
X116840000Y-61992000D03*
X116840000Y-63992000D03*
%TD*%
%TO.C,R2*%
X120396000Y-61976000D03*
X120396000Y-63976000D03*
%TD*%
%TO.C,R3*%
X129540000Y-61738000D03*
X129540000Y-63738000D03*
%TD*%
%TO.C,R4*%
X133096000Y-61738000D03*
X133096000Y-63738000D03*
%TD*%
%TO.C,R5*%
X136398000Y-61976000D03*
X136398000Y-63976000D03*
%TD*%
%TO.C,R6*%
X144526000Y-72152000D03*
X144526000Y-74152000D03*
%TD*%
D19*
%TO.C,R7*%
X105410000Y-77200000D03*
X105410000Y-75200000D03*
%TD*%
%TO.C,R8*%
X105410000Y-83820000D03*
X105410000Y-81820000D03*
%TD*%
D20*
%TO.C,R9*%
X113776000Y-96012000D03*
X111776000Y-96012000D03*
%TD*%
%TO.C,R10*%
X120142000Y-96012000D03*
X118142000Y-96012000D03*
%TD*%
D21*
%TO.C,U1*%
X122647000Y-81153000D03*
X122647000Y-79883000D03*
X122647000Y-78613000D03*
X122647000Y-77343000D03*
X122647000Y-76073000D03*
X122647000Y-74803000D03*
X122647000Y-73533000D03*
X122647000Y-72263000D03*
X127797000Y-72263000D03*
X127797000Y-73533000D03*
X127797000Y-74803000D03*
X127797000Y-76073000D03*
X127797000Y-77343000D03*
X127797000Y-78613000D03*
X127797000Y-79883000D03*
X127797000Y-81153000D03*
%TD*%
M02*
