M48
INCH,TZ
T1C0.0157
T2C0.0300
T3C0.0394
%
G90
G05
T1
X43300Y-30400
X43700Y-32900
X43884Y-25516
X45253Y-25153
X45450Y-35950
X46554Y-28185
X46703Y-25897
X47150Y-28950
X47150Y-29450
X47150Y-29950
X47400Y-25900
X48400Y-36700
X49300Y-31100
X50314Y-32686
X50400Y-26900
X51250Y-28450
X51650Y-25750
X52400Y-25900
X53700Y-25900
X53700Y-26900
X55500Y-28400
T2
X44713Y-28028
X44713Y-31028
X53713Y-28028
X53713Y-31028
T3
X41700Y-25500
X41700Y-26500
X47300Y-21900
X48300Y-21900
X49300Y-21900
X50300Y-21900
X51300Y-21900
T0
M30
