%TF.GenerationSoftware,KiCad,Pcbnew,6.0.11+dfsg-1*%
%TF.CreationDate,2023-12-17T01:10:27-05:00*%
%TF.ProjectId,x27_controller,7832375f-636f-46e7-9472-6f6c6c65722e,rev?*%
%TF.SameCoordinates,Original*%
%TF.FileFunction,Copper,L1,Top*%
%TF.FilePolarity,Positive*%
%FSLAX46Y46*%
G04 Gerber Fmt 4.6, Leading zero omitted, Abs format (unit mm)*
G04 Created by KiCad (PCBNEW 6.0.11+dfsg-1) date 2023-12-17 01:10:27*
%MOMM*%
%LPD*%
G01*
G04 APERTURE LIST*
%TA.AperFunction,ComponentPad*%
%ADD10R,1.700000X1.700000*%
%TD*%
%TA.AperFunction,ComponentPad*%
%ADD11O,1.700000X1.700000*%
%TD*%
%TA.AperFunction,ComponentPad*%
%ADD12C,1.524000*%
%TD*%
%TA.AperFunction,ViaPad*%
%ADD13C,0.800000*%
%TD*%
%TA.AperFunction,Conductor*%
%ADD14C,0.250000*%
%TD*%
G04 APERTURE END LIST*
D10*
%TO.P,J2,1,Pin_1*%
%TO.N,+5V*%
X105918000Y-67310000D03*
D11*
%TO.P,J2,2,Pin_2*%
%TO.N,Earth*%
X105918000Y-64770000D03*
%TD*%
D10*
%TO.P,J1,1,Pin_1*%
%TO.N,Net-(J1-Pad1)*%
X120142000Y-55626000D03*
D11*
%TO.P,J1,2,Pin_2*%
%TO.N,Net-(J1-Pad2)*%
X122682000Y-55626000D03*
%TO.P,J1,3,Pin_3*%
%TO.N,Net-(J1-Pad3)*%
X125222000Y-55626000D03*
%TO.P,J1,4,Pin_4*%
%TO.N,Net-(J1-Pad4)*%
X127762000Y-55626000D03*
%TO.P,J1,5,Pin_5*%
%TO.N,Net-(J1-Pad5)*%
X130302000Y-55626000D03*
%TD*%
D12*
%TO.P,M1,1*%
%TO.N,Net-(M1-Pad1)*%
X136430000Y-71190000D03*
%TO.P,M1,2*%
%TO.N,Net-(M1-Pad2)*%
X136430000Y-78810000D03*
%TO.P,M1,3*%
%TO.N,Net-(M1-Pad3)*%
X113570000Y-78810000D03*
%TO.P,M1,4*%
%TO.N,Net-(M1-Pad4)*%
X113570000Y-71190000D03*
%TD*%
D13*
%TO.N,Earth*%
X111466000Y-64810000D03*
X118247001Y-71591001D03*
%TO.N,+5V*%
X114943000Y-63889000D03*
X127797000Y-83023000D03*
%TO.N,Net-(J1-Pad5)*%
X136398000Y-68326000D03*
X136398000Y-65786000D03*
X128016000Y-68326000D03*
%TO.N,Net-(J1-Pad4)*%
X133096000Y-65786000D03*
%TO.N,Net-(J1-Pad3)*%
X131191000Y-65405000D03*
%TO.N,Net-(J1-Pad2)*%
X120396000Y-65786000D03*
%TO.N,Net-(J1-Pad1)*%
X118626000Y-65778000D03*
%TO.N,Net-(R6-Pad1)*%
X130175000Y-72263000D03*
X140970000Y-72136000D03*
%TO.N,Net-(R7-Pad1)*%
X119761000Y-73533000D03*
X109982000Y-77216000D03*
%TO.N,Net-(R8-Pad1)*%
X119761000Y-74803000D03*
X110998000Y-83566000D03*
%TO.N,Net-(R9-Pad1)*%
X115443000Y-91313000D03*
X119761000Y-76073000D03*
%TO.N,Net-(R10-Pad1)*%
X122936000Y-93218000D03*
X125222000Y-78994000D03*
%TD*%
D14*
%TO.N,Earth*%
X118247001Y-71591001D02*
X118247001Y-71591001D01*
X111466000Y-64810000D02*
X118247001Y-71591001D01*
%TO.N,+5V*%
X127797000Y-76743000D02*
X114943000Y-63889000D01*
X127797000Y-83023000D02*
X127797000Y-76743000D01*
%TO.N,Net-(J1-Pad5)*%
X128016000Y-68326000D02*
X128016000Y-68326000D01*
X130142000Y-59530000D02*
X136398000Y-65786000D01*
X136398000Y-68326000D02*
X128016000Y-68326000D01*
X130142000Y-55626000D02*
X130142000Y-59530000D01*
%TO.N,Net-(J1-Pad4)*%
X127642000Y-60332000D02*
X133096000Y-65786000D01*
X127642000Y-55626000D02*
X127642000Y-60332000D01*
%TO.N,Net-(J1-Pad3)*%
X125142000Y-59356000D02*
X131191000Y-65405000D01*
X125142000Y-55626000D02*
X125142000Y-59356000D01*
%TO.N,Net-(J1-Pad2)*%
X122642000Y-63540000D02*
X120396000Y-65786000D01*
X122642000Y-55626000D02*
X122642000Y-63540000D01*
%TO.N,Net-(J1-Pad1)*%
X120142000Y-64262000D02*
X118626000Y-65778000D01*
X120142000Y-55626000D02*
X120142000Y-64262000D01*
%TO.N,Net-(R6-Pad1)*%
X140970000Y-72136000D02*
X140970000Y-72136000D01*
X130175000Y-72263000D02*
X130574999Y-72662999D01*
X140443001Y-72662999D02*
X140970000Y-72136000D01*
X130574999Y-72662999D02*
X140443001Y-72662999D01*
%TO.N,Net-(R7-Pad1)*%
X109982000Y-77216000D02*
X109982000Y-77216000D01*
X110872999Y-76325001D02*
X109982000Y-77216000D01*
X116968999Y-76325001D02*
X110872999Y-76325001D01*
X119761000Y-73533000D02*
X116968999Y-76325001D01*
%TO.N,Net-(R8-Pad1)*%
X110998000Y-83566000D02*
X110998000Y-83566000D01*
X119761000Y-74803000D02*
X110998000Y-83566000D01*
%TO.N,Net-(R9-Pad1)*%
X115443000Y-91313000D02*
X115316000Y-91440000D01*
X119761000Y-76073000D02*
X119761000Y-86995000D01*
X119761000Y-86995000D02*
X115443000Y-91313000D01*
%TO.N,Net-(R10-Pad1)*%
X122936000Y-93218000D02*
X122936000Y-93218000D01*
X125222000Y-78994000D02*
X125222000Y-90932000D01*
X125222000Y-90932000D02*
X122936000Y-93218000D01*
%TD*%
M02*
