%TF.GenerationSoftware,KiCad,Pcbnew,6.0.11+dfsg-1*%
%TF.CreationDate,2023-12-17T00:58:25-05:00*%
%TF.ProjectId,base_controller,62617365-5f63-46f6-9e74-726f6c6c6572,rev?*%
%TF.SameCoordinates,Original*%
%TF.FileFunction,Legend,Bot*%
%TF.FilePolarity,Positive*%
%FSLAX46Y46*%
G04 Gerber Fmt 4.6, Leading zero omitted, Abs format (unit mm)*
G04 Created by KiCad (PCBNEW 6.0.11+dfsg-1) date 2023-12-17 00:58:25*
%MOMM*%
%LPD*%
G01*
G04 APERTURE LIST*
%ADD10C,0.150000*%
%ADD11C,0.120000*%
G04 APERTURE END LIST*
D10*
%TO.C,R9*%
X181522666Y-97098380D02*
X181856000Y-96622190D01*
X182094095Y-97098380D02*
X182094095Y-96098380D01*
X181713142Y-96098380D01*
X181617904Y-96146000D01*
X181570285Y-96193619D01*
X181522666Y-96288857D01*
X181522666Y-96431714D01*
X181570285Y-96526952D01*
X181617904Y-96574571D01*
X181713142Y-96622190D01*
X182094095Y-96622190D01*
X181046476Y-97098380D02*
X180856000Y-97098380D01*
X180760761Y-97050761D01*
X180713142Y-97003142D01*
X180617904Y-96860285D01*
X180570285Y-96669809D01*
X180570285Y-96288857D01*
X180617904Y-96193619D01*
X180665523Y-96146000D01*
X180760761Y-96098380D01*
X180951238Y-96098380D01*
X181046476Y-96146000D01*
X181094095Y-96193619D01*
X181141714Y-96288857D01*
X181141714Y-96526952D01*
X181094095Y-96622190D01*
X181046476Y-96669809D01*
X180951238Y-96717428D01*
X180760761Y-96717428D01*
X180665523Y-96669809D01*
X180617904Y-96622190D01*
X180570285Y-96526952D01*
%TO.C,C5*%
X158916666Y-123645142D02*
X158964285Y-123692761D01*
X159107142Y-123740380D01*
X159202380Y-123740380D01*
X159345238Y-123692761D01*
X159440476Y-123597523D01*
X159488095Y-123502285D01*
X159535714Y-123311809D01*
X159535714Y-123168952D01*
X159488095Y-122978476D01*
X159440476Y-122883238D01*
X159345238Y-122788000D01*
X159202380Y-122740380D01*
X159107142Y-122740380D01*
X158964285Y-122788000D01*
X158916666Y-122835619D01*
X158011904Y-122740380D02*
X158488095Y-122740380D01*
X158535714Y-123216571D01*
X158488095Y-123168952D01*
X158392857Y-123121333D01*
X158154761Y-123121333D01*
X158059523Y-123168952D01*
X158011904Y-123216571D01*
X157964285Y-123311809D01*
X157964285Y-123549904D01*
X158011904Y-123645142D01*
X158059523Y-123692761D01*
X158154761Y-123740380D01*
X158392857Y-123740380D01*
X158488095Y-123692761D01*
X158535714Y-123645142D01*
%TO.C,C6*%
X158916666Y-119835142D02*
X158964285Y-119882761D01*
X159107142Y-119930380D01*
X159202380Y-119930380D01*
X159345238Y-119882761D01*
X159440476Y-119787523D01*
X159488095Y-119692285D01*
X159535714Y-119501809D01*
X159535714Y-119358952D01*
X159488095Y-119168476D01*
X159440476Y-119073238D01*
X159345238Y-118978000D01*
X159202380Y-118930380D01*
X159107142Y-118930380D01*
X158964285Y-118978000D01*
X158916666Y-119025619D01*
X158059523Y-118930380D02*
X158250000Y-118930380D01*
X158345238Y-118978000D01*
X158392857Y-119025619D01*
X158488095Y-119168476D01*
X158535714Y-119358952D01*
X158535714Y-119739904D01*
X158488095Y-119835142D01*
X158440476Y-119882761D01*
X158345238Y-119930380D01*
X158154761Y-119930380D01*
X158059523Y-119882761D01*
X158011904Y-119835142D01*
X157964285Y-119739904D01*
X157964285Y-119501809D01*
X158011904Y-119406571D01*
X158059523Y-119358952D01*
X158154761Y-119311333D01*
X158345238Y-119311333D01*
X158440476Y-119358952D01*
X158488095Y-119406571D01*
X158535714Y-119501809D01*
%TO.C,R3*%
X161108380Y-116673333D02*
X160632190Y-116340000D01*
X161108380Y-116101904D02*
X160108380Y-116101904D01*
X160108380Y-116482857D01*
X160156000Y-116578095D01*
X160203619Y-116625714D01*
X160298857Y-116673333D01*
X160441714Y-116673333D01*
X160536952Y-116625714D01*
X160584571Y-116578095D01*
X160632190Y-116482857D01*
X160632190Y-116101904D01*
X160108380Y-117006666D02*
X160108380Y-117625714D01*
X160489333Y-117292380D01*
X160489333Y-117435238D01*
X160536952Y-117530476D01*
X160584571Y-117578095D01*
X160679809Y-117625714D01*
X160917904Y-117625714D01*
X161013142Y-117578095D01*
X161060761Y-117530476D01*
X161108380Y-117435238D01*
X161108380Y-117149523D01*
X161060761Y-117054285D01*
X161013142Y-117006666D01*
%TO.C,R4*%
X152472380Y-116673333D02*
X151996190Y-116340000D01*
X152472380Y-116101904D02*
X151472380Y-116101904D01*
X151472380Y-116482857D01*
X151520000Y-116578095D01*
X151567619Y-116625714D01*
X151662857Y-116673333D01*
X151805714Y-116673333D01*
X151900952Y-116625714D01*
X151948571Y-116578095D01*
X151996190Y-116482857D01*
X151996190Y-116101904D01*
X151805714Y-117530476D02*
X152472380Y-117530476D01*
X151424761Y-117292380D02*
X152139047Y-117054285D01*
X152139047Y-117673333D01*
%TO.C,R5*%
X157044380Y-116673333D02*
X156568190Y-116340000D01*
X157044380Y-116101904D02*
X156044380Y-116101904D01*
X156044380Y-116482857D01*
X156092000Y-116578095D01*
X156139619Y-116625714D01*
X156234857Y-116673333D01*
X156377714Y-116673333D01*
X156472952Y-116625714D01*
X156520571Y-116578095D01*
X156568190Y-116482857D01*
X156568190Y-116101904D01*
X156044380Y-117578095D02*
X156044380Y-117101904D01*
X156520571Y-117054285D01*
X156472952Y-117101904D01*
X156425333Y-117197142D01*
X156425333Y-117435238D01*
X156472952Y-117530476D01*
X156520571Y-117578095D01*
X156615809Y-117625714D01*
X156853904Y-117625714D01*
X156949142Y-117578095D01*
X156996761Y-117530476D01*
X157044380Y-117435238D01*
X157044380Y-117197142D01*
X156996761Y-117101904D01*
X156949142Y-117054285D01*
%TO.C,R6*%
X164410380Y-116673333D02*
X163934190Y-116340000D01*
X164410380Y-116101904D02*
X163410380Y-116101904D01*
X163410380Y-116482857D01*
X163458000Y-116578095D01*
X163505619Y-116625714D01*
X163600857Y-116673333D01*
X163743714Y-116673333D01*
X163838952Y-116625714D01*
X163886571Y-116578095D01*
X163934190Y-116482857D01*
X163934190Y-116101904D01*
X163410380Y-117530476D02*
X163410380Y-117340000D01*
X163458000Y-117244761D01*
X163505619Y-117197142D01*
X163648476Y-117101904D01*
X163838952Y-117054285D01*
X164219904Y-117054285D01*
X164315142Y-117101904D01*
X164362761Y-117149523D01*
X164410380Y-117244761D01*
X164410380Y-117435238D01*
X164362761Y-117530476D01*
X164315142Y-117578095D01*
X164219904Y-117625714D01*
X163981809Y-117625714D01*
X163886571Y-117578095D01*
X163838952Y-117530476D01*
X163791333Y-117435238D01*
X163791333Y-117244761D01*
X163838952Y-117149523D01*
X163886571Y-117101904D01*
X163981809Y-117054285D01*
%TO.C,R7*%
X167966380Y-116673333D02*
X167490190Y-116340000D01*
X167966380Y-116101904D02*
X166966380Y-116101904D01*
X166966380Y-116482857D01*
X167014000Y-116578095D01*
X167061619Y-116625714D01*
X167156857Y-116673333D01*
X167299714Y-116673333D01*
X167394952Y-116625714D01*
X167442571Y-116578095D01*
X167490190Y-116482857D01*
X167490190Y-116101904D01*
X166966380Y-117006666D02*
X166966380Y-117673333D01*
X167966380Y-117244761D01*
%TO.C,R8*%
X163234666Y-136978380D02*
X163568000Y-136502190D01*
X163806095Y-136978380D02*
X163806095Y-135978380D01*
X163425142Y-135978380D01*
X163329904Y-136026000D01*
X163282285Y-136073619D01*
X163234666Y-136168857D01*
X163234666Y-136311714D01*
X163282285Y-136406952D01*
X163329904Y-136454571D01*
X163425142Y-136502190D01*
X163806095Y-136502190D01*
X162663238Y-136406952D02*
X162758476Y-136359333D01*
X162806095Y-136311714D01*
X162853714Y-136216476D01*
X162853714Y-136168857D01*
X162806095Y-136073619D01*
X162758476Y-136026000D01*
X162663238Y-135978380D01*
X162472761Y-135978380D01*
X162377523Y-136026000D01*
X162329904Y-136073619D01*
X162282285Y-136168857D01*
X162282285Y-136216476D01*
X162329904Y-136311714D01*
X162377523Y-136359333D01*
X162472761Y-136406952D01*
X162663238Y-136406952D01*
X162758476Y-136454571D01*
X162806095Y-136502190D01*
X162853714Y-136597428D01*
X162853714Y-136787904D01*
X162806095Y-136883142D01*
X162758476Y-136930761D01*
X162663238Y-136978380D01*
X162472761Y-136978380D01*
X162377523Y-136930761D01*
X162329904Y-136883142D01*
X162282285Y-136787904D01*
X162282285Y-136597428D01*
X162329904Y-136502190D01*
X162377523Y-136454571D01*
X162472761Y-136406952D01*
%TO.C,R10*%
X163710857Y-93544380D02*
X164044190Y-93068190D01*
X164282285Y-93544380D02*
X164282285Y-92544380D01*
X163901333Y-92544380D01*
X163806095Y-92592000D01*
X163758476Y-92639619D01*
X163710857Y-92734857D01*
X163710857Y-92877714D01*
X163758476Y-92972952D01*
X163806095Y-93020571D01*
X163901333Y-93068190D01*
X164282285Y-93068190D01*
X162758476Y-93544380D02*
X163329904Y-93544380D01*
X163044190Y-93544380D02*
X163044190Y-92544380D01*
X163139428Y-92687238D01*
X163234666Y-92782476D01*
X163329904Y-92830095D01*
X162139428Y-92544380D02*
X162044190Y-92544380D01*
X161948952Y-92592000D01*
X161901333Y-92639619D01*
X161853714Y-92734857D01*
X161806095Y-92925333D01*
X161806095Y-93163428D01*
X161853714Y-93353904D01*
X161901333Y-93449142D01*
X161948952Y-93496761D01*
X162044190Y-93544380D01*
X162139428Y-93544380D01*
X162234666Y-93496761D01*
X162282285Y-93449142D01*
X162329904Y-93353904D01*
X162377523Y-93163428D01*
X162377523Y-92925333D01*
X162329904Y-92734857D01*
X162282285Y-92639619D01*
X162234666Y-92592000D01*
X162139428Y-92544380D01*
%TO.C,R11*%
X165234857Y-81098380D02*
X165568190Y-80622190D01*
X165806285Y-81098380D02*
X165806285Y-80098380D01*
X165425333Y-80098380D01*
X165330095Y-80146000D01*
X165282476Y-80193619D01*
X165234857Y-80288857D01*
X165234857Y-80431714D01*
X165282476Y-80526952D01*
X165330095Y-80574571D01*
X165425333Y-80622190D01*
X165806285Y-80622190D01*
X164282476Y-81098380D02*
X164853904Y-81098380D01*
X164568190Y-81098380D02*
X164568190Y-80098380D01*
X164663428Y-80241238D01*
X164758666Y-80336476D01*
X164853904Y-80384095D01*
X163330095Y-81098380D02*
X163901523Y-81098380D01*
X163615809Y-81098380D02*
X163615809Y-80098380D01*
X163711047Y-80241238D01*
X163806285Y-80336476D01*
X163901523Y-80384095D01*
%TO.C,U2*%
X163575904Y-133308380D02*
X163575904Y-134117904D01*
X163528285Y-134213142D01*
X163480666Y-134260761D01*
X163385428Y-134308380D01*
X163194952Y-134308380D01*
X163099714Y-134260761D01*
X163052095Y-134213142D01*
X163004476Y-134117904D01*
X163004476Y-133308380D01*
X162575904Y-133403619D02*
X162528285Y-133356000D01*
X162433047Y-133308380D01*
X162194952Y-133308380D01*
X162099714Y-133356000D01*
X162052095Y-133403619D01*
X162004476Y-133498857D01*
X162004476Y-133594095D01*
X162052095Y-133736952D01*
X162623523Y-134308380D01*
X162004476Y-134308380D01*
D11*
%TO.C,R9*%
X181128936Y-94261000D02*
X181583064Y-94261000D01*
X181128936Y-95731000D02*
X181583064Y-95731000D01*
%TO.C,C5*%
X159011252Y-124233000D02*
X158488748Y-124233000D01*
X159011252Y-125703000D02*
X158488748Y-125703000D01*
%TO.C,C6*%
X159011252Y-121893000D02*
X158488748Y-121893000D01*
X159011252Y-120423000D02*
X158488748Y-120423000D01*
%TO.C,R3*%
X161571000Y-116612936D02*
X161571000Y-117067064D01*
X163041000Y-116612936D02*
X163041000Y-117067064D01*
%TO.C,R4*%
X152935000Y-116612936D02*
X152935000Y-117067064D01*
X154405000Y-116612936D02*
X154405000Y-117067064D01*
%TO.C,R5*%
X157507000Y-116612936D02*
X157507000Y-117067064D01*
X158977000Y-116612936D02*
X158977000Y-117067064D01*
%TO.C,R6*%
X166343000Y-116612936D02*
X166343000Y-117067064D01*
X164873000Y-116612936D02*
X164873000Y-117067064D01*
%TO.C,R7*%
X168429000Y-116612936D02*
X168429000Y-117067064D01*
X169899000Y-116612936D02*
X169899000Y-117067064D01*
%TO.C,R8*%
X163295064Y-137441000D02*
X162840936Y-137441000D01*
X163295064Y-138911000D02*
X162840936Y-138911000D01*
%TO.C,R10*%
X163295064Y-95477000D02*
X162840936Y-95477000D01*
X163295064Y-94007000D02*
X162840936Y-94007000D01*
%TO.C,R11*%
X164819064Y-81561000D02*
X164364936Y-81561000D01*
X164819064Y-83031000D02*
X164364936Y-83031000D01*
%TO.C,U2*%
X164924000Y-128446000D02*
X164924000Y-128921000D01*
X164449000Y-132666000D02*
X164924000Y-132666000D01*
X164449000Y-128446000D02*
X164924000Y-128446000D01*
X161179000Y-128446000D02*
X160704000Y-128446000D01*
X164924000Y-132666000D02*
X164924000Y-132191000D01*
X160704000Y-128446000D02*
X160704000Y-128921000D01*
X161179000Y-132666000D02*
X160704000Y-132666000D01*
%TD*%
M02*
