%TF.GenerationSoftware,KiCad,Pcbnew,6.0.11+dfsg-1*%
%TF.CreationDate,2023-12-17T00:58:21-05:00*%
%TF.ProjectId,base_controller,62617365-5f63-46f6-9e74-726f6c6c6572,rev?*%
%TF.SameCoordinates,Original*%
%TF.FileFunction,Drillmap*%
%TF.FilePolarity,Positive*%
%FSLAX45Y45*%
G04 Gerber Fmt 4.5, Leading zero omitted, Abs format (unit mm)*
G04 Created by KiCad (PCBNEW 6.0.11+dfsg-1) date 2023-12-17 00:58:21*
%MOMM*%
%LPD*%
G01*
G04 APERTURE LIST*
%ADD10C,0.150000*%
%ADD11C,0.200000*%
%ADD12C,0.040000*%
%ADD13C,0.050000*%
%ADD14C,0.055000*%
%ADD15C,0.095000*%
%ADD16C,0.100000*%
G04 APERTURE END LIST*
D10*
X10000000Y-14500000D02*
X10000000Y-6000000D01*
X13500000Y-11000000D02*
X14000000Y-11000000D01*
X10500000Y-5500000D02*
G75*
G03*
X10000000Y-6000000I0J-500000D01*
G01*
X10500000Y-15000000D02*
X19000000Y-15000000D01*
X13500000Y-10600000D02*
G75*
G03*
X13500000Y-11000000I0J-200000D01*
G01*
X14500000Y-11500000D02*
G75*
G03*
X14000000Y-11000000I-500000J0D01*
G01*
X14900000Y-11000000D02*
G75*
G03*
X14500000Y-10600000I-400000J0D01*
G01*
X12500000Y-11000000D02*
G75*
G03*
X12500000Y-10600000I0J200000D01*
G01*
X10500000Y-5500000D02*
X19000000Y-5500000D01*
X19500000Y-6000000D02*
X19500000Y-14500000D01*
X19500000Y-6000000D02*
G75*
G03*
X19000000Y-5500000I-500000J0D01*
G01*
X14500000Y-14300000D02*
G75*
G03*
X14900000Y-14300000I200000J0D01*
G01*
X10700000Y-10600000D02*
X12500000Y-10600000D01*
X10700000Y-10600000D02*
G75*
G03*
X10700000Y-11000000I0J-200000D01*
G01*
X10000000Y-14500000D02*
G75*
G03*
X10500000Y-15000000I500000J0D01*
G01*
X10700000Y-11000000D02*
X12500000Y-11000000D01*
X13500000Y-10600000D02*
X14500000Y-10600000D01*
X14900000Y-11000000D02*
X14900000Y-14300000D01*
X14500000Y-11500000D02*
X14500000Y-14300000D01*
X19000000Y-15000000D02*
G75*
G03*
X19500000Y-14500000I0J500000D01*
G01*
D11*
D12*
X12857800Y-6812600D02*
X12897800Y-6852600D01*
X12897800Y-6812600D02*
X12857800Y-6852600D01*
X13442000Y-7269800D02*
X13482000Y-7309800D01*
X13482000Y-7269800D02*
X13442000Y-7309800D01*
X14077000Y-9962200D02*
X14117000Y-10002200D01*
X14117000Y-9962200D02*
X14077000Y-10002200D01*
X14152650Y-7295750D02*
X14192650Y-7335750D01*
X14192650Y-7295750D02*
X14152650Y-7335750D01*
X15423200Y-13111800D02*
X15463200Y-13151800D01*
X15463200Y-13111800D02*
X15423200Y-13151800D01*
X15523400Y-14230800D02*
X15563400Y-14270800D01*
X15563400Y-14230800D02*
X15523400Y-14270800D01*
X15550200Y-12018000D02*
X15590200Y-12058000D01*
X15590200Y-12018000D02*
X15550200Y-12058000D01*
X15609400Y-14144800D02*
X15649400Y-14184800D01*
X15649400Y-14144800D02*
X15609400Y-14184800D01*
X15711900Y-14143900D02*
X15751900Y-14183900D01*
X15751900Y-14143900D02*
X15711900Y-14183900D01*
X15728000Y-12883200D02*
X15768000Y-12923200D01*
X15768000Y-12883200D02*
X15728000Y-12923200D01*
X15829600Y-13391200D02*
X15869600Y-13431200D01*
X15869600Y-13391200D02*
X15829600Y-13431200D01*
X15994700Y-8196900D02*
X16034700Y-8236900D01*
X16034700Y-8196900D02*
X15994700Y-8236900D01*
X16032800Y-11918000D02*
X16072800Y-11958000D01*
X16072800Y-11918000D02*
X16032800Y-11958000D01*
X16186400Y-12655800D02*
X16226400Y-12695800D01*
X16226400Y-12655800D02*
X16186400Y-12695800D01*
X16186800Y-9252600D02*
X16226800Y-9292600D01*
X16226800Y-9252600D02*
X16186800Y-9292600D01*
X16464600Y-13492800D02*
X16504600Y-13532800D01*
X16504600Y-13492800D02*
X16464600Y-13532800D01*
X16744000Y-13797600D02*
X16784000Y-13837600D01*
X16784000Y-13797600D02*
X16744000Y-13837600D01*
X17061500Y-7434900D02*
X17101500Y-7474900D01*
X17101500Y-7434900D02*
X17061500Y-7474900D01*
X17302800Y-7523800D02*
X17342800Y-7563800D01*
X17342800Y-7523800D02*
X17302800Y-7563800D01*
D13*
X15348400Y-14865250D02*
G75*
G03*
X15348400Y-14865250I-25000J0D01*
G01*
D11*
X15298400Y-14832750D02*
X15298400Y-14897750D01*
X15348400Y-14832750D02*
X15348400Y-14897750D01*
X15298400Y-14897750D02*
G75*
G03*
X15348400Y-14897750I25000J0D01*
G01*
X15348400Y-14832750D02*
G75*
G03*
X15298400Y-14832750I-25000J0D01*
G01*
D13*
X16048400Y-14865250D02*
G75*
G03*
X16048400Y-14865250I-25000J0D01*
G01*
D11*
X15998400Y-14832750D02*
X15998400Y-14897750D01*
X16048400Y-14832750D02*
X16048400Y-14897750D01*
X15998400Y-14897750D02*
G75*
G03*
X16048400Y-14897750I25000J0D01*
G01*
X16048400Y-14832750D02*
G75*
G03*
X15998400Y-14832750I-25000J0D01*
G01*
D14*
X15423400Y-14567750D02*
X15423400Y-14622750D01*
X15395900Y-14595250D02*
X15450900Y-14595250D01*
D11*
X15408400Y-14622750D02*
X15438400Y-14622750D01*
X15408400Y-14567750D02*
X15438400Y-14567750D01*
X15438400Y-14622750D02*
G75*
G03*
X15438400Y-14567750I0J27500D01*
G01*
X15408400Y-14567750D02*
G75*
G03*
X15408400Y-14622750I0J-27500D01*
G01*
D14*
X15923400Y-14567750D02*
X15923400Y-14622750D01*
X15895900Y-14595250D02*
X15950900Y-14595250D01*
D11*
X15908400Y-14622750D02*
X15938400Y-14622750D01*
X15908400Y-14567750D02*
X15938400Y-14567750D01*
X15938400Y-14622750D02*
G75*
G03*
X15938400Y-14567750I0J27500D01*
G01*
X15908400Y-14567750D02*
G75*
G03*
X15908400Y-14622750I0J-27500D01*
G01*
D15*
X18931188Y-7399588D02*
X18931188Y-7332412D01*
X18864012Y-7332412D01*
X18864012Y-7399588D01*
X18931188Y-7399588D01*
X18931188Y-7649588D02*
X18931188Y-7582412D01*
X18864012Y-7582412D01*
X18864012Y-7649588D01*
X18931188Y-7649588D01*
X18931188Y-7899588D02*
X18931188Y-7832412D01*
X18864012Y-7832412D01*
X18864012Y-7899588D01*
X18931188Y-7899588D01*
X18931188Y-8149588D02*
X18931188Y-8082412D01*
X18864012Y-8082412D01*
X18864012Y-8149588D01*
X18931188Y-8149588D01*
X18931188Y-8399588D02*
X18931188Y-8332412D01*
X18864012Y-8332412D01*
X18864012Y-8399588D01*
X18931188Y-8399588D01*
X18931188Y-9523788D02*
X18931188Y-9456612D01*
X18864012Y-9456612D01*
X18864012Y-9523788D01*
X18931188Y-9523788D01*
X18931188Y-9773788D02*
X18931188Y-9706612D01*
X18864012Y-9706612D01*
X18864012Y-9773788D01*
X18931188Y-9773788D01*
X18931188Y-10023788D02*
X18931188Y-9956612D01*
X18864012Y-9956612D01*
X18864012Y-10023788D01*
X18931188Y-10023788D01*
X18931188Y-10273788D02*
X18931188Y-10206612D01*
X18864012Y-10206612D01*
X18864012Y-10273788D01*
X18931188Y-10273788D01*
X18931188Y-10523788D02*
X18931188Y-10456612D01*
X18864012Y-10456612D01*
X18864012Y-10523788D01*
X18931188Y-10523788D01*
D16*
X10388600Y-11835600D02*
X10438600Y-11785600D01*
X10388600Y-11735600D01*
X10338600Y-11785600D01*
X10388600Y-11835600D01*
X10414000Y-13308800D02*
X10464000Y-13258800D01*
X10414000Y-13208800D01*
X10364000Y-13258800D01*
X10414000Y-13308800D01*
X10642600Y-11835600D02*
X10692600Y-11785600D01*
X10642600Y-11735600D01*
X10592600Y-11785600D01*
X10642600Y-11835600D01*
X10668000Y-13308800D02*
X10718000Y-13258800D01*
X10668000Y-13208800D01*
X10618000Y-13258800D01*
X10668000Y-13308800D01*
X11410600Y-5852000D02*
X11460600Y-5802000D01*
X11410600Y-5752000D01*
X11360600Y-5802000D01*
X11410600Y-5852000D01*
X11410600Y-6317000D02*
X11460600Y-6267000D01*
X11410600Y-6217000D01*
X11360600Y-6267000D01*
X11410600Y-6317000D01*
X11410600Y-6782000D02*
X11460600Y-6732000D01*
X11410600Y-6682000D01*
X11360600Y-6732000D01*
X11410600Y-6782000D01*
X11410600Y-7247000D02*
X11460600Y-7197000D01*
X11410600Y-7147000D01*
X11360600Y-7197000D01*
X11410600Y-7247000D01*
X11410600Y-8305000D02*
X11460600Y-8255000D01*
X11410600Y-8205000D01*
X11360600Y-8255000D01*
X11410600Y-8305000D01*
X11410600Y-8764400D02*
X11460600Y-8714400D01*
X11410600Y-8664400D01*
X11360600Y-8714400D01*
X11410600Y-8764400D01*
X11410600Y-9223800D02*
X11460600Y-9173800D01*
X11410600Y-9123800D01*
X11360600Y-9173800D01*
X11410600Y-9223800D01*
X11410600Y-9683200D02*
X11460600Y-9633200D01*
X11410600Y-9583200D01*
X11360600Y-9633200D01*
X11410600Y-9683200D01*
X11410600Y-10142600D02*
X11460600Y-10092600D01*
X11410600Y-10042600D01*
X11360600Y-10092600D01*
X11410600Y-10142600D01*
X11664600Y-5852000D02*
X11714600Y-5802000D01*
X11664600Y-5752000D01*
X11614600Y-5802000D01*
X11664600Y-5852000D01*
X11664600Y-6317000D02*
X11714600Y-6267000D01*
X11664600Y-6217000D01*
X11614600Y-6267000D01*
X11664600Y-6317000D01*
X11664600Y-6782000D02*
X11714600Y-6732000D01*
X11664600Y-6682000D01*
X11614600Y-6732000D01*
X11664600Y-6782000D01*
X11664600Y-7247000D02*
X11714600Y-7197000D01*
X11664600Y-7147000D01*
X11614600Y-7197000D01*
X11664600Y-7247000D01*
X11664600Y-8305000D02*
X11714600Y-8255000D01*
X11664600Y-8205000D01*
X11614600Y-8255000D01*
X11664600Y-8305000D01*
X11664600Y-8764400D02*
X11714600Y-8714400D01*
X11664600Y-8664400D01*
X11614600Y-8714400D01*
X11664600Y-8764400D01*
X11664600Y-9223800D02*
X11714600Y-9173800D01*
X11664600Y-9123800D01*
X11614600Y-9173800D01*
X11664600Y-9223800D01*
X11664600Y-9683200D02*
X11714600Y-9633200D01*
X11664600Y-9583200D01*
X11614600Y-9633200D01*
X11664600Y-9683200D01*
X11664600Y-10142600D02*
X11714600Y-10092600D01*
X11664600Y-10042600D01*
X11614600Y-10092600D01*
X11664600Y-10142600D01*
X11918600Y-5852000D02*
X11968600Y-5802000D01*
X11918600Y-5752000D01*
X11868600Y-5802000D01*
X11918600Y-5852000D01*
X11918600Y-6317000D02*
X11968600Y-6267000D01*
X11918600Y-6217000D01*
X11868600Y-6267000D01*
X11918600Y-6317000D01*
X11918600Y-6782000D02*
X11968600Y-6732000D01*
X11918600Y-6682000D01*
X11868600Y-6732000D01*
X11918600Y-6782000D01*
X11918600Y-7247000D02*
X11968600Y-7197000D01*
X11918600Y-7147000D01*
X11868600Y-7197000D01*
X11918600Y-7247000D01*
X11918600Y-8305000D02*
X11968600Y-8255000D01*
X11918600Y-8205000D01*
X11868600Y-8255000D01*
X11918600Y-8305000D01*
X11918600Y-8764400D02*
X11968600Y-8714400D01*
X11918600Y-8664400D01*
X11868600Y-8714400D01*
X11918600Y-8764400D01*
X11918600Y-9223800D02*
X11968600Y-9173800D01*
X11918600Y-9123800D01*
X11868600Y-9173800D01*
X11918600Y-9223800D01*
X11918600Y-9683200D02*
X11968600Y-9633200D01*
X11918600Y-9583200D01*
X11868600Y-9633200D01*
X11918600Y-9683200D01*
X11918600Y-10142600D02*
X11968600Y-10092600D01*
X11918600Y-10042600D01*
X11868600Y-10092600D01*
X11918600Y-10142600D01*
X13255000Y-13258000D02*
X13305000Y-13208000D01*
X13255000Y-13158000D01*
X13205000Y-13208000D01*
X13255000Y-13258000D01*
X13435000Y-11823750D02*
X13485000Y-11773750D01*
X13435000Y-11723750D01*
X13385000Y-11773750D01*
X13435000Y-11823750D01*
X13509000Y-13258000D02*
X13559000Y-13208000D01*
X13509000Y-13158000D01*
X13459000Y-13208000D01*
X13509000Y-13258000D01*
X13689000Y-11823750D02*
X13739000Y-11773750D01*
X13689000Y-11723750D01*
X13639000Y-11773750D01*
X13689000Y-11823750D01*
D11*
X10250119Y-15317976D02*
X10250119Y-15117976D01*
X10297738Y-15117976D01*
X10326310Y-15127500D01*
X10345357Y-15146548D01*
X10354881Y-15165595D01*
X10364405Y-15203690D01*
X10364405Y-15232262D01*
X10354881Y-15270357D01*
X10345357Y-15289405D01*
X10326310Y-15308452D01*
X10297738Y-15317976D01*
X10250119Y-15317976D01*
X10450119Y-15317976D02*
X10450119Y-15184643D01*
X10450119Y-15222738D02*
X10459643Y-15203690D01*
X10469167Y-15194167D01*
X10488214Y-15184643D01*
X10507262Y-15184643D01*
X10573929Y-15317976D02*
X10573929Y-15184643D01*
X10573929Y-15117976D02*
X10564405Y-15127500D01*
X10573929Y-15137024D01*
X10583452Y-15127500D01*
X10573929Y-15117976D01*
X10573929Y-15137024D01*
X10697738Y-15317976D02*
X10678690Y-15308452D01*
X10669167Y-15289405D01*
X10669167Y-15117976D01*
X10802500Y-15317976D02*
X10783452Y-15308452D01*
X10773929Y-15289405D01*
X10773929Y-15117976D01*
X11031071Y-15317976D02*
X11031071Y-15117976D01*
X11097738Y-15260833D01*
X11164405Y-15117976D01*
X11164405Y-15317976D01*
X11345357Y-15317976D02*
X11345357Y-15213214D01*
X11335833Y-15194167D01*
X11316786Y-15184643D01*
X11278690Y-15184643D01*
X11259643Y-15194167D01*
X11345357Y-15308452D02*
X11326309Y-15317976D01*
X11278690Y-15317976D01*
X11259643Y-15308452D01*
X11250119Y-15289405D01*
X11250119Y-15270357D01*
X11259643Y-15251309D01*
X11278690Y-15241786D01*
X11326309Y-15241786D01*
X11345357Y-15232262D01*
X11440595Y-15184643D02*
X11440595Y-15384643D01*
X11440595Y-15194167D02*
X11459643Y-15184643D01*
X11497738Y-15184643D01*
X11516786Y-15194167D01*
X11526309Y-15203690D01*
X11535833Y-15222738D01*
X11535833Y-15279881D01*
X11526309Y-15298928D01*
X11516786Y-15308452D01*
X11497738Y-15317976D01*
X11459643Y-15317976D01*
X11440595Y-15308452D01*
X11621548Y-15298928D02*
X11631071Y-15308452D01*
X11621548Y-15317976D01*
X11612024Y-15308452D01*
X11621548Y-15298928D01*
X11621548Y-15317976D01*
X11621548Y-15194167D02*
X11631071Y-15203690D01*
X11621548Y-15213214D01*
X11612024Y-15203690D01*
X11621548Y-15194167D01*
X11621548Y-15213214D01*
D12*
X9952500Y-15627500D02*
X9992500Y-15667500D01*
X9992500Y-15627500D02*
X9952500Y-15667500D01*
D11*
X10288214Y-15537976D02*
X10307262Y-15537976D01*
X10326310Y-15547500D01*
X10335833Y-15557024D01*
X10345357Y-15576071D01*
X10354881Y-15614167D01*
X10354881Y-15661786D01*
X10345357Y-15699881D01*
X10335833Y-15718928D01*
X10326310Y-15728452D01*
X10307262Y-15737976D01*
X10288214Y-15737976D01*
X10269167Y-15728452D01*
X10259643Y-15718928D01*
X10250119Y-15699881D01*
X10240595Y-15661786D01*
X10240595Y-15614167D01*
X10250119Y-15576071D01*
X10259643Y-15557024D01*
X10269167Y-15547500D01*
X10288214Y-15537976D01*
X10440595Y-15718928D02*
X10450119Y-15728452D01*
X10440595Y-15737976D01*
X10431071Y-15728452D01*
X10440595Y-15718928D01*
X10440595Y-15737976D01*
X10621548Y-15604643D02*
X10621548Y-15737976D01*
X10573929Y-15528452D02*
X10526310Y-15671309D01*
X10650119Y-15671309D01*
X10764405Y-15537976D02*
X10783452Y-15537976D01*
X10802500Y-15547500D01*
X10812024Y-15557024D01*
X10821548Y-15576071D01*
X10831071Y-15614167D01*
X10831071Y-15661786D01*
X10821548Y-15699881D01*
X10812024Y-15718928D01*
X10802500Y-15728452D01*
X10783452Y-15737976D01*
X10764405Y-15737976D01*
X10745357Y-15728452D01*
X10735833Y-15718928D01*
X10726310Y-15699881D01*
X10716786Y-15661786D01*
X10716786Y-15614167D01*
X10726310Y-15576071D01*
X10735833Y-15557024D01*
X10745357Y-15547500D01*
X10764405Y-15537976D01*
X10954881Y-15537976D02*
X10973929Y-15537976D01*
X10992976Y-15547500D01*
X11002500Y-15557024D01*
X11012024Y-15576071D01*
X11021548Y-15614167D01*
X11021548Y-15661786D01*
X11012024Y-15699881D01*
X11002500Y-15718928D01*
X10992976Y-15728452D01*
X10973929Y-15737976D01*
X10954881Y-15737976D01*
X10935833Y-15728452D01*
X10926310Y-15718928D01*
X10916786Y-15699881D01*
X10907262Y-15661786D01*
X10907262Y-15614167D01*
X10916786Y-15576071D01*
X10926310Y-15557024D01*
X10935833Y-15547500D01*
X10954881Y-15537976D01*
X11107262Y-15737976D02*
X11107262Y-15604643D01*
X11107262Y-15623690D02*
X11116786Y-15614167D01*
X11135833Y-15604643D01*
X11164405Y-15604643D01*
X11183452Y-15614167D01*
X11192976Y-15633214D01*
X11192976Y-15737976D01*
X11192976Y-15633214D02*
X11202500Y-15614167D01*
X11221548Y-15604643D01*
X11250119Y-15604643D01*
X11269167Y-15614167D01*
X11278690Y-15633214D01*
X11278690Y-15737976D01*
X11373928Y-15737976D02*
X11373928Y-15604643D01*
X11373928Y-15623690D02*
X11383452Y-15614167D01*
X11402500Y-15604643D01*
X11431071Y-15604643D01*
X11450119Y-15614167D01*
X11459643Y-15633214D01*
X11459643Y-15737976D01*
X11459643Y-15633214D02*
X11469167Y-15614167D01*
X11488214Y-15604643D01*
X11516786Y-15604643D01*
X11535833Y-15614167D01*
X11545357Y-15633214D01*
X11545357Y-15737976D01*
X11935833Y-15528452D02*
X11764405Y-15785595D01*
X12192976Y-15537976D02*
X12212024Y-15537976D01*
X12231071Y-15547500D01*
X12240595Y-15557024D01*
X12250119Y-15576071D01*
X12259643Y-15614167D01*
X12259643Y-15661786D01*
X12250119Y-15699881D01*
X12240595Y-15718928D01*
X12231071Y-15728452D01*
X12212024Y-15737976D01*
X12192976Y-15737976D01*
X12173928Y-15728452D01*
X12164405Y-15718928D01*
X12154881Y-15699881D01*
X12145357Y-15661786D01*
X12145357Y-15614167D01*
X12154881Y-15576071D01*
X12164405Y-15557024D01*
X12173928Y-15547500D01*
X12192976Y-15537976D01*
X12345357Y-15718928D02*
X12354881Y-15728452D01*
X12345357Y-15737976D01*
X12335833Y-15728452D01*
X12345357Y-15718928D01*
X12345357Y-15737976D01*
X12478690Y-15537976D02*
X12497738Y-15537976D01*
X12516786Y-15547500D01*
X12526309Y-15557024D01*
X12535833Y-15576071D01*
X12545357Y-15614167D01*
X12545357Y-15661786D01*
X12535833Y-15699881D01*
X12526309Y-15718928D01*
X12516786Y-15728452D01*
X12497738Y-15737976D01*
X12478690Y-15737976D01*
X12459643Y-15728452D01*
X12450119Y-15718928D01*
X12440595Y-15699881D01*
X12431071Y-15661786D01*
X12431071Y-15614167D01*
X12440595Y-15576071D01*
X12450119Y-15557024D01*
X12459643Y-15547500D01*
X12478690Y-15537976D01*
X12735833Y-15737976D02*
X12621548Y-15737976D01*
X12678690Y-15737976D02*
X12678690Y-15537976D01*
X12659643Y-15566548D01*
X12640595Y-15585595D01*
X12621548Y-15595119D01*
X12916786Y-15537976D02*
X12821548Y-15537976D01*
X12812024Y-15633214D01*
X12821548Y-15623690D01*
X12840595Y-15614167D01*
X12888214Y-15614167D01*
X12907262Y-15623690D01*
X12916786Y-15633214D01*
X12926309Y-15652262D01*
X12926309Y-15699881D01*
X12916786Y-15718928D01*
X12907262Y-15728452D01*
X12888214Y-15737976D01*
X12840595Y-15737976D01*
X12821548Y-15728452D01*
X12812024Y-15718928D01*
X12992976Y-15537976D02*
X13126309Y-15537976D01*
X13040595Y-15737976D01*
X13192976Y-15537976D02*
X13192976Y-15576071D01*
X13269167Y-15537976D02*
X13269167Y-15576071D01*
X13564405Y-15814167D02*
X13554881Y-15804643D01*
X13535833Y-15776071D01*
X13526309Y-15757024D01*
X13516786Y-15728452D01*
X13507262Y-15680833D01*
X13507262Y-15642738D01*
X13516786Y-15595119D01*
X13526309Y-15566548D01*
X13535833Y-15547500D01*
X13554881Y-15518928D01*
X13564405Y-15509405D01*
X13745357Y-15737976D02*
X13631071Y-15737976D01*
X13688214Y-15737976D02*
X13688214Y-15537976D01*
X13669167Y-15566548D01*
X13650119Y-15585595D01*
X13631071Y-15595119D01*
X13840595Y-15737976D02*
X13878690Y-15737976D01*
X13897738Y-15728452D01*
X13907262Y-15718928D01*
X13926309Y-15690357D01*
X13935833Y-15652262D01*
X13935833Y-15576071D01*
X13926309Y-15557024D01*
X13916786Y-15547500D01*
X13897738Y-15537976D01*
X13859643Y-15537976D01*
X13840595Y-15547500D01*
X13831071Y-15557024D01*
X13821548Y-15576071D01*
X13821548Y-15623690D01*
X13831071Y-15642738D01*
X13840595Y-15652262D01*
X13859643Y-15661786D01*
X13897738Y-15661786D01*
X13916786Y-15652262D01*
X13926309Y-15642738D01*
X13935833Y-15623690D01*
X14173928Y-15737976D02*
X14173928Y-15537976D01*
X14259643Y-15737976D02*
X14259643Y-15633214D01*
X14250119Y-15614167D01*
X14231071Y-15604643D01*
X14202500Y-15604643D01*
X14183452Y-15614167D01*
X14173928Y-15623690D01*
X14383452Y-15737976D02*
X14364405Y-15728452D01*
X14354881Y-15718928D01*
X14345357Y-15699881D01*
X14345357Y-15642738D01*
X14354881Y-15623690D01*
X14364405Y-15614167D01*
X14383452Y-15604643D01*
X14412024Y-15604643D01*
X14431071Y-15614167D01*
X14440595Y-15623690D01*
X14450119Y-15642738D01*
X14450119Y-15699881D01*
X14440595Y-15718928D01*
X14431071Y-15728452D01*
X14412024Y-15737976D01*
X14383452Y-15737976D01*
X14564405Y-15737976D02*
X14545357Y-15728452D01*
X14535833Y-15709405D01*
X14535833Y-15537976D01*
X14716786Y-15728452D02*
X14697738Y-15737976D01*
X14659643Y-15737976D01*
X14640595Y-15728452D01*
X14631071Y-15709405D01*
X14631071Y-15633214D01*
X14640595Y-15614167D01*
X14659643Y-15604643D01*
X14697738Y-15604643D01*
X14716786Y-15614167D01*
X14726309Y-15633214D01*
X14726309Y-15652262D01*
X14631071Y-15671309D01*
X14802500Y-15728452D02*
X14821548Y-15737976D01*
X14859643Y-15737976D01*
X14878690Y-15728452D01*
X14888214Y-15709405D01*
X14888214Y-15699881D01*
X14878690Y-15680833D01*
X14859643Y-15671309D01*
X14831071Y-15671309D01*
X14812024Y-15661786D01*
X14802500Y-15642738D01*
X14802500Y-15633214D01*
X14812024Y-15614167D01*
X14831071Y-15604643D01*
X14859643Y-15604643D01*
X14878690Y-15614167D01*
X14954881Y-15814167D02*
X14964405Y-15804643D01*
X14983452Y-15776071D01*
X14992976Y-15757024D01*
X15002500Y-15728452D01*
X15012024Y-15680833D01*
X15012024Y-15642738D01*
X15002500Y-15595119D01*
X14992976Y-15566548D01*
X14983452Y-15547500D01*
X14964405Y-15518928D01*
X14954881Y-15509405D01*
D13*
X9992500Y-15911500D02*
G75*
G03*
X9992500Y-15911500I-25000J0D01*
G01*
D11*
X10288214Y-15801976D02*
X10307262Y-15801976D01*
X10326310Y-15811500D01*
X10335833Y-15821024D01*
X10345357Y-15840071D01*
X10354881Y-15878167D01*
X10354881Y-15925786D01*
X10345357Y-15963881D01*
X10335833Y-15982928D01*
X10326310Y-15992452D01*
X10307262Y-16001976D01*
X10288214Y-16001976D01*
X10269167Y-15992452D01*
X10259643Y-15982928D01*
X10250119Y-15963881D01*
X10240595Y-15925786D01*
X10240595Y-15878167D01*
X10250119Y-15840071D01*
X10259643Y-15821024D01*
X10269167Y-15811500D01*
X10288214Y-15801976D01*
X10440595Y-15982928D02*
X10450119Y-15992452D01*
X10440595Y-16001976D01*
X10431071Y-15992452D01*
X10440595Y-15982928D01*
X10440595Y-16001976D01*
X10631071Y-15801976D02*
X10535833Y-15801976D01*
X10526310Y-15897214D01*
X10535833Y-15887690D01*
X10554881Y-15878167D01*
X10602500Y-15878167D01*
X10621548Y-15887690D01*
X10631071Y-15897214D01*
X10640595Y-15916262D01*
X10640595Y-15963881D01*
X10631071Y-15982928D01*
X10621548Y-15992452D01*
X10602500Y-16001976D01*
X10554881Y-16001976D01*
X10535833Y-15992452D01*
X10526310Y-15982928D01*
X10764405Y-15801976D02*
X10783452Y-15801976D01*
X10802500Y-15811500D01*
X10812024Y-15821024D01*
X10821548Y-15840071D01*
X10831071Y-15878167D01*
X10831071Y-15925786D01*
X10821548Y-15963881D01*
X10812024Y-15982928D01*
X10802500Y-15992452D01*
X10783452Y-16001976D01*
X10764405Y-16001976D01*
X10745357Y-15992452D01*
X10735833Y-15982928D01*
X10726310Y-15963881D01*
X10716786Y-15925786D01*
X10716786Y-15878167D01*
X10726310Y-15840071D01*
X10735833Y-15821024D01*
X10745357Y-15811500D01*
X10764405Y-15801976D01*
X10954881Y-15801976D02*
X10973929Y-15801976D01*
X10992976Y-15811500D01*
X11002500Y-15821024D01*
X11012024Y-15840071D01*
X11021548Y-15878167D01*
X11021548Y-15925786D01*
X11012024Y-15963881D01*
X11002500Y-15982928D01*
X10992976Y-15992452D01*
X10973929Y-16001976D01*
X10954881Y-16001976D01*
X10935833Y-15992452D01*
X10926310Y-15982928D01*
X10916786Y-15963881D01*
X10907262Y-15925786D01*
X10907262Y-15878167D01*
X10916786Y-15840071D01*
X10926310Y-15821024D01*
X10935833Y-15811500D01*
X10954881Y-15801976D01*
X11107262Y-16001976D02*
X11107262Y-15868643D01*
X11107262Y-15887690D02*
X11116786Y-15878167D01*
X11135833Y-15868643D01*
X11164405Y-15868643D01*
X11183452Y-15878167D01*
X11192976Y-15897214D01*
X11192976Y-16001976D01*
X11192976Y-15897214D02*
X11202500Y-15878167D01*
X11221548Y-15868643D01*
X11250119Y-15868643D01*
X11269167Y-15878167D01*
X11278690Y-15897214D01*
X11278690Y-16001976D01*
X11373928Y-16001976D02*
X11373928Y-15868643D01*
X11373928Y-15887690D02*
X11383452Y-15878167D01*
X11402500Y-15868643D01*
X11431071Y-15868643D01*
X11450119Y-15878167D01*
X11459643Y-15897214D01*
X11459643Y-16001976D01*
X11459643Y-15897214D02*
X11469167Y-15878167D01*
X11488214Y-15868643D01*
X11516786Y-15868643D01*
X11535833Y-15878167D01*
X11545357Y-15897214D01*
X11545357Y-16001976D01*
X11935833Y-15792452D02*
X11764405Y-16049595D01*
X12192976Y-15801976D02*
X12212024Y-15801976D01*
X12231071Y-15811500D01*
X12240595Y-15821024D01*
X12250119Y-15840071D01*
X12259643Y-15878167D01*
X12259643Y-15925786D01*
X12250119Y-15963881D01*
X12240595Y-15982928D01*
X12231071Y-15992452D01*
X12212024Y-16001976D01*
X12192976Y-16001976D01*
X12173928Y-15992452D01*
X12164405Y-15982928D01*
X12154881Y-15963881D01*
X12145357Y-15925786D01*
X12145357Y-15878167D01*
X12154881Y-15840071D01*
X12164405Y-15821024D01*
X12173928Y-15811500D01*
X12192976Y-15801976D01*
X12345357Y-15982928D02*
X12354881Y-15992452D01*
X12345357Y-16001976D01*
X12335833Y-15992452D01*
X12345357Y-15982928D01*
X12345357Y-16001976D01*
X12478690Y-15801976D02*
X12497738Y-15801976D01*
X12516786Y-15811500D01*
X12526309Y-15821024D01*
X12535833Y-15840071D01*
X12545357Y-15878167D01*
X12545357Y-15925786D01*
X12535833Y-15963881D01*
X12526309Y-15982928D01*
X12516786Y-15992452D01*
X12497738Y-16001976D01*
X12478690Y-16001976D01*
X12459643Y-15992452D01*
X12450119Y-15982928D01*
X12440595Y-15963881D01*
X12431071Y-15925786D01*
X12431071Y-15878167D01*
X12440595Y-15840071D01*
X12450119Y-15821024D01*
X12459643Y-15811500D01*
X12478690Y-15801976D01*
X12735833Y-16001976D02*
X12621548Y-16001976D01*
X12678690Y-16001976D02*
X12678690Y-15801976D01*
X12659643Y-15830548D01*
X12640595Y-15849595D01*
X12621548Y-15859119D01*
X12831071Y-16001976D02*
X12869167Y-16001976D01*
X12888214Y-15992452D01*
X12897738Y-15982928D01*
X12916786Y-15954357D01*
X12926309Y-15916262D01*
X12926309Y-15840071D01*
X12916786Y-15821024D01*
X12907262Y-15811500D01*
X12888214Y-15801976D01*
X12850119Y-15801976D01*
X12831071Y-15811500D01*
X12821548Y-15821024D01*
X12812024Y-15840071D01*
X12812024Y-15887690D01*
X12821548Y-15906738D01*
X12831071Y-15916262D01*
X12850119Y-15925786D01*
X12888214Y-15925786D01*
X12907262Y-15916262D01*
X12916786Y-15906738D01*
X12926309Y-15887690D01*
X12992976Y-15801976D02*
X13126309Y-15801976D01*
X13040595Y-16001976D01*
X13192976Y-15801976D02*
X13192976Y-15840071D01*
X13269167Y-15801976D02*
X13269167Y-15840071D01*
X13564405Y-16078167D02*
X13554881Y-16068643D01*
X13535833Y-16040071D01*
X13526309Y-16021024D01*
X13516786Y-15992452D01*
X13507262Y-15944833D01*
X13507262Y-15906738D01*
X13516786Y-15859119D01*
X13526309Y-15830548D01*
X13535833Y-15811500D01*
X13554881Y-15782928D01*
X13564405Y-15773405D01*
X13678690Y-15801976D02*
X13697738Y-15801976D01*
X13716786Y-15811500D01*
X13726309Y-15821024D01*
X13735833Y-15840071D01*
X13745357Y-15878167D01*
X13745357Y-15925786D01*
X13735833Y-15963881D01*
X13726309Y-15982928D01*
X13716786Y-15992452D01*
X13697738Y-16001976D01*
X13678690Y-16001976D01*
X13659643Y-15992452D01*
X13650119Y-15982928D01*
X13640595Y-15963881D01*
X13631071Y-15925786D01*
X13631071Y-15878167D01*
X13640595Y-15840071D01*
X13650119Y-15821024D01*
X13659643Y-15811500D01*
X13678690Y-15801976D01*
X13983452Y-16001976D02*
X13983452Y-15801976D01*
X14069167Y-16001976D02*
X14069167Y-15897214D01*
X14059643Y-15878167D01*
X14040595Y-15868643D01*
X14012024Y-15868643D01*
X13992976Y-15878167D01*
X13983452Y-15887690D01*
X14192976Y-16001976D02*
X14173928Y-15992452D01*
X14164405Y-15982928D01*
X14154881Y-15963881D01*
X14154881Y-15906738D01*
X14164405Y-15887690D01*
X14173928Y-15878167D01*
X14192976Y-15868643D01*
X14221548Y-15868643D01*
X14240595Y-15878167D01*
X14250119Y-15887690D01*
X14259643Y-15906738D01*
X14259643Y-15963881D01*
X14250119Y-15982928D01*
X14240595Y-15992452D01*
X14221548Y-16001976D01*
X14192976Y-16001976D01*
X14373928Y-16001976D02*
X14354881Y-15992452D01*
X14345357Y-15973405D01*
X14345357Y-15801976D01*
X14526309Y-15992452D02*
X14507262Y-16001976D01*
X14469167Y-16001976D01*
X14450119Y-15992452D01*
X14440595Y-15973405D01*
X14440595Y-15897214D01*
X14450119Y-15878167D01*
X14469167Y-15868643D01*
X14507262Y-15868643D01*
X14526309Y-15878167D01*
X14535833Y-15897214D01*
X14535833Y-15916262D01*
X14440595Y-15935309D01*
X14612024Y-15992452D02*
X14631071Y-16001976D01*
X14669167Y-16001976D01*
X14688214Y-15992452D01*
X14697738Y-15973405D01*
X14697738Y-15963881D01*
X14688214Y-15944833D01*
X14669167Y-15935309D01*
X14640595Y-15935309D01*
X14621548Y-15925786D01*
X14612024Y-15906738D01*
X14612024Y-15897214D01*
X14621548Y-15878167D01*
X14640595Y-15868643D01*
X14669167Y-15868643D01*
X14688214Y-15878167D01*
X14935833Y-15925786D02*
X15088214Y-15925786D01*
X15012024Y-16001976D02*
X15012024Y-15849595D01*
X15326309Y-15821024D02*
X15335833Y-15811500D01*
X15354881Y-15801976D01*
X15402500Y-15801976D01*
X15421548Y-15811500D01*
X15431071Y-15821024D01*
X15440595Y-15840071D01*
X15440595Y-15859119D01*
X15431071Y-15887690D01*
X15316786Y-16001976D01*
X15440595Y-16001976D01*
X15669167Y-15992452D02*
X15688214Y-16001976D01*
X15726309Y-16001976D01*
X15745357Y-15992452D01*
X15754881Y-15973405D01*
X15754881Y-15963881D01*
X15745357Y-15944833D01*
X15726309Y-15935309D01*
X15697738Y-15935309D01*
X15678690Y-15925786D01*
X15669167Y-15906738D01*
X15669167Y-15897214D01*
X15678690Y-15878167D01*
X15697738Y-15868643D01*
X15726309Y-15868643D01*
X15745357Y-15878167D01*
X15869167Y-16001976D02*
X15850119Y-15992452D01*
X15840595Y-15973405D01*
X15840595Y-15801976D01*
X15973928Y-16001976D02*
X15954881Y-15992452D01*
X15945357Y-15982928D01*
X15935833Y-15963881D01*
X15935833Y-15906738D01*
X15945357Y-15887690D01*
X15954881Y-15878167D01*
X15973928Y-15868643D01*
X16002500Y-15868643D01*
X16021548Y-15878167D01*
X16031071Y-15887690D01*
X16040595Y-15906738D01*
X16040595Y-15963881D01*
X16031071Y-15982928D01*
X16021548Y-15992452D01*
X16002500Y-16001976D01*
X15973928Y-16001976D01*
X16097738Y-15868643D02*
X16173928Y-15868643D01*
X16126309Y-15801976D02*
X16126309Y-15973405D01*
X16135833Y-15992452D01*
X16154881Y-16001976D01*
X16173928Y-16001976D01*
X16231071Y-15992452D02*
X16250119Y-16001976D01*
X16288214Y-16001976D01*
X16307262Y-15992452D01*
X16316786Y-15973405D01*
X16316786Y-15963881D01*
X16307262Y-15944833D01*
X16288214Y-15935309D01*
X16259643Y-15935309D01*
X16240595Y-15925786D01*
X16231071Y-15906738D01*
X16231071Y-15897214D01*
X16240595Y-15878167D01*
X16259643Y-15868643D01*
X16288214Y-15868643D01*
X16307262Y-15878167D01*
X16383452Y-16078167D02*
X16392976Y-16068643D01*
X16412024Y-16040071D01*
X16421548Y-16021024D01*
X16431071Y-15992452D01*
X16440595Y-15944833D01*
X16440595Y-15906738D01*
X16431071Y-15859119D01*
X16421548Y-15830548D01*
X16412024Y-15811500D01*
X16392976Y-15782928D01*
X16383452Y-15773405D01*
D14*
X9965000Y-16148000D02*
X9965000Y-16203000D01*
X9937500Y-16175500D02*
X9992500Y-16175500D01*
D11*
X10288214Y-16065976D02*
X10307262Y-16065976D01*
X10326310Y-16075500D01*
X10335833Y-16085024D01*
X10345357Y-16104071D01*
X10354881Y-16142167D01*
X10354881Y-16189786D01*
X10345357Y-16227881D01*
X10335833Y-16246928D01*
X10326310Y-16256452D01*
X10307262Y-16265976D01*
X10288214Y-16265976D01*
X10269167Y-16256452D01*
X10259643Y-16246928D01*
X10250119Y-16227881D01*
X10240595Y-16189786D01*
X10240595Y-16142167D01*
X10250119Y-16104071D01*
X10259643Y-16085024D01*
X10269167Y-16075500D01*
X10288214Y-16065976D01*
X10440595Y-16246928D02*
X10450119Y-16256452D01*
X10440595Y-16265976D01*
X10431071Y-16256452D01*
X10440595Y-16246928D01*
X10440595Y-16265976D01*
X10631071Y-16065976D02*
X10535833Y-16065976D01*
X10526310Y-16161214D01*
X10535833Y-16151690D01*
X10554881Y-16142167D01*
X10602500Y-16142167D01*
X10621548Y-16151690D01*
X10631071Y-16161214D01*
X10640595Y-16180262D01*
X10640595Y-16227881D01*
X10631071Y-16246928D01*
X10621548Y-16256452D01*
X10602500Y-16265976D01*
X10554881Y-16265976D01*
X10535833Y-16256452D01*
X10526310Y-16246928D01*
X10821548Y-16065976D02*
X10726310Y-16065976D01*
X10716786Y-16161214D01*
X10726310Y-16151690D01*
X10745357Y-16142167D01*
X10792976Y-16142167D01*
X10812024Y-16151690D01*
X10821548Y-16161214D01*
X10831071Y-16180262D01*
X10831071Y-16227881D01*
X10821548Y-16246928D01*
X10812024Y-16256452D01*
X10792976Y-16265976D01*
X10745357Y-16265976D01*
X10726310Y-16256452D01*
X10716786Y-16246928D01*
X10954881Y-16065976D02*
X10973929Y-16065976D01*
X10992976Y-16075500D01*
X11002500Y-16085024D01*
X11012024Y-16104071D01*
X11021548Y-16142167D01*
X11021548Y-16189786D01*
X11012024Y-16227881D01*
X11002500Y-16246928D01*
X10992976Y-16256452D01*
X10973929Y-16265976D01*
X10954881Y-16265976D01*
X10935833Y-16256452D01*
X10926310Y-16246928D01*
X10916786Y-16227881D01*
X10907262Y-16189786D01*
X10907262Y-16142167D01*
X10916786Y-16104071D01*
X10926310Y-16085024D01*
X10935833Y-16075500D01*
X10954881Y-16065976D01*
X11107262Y-16265976D02*
X11107262Y-16132643D01*
X11107262Y-16151690D02*
X11116786Y-16142167D01*
X11135833Y-16132643D01*
X11164405Y-16132643D01*
X11183452Y-16142167D01*
X11192976Y-16161214D01*
X11192976Y-16265976D01*
X11192976Y-16161214D02*
X11202500Y-16142167D01*
X11221548Y-16132643D01*
X11250119Y-16132643D01*
X11269167Y-16142167D01*
X11278690Y-16161214D01*
X11278690Y-16265976D01*
X11373928Y-16265976D02*
X11373928Y-16132643D01*
X11373928Y-16151690D02*
X11383452Y-16142167D01*
X11402500Y-16132643D01*
X11431071Y-16132643D01*
X11450119Y-16142167D01*
X11459643Y-16161214D01*
X11459643Y-16265976D01*
X11459643Y-16161214D02*
X11469167Y-16142167D01*
X11488214Y-16132643D01*
X11516786Y-16132643D01*
X11535833Y-16142167D01*
X11545357Y-16161214D01*
X11545357Y-16265976D01*
X11935833Y-16056452D02*
X11764405Y-16313595D01*
X12192976Y-16065976D02*
X12212024Y-16065976D01*
X12231071Y-16075500D01*
X12240595Y-16085024D01*
X12250119Y-16104071D01*
X12259643Y-16142167D01*
X12259643Y-16189786D01*
X12250119Y-16227881D01*
X12240595Y-16246928D01*
X12231071Y-16256452D01*
X12212024Y-16265976D01*
X12192976Y-16265976D01*
X12173928Y-16256452D01*
X12164405Y-16246928D01*
X12154881Y-16227881D01*
X12145357Y-16189786D01*
X12145357Y-16142167D01*
X12154881Y-16104071D01*
X12164405Y-16085024D01*
X12173928Y-16075500D01*
X12192976Y-16065976D01*
X12345357Y-16246928D02*
X12354881Y-16256452D01*
X12345357Y-16265976D01*
X12335833Y-16256452D01*
X12345357Y-16246928D01*
X12345357Y-16265976D01*
X12478690Y-16065976D02*
X12497738Y-16065976D01*
X12516786Y-16075500D01*
X12526309Y-16085024D01*
X12535833Y-16104071D01*
X12545357Y-16142167D01*
X12545357Y-16189786D01*
X12535833Y-16227881D01*
X12526309Y-16246928D01*
X12516786Y-16256452D01*
X12497738Y-16265976D01*
X12478690Y-16265976D01*
X12459643Y-16256452D01*
X12450119Y-16246928D01*
X12440595Y-16227881D01*
X12431071Y-16189786D01*
X12431071Y-16142167D01*
X12440595Y-16104071D01*
X12450119Y-16085024D01*
X12459643Y-16075500D01*
X12478690Y-16065976D01*
X12621548Y-16085024D02*
X12631071Y-16075500D01*
X12650119Y-16065976D01*
X12697738Y-16065976D01*
X12716786Y-16075500D01*
X12726309Y-16085024D01*
X12735833Y-16104071D01*
X12735833Y-16123119D01*
X12726309Y-16151690D01*
X12612024Y-16265976D01*
X12735833Y-16265976D01*
X12926309Y-16265976D02*
X12812024Y-16265976D01*
X12869167Y-16265976D02*
X12869167Y-16065976D01*
X12850119Y-16094548D01*
X12831071Y-16113595D01*
X12812024Y-16123119D01*
X12992976Y-16065976D02*
X13126309Y-16065976D01*
X13040595Y-16265976D01*
X13192976Y-16065976D02*
X13192976Y-16104071D01*
X13269167Y-16065976D02*
X13269167Y-16104071D01*
X13564405Y-16342167D02*
X13554881Y-16332643D01*
X13535833Y-16304071D01*
X13526309Y-16285024D01*
X13516786Y-16256452D01*
X13507262Y-16208833D01*
X13507262Y-16170738D01*
X13516786Y-16123119D01*
X13526309Y-16094548D01*
X13535833Y-16075500D01*
X13554881Y-16046928D01*
X13564405Y-16037405D01*
X13678690Y-16065976D02*
X13697738Y-16065976D01*
X13716786Y-16075500D01*
X13726309Y-16085024D01*
X13735833Y-16104071D01*
X13745357Y-16142167D01*
X13745357Y-16189786D01*
X13735833Y-16227881D01*
X13726309Y-16246928D01*
X13716786Y-16256452D01*
X13697738Y-16265976D01*
X13678690Y-16265976D01*
X13659643Y-16256452D01*
X13650119Y-16246928D01*
X13640595Y-16227881D01*
X13631071Y-16189786D01*
X13631071Y-16142167D01*
X13640595Y-16104071D01*
X13650119Y-16085024D01*
X13659643Y-16075500D01*
X13678690Y-16065976D01*
X13983452Y-16265976D02*
X13983452Y-16065976D01*
X14069167Y-16265976D02*
X14069167Y-16161214D01*
X14059643Y-16142167D01*
X14040595Y-16132643D01*
X14012024Y-16132643D01*
X13992976Y-16142167D01*
X13983452Y-16151690D01*
X14192976Y-16265976D02*
X14173928Y-16256452D01*
X14164405Y-16246928D01*
X14154881Y-16227881D01*
X14154881Y-16170738D01*
X14164405Y-16151690D01*
X14173928Y-16142167D01*
X14192976Y-16132643D01*
X14221548Y-16132643D01*
X14240595Y-16142167D01*
X14250119Y-16151690D01*
X14259643Y-16170738D01*
X14259643Y-16227881D01*
X14250119Y-16246928D01*
X14240595Y-16256452D01*
X14221548Y-16265976D01*
X14192976Y-16265976D01*
X14373928Y-16265976D02*
X14354881Y-16256452D01*
X14345357Y-16237405D01*
X14345357Y-16065976D01*
X14526309Y-16256452D02*
X14507262Y-16265976D01*
X14469167Y-16265976D01*
X14450119Y-16256452D01*
X14440595Y-16237405D01*
X14440595Y-16161214D01*
X14450119Y-16142167D01*
X14469167Y-16132643D01*
X14507262Y-16132643D01*
X14526309Y-16142167D01*
X14535833Y-16161214D01*
X14535833Y-16180262D01*
X14440595Y-16199309D01*
X14612024Y-16256452D02*
X14631071Y-16265976D01*
X14669167Y-16265976D01*
X14688214Y-16256452D01*
X14697738Y-16237405D01*
X14697738Y-16227881D01*
X14688214Y-16208833D01*
X14669167Y-16199309D01*
X14640595Y-16199309D01*
X14621548Y-16189786D01*
X14612024Y-16170738D01*
X14612024Y-16161214D01*
X14621548Y-16142167D01*
X14640595Y-16132643D01*
X14669167Y-16132643D01*
X14688214Y-16142167D01*
X14935833Y-16189786D02*
X15088214Y-16189786D01*
X15012024Y-16265976D02*
X15012024Y-16113595D01*
X15326309Y-16085024D02*
X15335833Y-16075500D01*
X15354881Y-16065976D01*
X15402500Y-16065976D01*
X15421548Y-16075500D01*
X15431071Y-16085024D01*
X15440595Y-16104071D01*
X15440595Y-16123119D01*
X15431071Y-16151690D01*
X15316786Y-16265976D01*
X15440595Y-16265976D01*
X15669167Y-16256452D02*
X15688214Y-16265976D01*
X15726309Y-16265976D01*
X15745357Y-16256452D01*
X15754881Y-16237405D01*
X15754881Y-16227881D01*
X15745357Y-16208833D01*
X15726309Y-16199309D01*
X15697738Y-16199309D01*
X15678690Y-16189786D01*
X15669167Y-16170738D01*
X15669167Y-16161214D01*
X15678690Y-16142167D01*
X15697738Y-16132643D01*
X15726309Y-16132643D01*
X15745357Y-16142167D01*
X15869167Y-16265976D02*
X15850119Y-16256452D01*
X15840595Y-16237405D01*
X15840595Y-16065976D01*
X15973928Y-16265976D02*
X15954881Y-16256452D01*
X15945357Y-16246928D01*
X15935833Y-16227881D01*
X15935833Y-16170738D01*
X15945357Y-16151690D01*
X15954881Y-16142167D01*
X15973928Y-16132643D01*
X16002500Y-16132643D01*
X16021548Y-16142167D01*
X16031071Y-16151690D01*
X16040595Y-16170738D01*
X16040595Y-16227881D01*
X16031071Y-16246928D01*
X16021548Y-16256452D01*
X16002500Y-16265976D01*
X15973928Y-16265976D01*
X16097738Y-16132643D02*
X16173928Y-16132643D01*
X16126309Y-16065976D02*
X16126309Y-16237405D01*
X16135833Y-16256452D01*
X16154881Y-16265976D01*
X16173928Y-16265976D01*
X16231071Y-16256452D02*
X16250119Y-16265976D01*
X16288214Y-16265976D01*
X16307262Y-16256452D01*
X16316786Y-16237405D01*
X16316786Y-16227881D01*
X16307262Y-16208833D01*
X16288214Y-16199309D01*
X16259643Y-16199309D01*
X16240595Y-16189786D01*
X16231071Y-16170738D01*
X16231071Y-16161214D01*
X16240595Y-16142167D01*
X16259643Y-16132643D01*
X16288214Y-16132643D01*
X16307262Y-16142167D01*
X16383452Y-16342167D02*
X16392976Y-16332643D01*
X16412024Y-16304071D01*
X16421548Y-16285024D01*
X16431071Y-16256452D01*
X16440595Y-16208833D01*
X16440595Y-16170738D01*
X16431071Y-16123119D01*
X16421548Y-16094548D01*
X16412024Y-16075500D01*
X16392976Y-16046928D01*
X16383452Y-16037405D01*
D15*
X9978588Y-16473088D02*
X9978588Y-16405912D01*
X9911412Y-16405912D01*
X9911412Y-16473088D01*
X9978588Y-16473088D01*
D11*
X10288214Y-16329976D02*
X10307262Y-16329976D01*
X10326310Y-16339500D01*
X10335833Y-16349024D01*
X10345357Y-16368071D01*
X10354881Y-16406167D01*
X10354881Y-16453786D01*
X10345357Y-16491881D01*
X10335833Y-16510928D01*
X10326310Y-16520452D01*
X10307262Y-16529976D01*
X10288214Y-16529976D01*
X10269167Y-16520452D01*
X10259643Y-16510928D01*
X10250119Y-16491881D01*
X10240595Y-16453786D01*
X10240595Y-16406167D01*
X10250119Y-16368071D01*
X10259643Y-16349024D01*
X10269167Y-16339500D01*
X10288214Y-16329976D01*
X10440595Y-16510928D02*
X10450119Y-16520452D01*
X10440595Y-16529976D01*
X10431071Y-16520452D01*
X10440595Y-16510928D01*
X10440595Y-16529976D01*
X10545357Y-16529976D02*
X10583452Y-16529976D01*
X10602500Y-16520452D01*
X10612024Y-16510928D01*
X10631071Y-16482357D01*
X10640595Y-16444262D01*
X10640595Y-16368071D01*
X10631071Y-16349024D01*
X10621548Y-16339500D01*
X10602500Y-16329976D01*
X10564405Y-16329976D01*
X10545357Y-16339500D01*
X10535833Y-16349024D01*
X10526310Y-16368071D01*
X10526310Y-16415690D01*
X10535833Y-16434738D01*
X10545357Y-16444262D01*
X10564405Y-16453786D01*
X10602500Y-16453786D01*
X10621548Y-16444262D01*
X10631071Y-16434738D01*
X10640595Y-16415690D01*
X10821548Y-16329976D02*
X10726310Y-16329976D01*
X10716786Y-16425214D01*
X10726310Y-16415690D01*
X10745357Y-16406167D01*
X10792976Y-16406167D01*
X10812024Y-16415690D01*
X10821548Y-16425214D01*
X10831071Y-16444262D01*
X10831071Y-16491881D01*
X10821548Y-16510928D01*
X10812024Y-16520452D01*
X10792976Y-16529976D01*
X10745357Y-16529976D01*
X10726310Y-16520452D01*
X10716786Y-16510928D01*
X10954881Y-16329976D02*
X10973929Y-16329976D01*
X10992976Y-16339500D01*
X11002500Y-16349024D01*
X11012024Y-16368071D01*
X11021548Y-16406167D01*
X11021548Y-16453786D01*
X11012024Y-16491881D01*
X11002500Y-16510928D01*
X10992976Y-16520452D01*
X10973929Y-16529976D01*
X10954881Y-16529976D01*
X10935833Y-16520452D01*
X10926310Y-16510928D01*
X10916786Y-16491881D01*
X10907262Y-16453786D01*
X10907262Y-16406167D01*
X10916786Y-16368071D01*
X10926310Y-16349024D01*
X10935833Y-16339500D01*
X10954881Y-16329976D01*
X11107262Y-16529976D02*
X11107262Y-16396643D01*
X11107262Y-16415690D02*
X11116786Y-16406167D01*
X11135833Y-16396643D01*
X11164405Y-16396643D01*
X11183452Y-16406167D01*
X11192976Y-16425214D01*
X11192976Y-16529976D01*
X11192976Y-16425214D02*
X11202500Y-16406167D01*
X11221548Y-16396643D01*
X11250119Y-16396643D01*
X11269167Y-16406167D01*
X11278690Y-16425214D01*
X11278690Y-16529976D01*
X11373928Y-16529976D02*
X11373928Y-16396643D01*
X11373928Y-16415690D02*
X11383452Y-16406167D01*
X11402500Y-16396643D01*
X11431071Y-16396643D01*
X11450119Y-16406167D01*
X11459643Y-16425214D01*
X11459643Y-16529976D01*
X11459643Y-16425214D02*
X11469167Y-16406167D01*
X11488214Y-16396643D01*
X11516786Y-16396643D01*
X11535833Y-16406167D01*
X11545357Y-16425214D01*
X11545357Y-16529976D01*
X11935833Y-16320452D02*
X11764405Y-16577595D01*
X12192976Y-16329976D02*
X12212024Y-16329976D01*
X12231071Y-16339500D01*
X12240595Y-16349024D01*
X12250119Y-16368071D01*
X12259643Y-16406167D01*
X12259643Y-16453786D01*
X12250119Y-16491881D01*
X12240595Y-16510928D01*
X12231071Y-16520452D01*
X12212024Y-16529976D01*
X12192976Y-16529976D01*
X12173928Y-16520452D01*
X12164405Y-16510928D01*
X12154881Y-16491881D01*
X12145357Y-16453786D01*
X12145357Y-16406167D01*
X12154881Y-16368071D01*
X12164405Y-16349024D01*
X12173928Y-16339500D01*
X12192976Y-16329976D01*
X12345357Y-16510928D02*
X12354881Y-16520452D01*
X12345357Y-16529976D01*
X12335833Y-16520452D01*
X12345357Y-16510928D01*
X12345357Y-16529976D01*
X12478690Y-16329976D02*
X12497738Y-16329976D01*
X12516786Y-16339500D01*
X12526309Y-16349024D01*
X12535833Y-16368071D01*
X12545357Y-16406167D01*
X12545357Y-16453786D01*
X12535833Y-16491881D01*
X12526309Y-16510928D01*
X12516786Y-16520452D01*
X12497738Y-16529976D01*
X12478690Y-16529976D01*
X12459643Y-16520452D01*
X12450119Y-16510928D01*
X12440595Y-16491881D01*
X12431071Y-16453786D01*
X12431071Y-16406167D01*
X12440595Y-16368071D01*
X12450119Y-16349024D01*
X12459643Y-16339500D01*
X12478690Y-16329976D01*
X12612024Y-16329976D02*
X12735833Y-16329976D01*
X12669167Y-16406167D01*
X12697738Y-16406167D01*
X12716786Y-16415690D01*
X12726309Y-16425214D01*
X12735833Y-16444262D01*
X12735833Y-16491881D01*
X12726309Y-16510928D01*
X12716786Y-16520452D01*
X12697738Y-16529976D01*
X12640595Y-16529976D01*
X12621548Y-16520452D01*
X12612024Y-16510928D01*
X12802500Y-16329976D02*
X12935833Y-16329976D01*
X12850119Y-16529976D01*
X13097738Y-16396643D02*
X13097738Y-16529976D01*
X13050119Y-16320452D02*
X13002500Y-16463309D01*
X13126309Y-16463309D01*
X13192976Y-16329976D02*
X13192976Y-16368071D01*
X13269167Y-16329976D02*
X13269167Y-16368071D01*
X13564405Y-16606167D02*
X13554881Y-16596643D01*
X13535833Y-16568071D01*
X13526309Y-16549024D01*
X13516786Y-16520452D01*
X13507262Y-16472833D01*
X13507262Y-16434738D01*
X13516786Y-16387119D01*
X13526309Y-16358548D01*
X13535833Y-16339500D01*
X13554881Y-16310928D01*
X13564405Y-16301405D01*
X13745357Y-16529976D02*
X13631071Y-16529976D01*
X13688214Y-16529976D02*
X13688214Y-16329976D01*
X13669167Y-16358548D01*
X13650119Y-16377595D01*
X13631071Y-16387119D01*
X13869167Y-16329976D02*
X13888214Y-16329976D01*
X13907262Y-16339500D01*
X13916786Y-16349024D01*
X13926309Y-16368071D01*
X13935833Y-16406167D01*
X13935833Y-16453786D01*
X13926309Y-16491881D01*
X13916786Y-16510928D01*
X13907262Y-16520452D01*
X13888214Y-16529976D01*
X13869167Y-16529976D01*
X13850119Y-16520452D01*
X13840595Y-16510928D01*
X13831071Y-16491881D01*
X13821548Y-16453786D01*
X13821548Y-16406167D01*
X13831071Y-16368071D01*
X13840595Y-16349024D01*
X13850119Y-16339500D01*
X13869167Y-16329976D01*
X14173928Y-16529976D02*
X14173928Y-16329976D01*
X14259643Y-16529976D02*
X14259643Y-16425214D01*
X14250119Y-16406167D01*
X14231071Y-16396643D01*
X14202500Y-16396643D01*
X14183452Y-16406167D01*
X14173928Y-16415690D01*
X14383452Y-16529976D02*
X14364405Y-16520452D01*
X14354881Y-16510928D01*
X14345357Y-16491881D01*
X14345357Y-16434738D01*
X14354881Y-16415690D01*
X14364405Y-16406167D01*
X14383452Y-16396643D01*
X14412024Y-16396643D01*
X14431071Y-16406167D01*
X14440595Y-16415690D01*
X14450119Y-16434738D01*
X14450119Y-16491881D01*
X14440595Y-16510928D01*
X14431071Y-16520452D01*
X14412024Y-16529976D01*
X14383452Y-16529976D01*
X14564405Y-16529976D02*
X14545357Y-16520452D01*
X14535833Y-16501405D01*
X14535833Y-16329976D01*
X14716786Y-16520452D02*
X14697738Y-16529976D01*
X14659643Y-16529976D01*
X14640595Y-16520452D01*
X14631071Y-16501405D01*
X14631071Y-16425214D01*
X14640595Y-16406167D01*
X14659643Y-16396643D01*
X14697738Y-16396643D01*
X14716786Y-16406167D01*
X14726309Y-16425214D01*
X14726309Y-16444262D01*
X14631071Y-16463309D01*
X14802500Y-16520452D02*
X14821548Y-16529976D01*
X14859643Y-16529976D01*
X14878690Y-16520452D01*
X14888214Y-16501405D01*
X14888214Y-16491881D01*
X14878690Y-16472833D01*
X14859643Y-16463309D01*
X14831071Y-16463309D01*
X14812024Y-16453786D01*
X14802500Y-16434738D01*
X14802500Y-16425214D01*
X14812024Y-16406167D01*
X14831071Y-16396643D01*
X14859643Y-16396643D01*
X14878690Y-16406167D01*
X14954881Y-16606167D02*
X14964405Y-16596643D01*
X14983452Y-16568071D01*
X14992976Y-16549024D01*
X15002500Y-16520452D01*
X15012024Y-16472833D01*
X15012024Y-16434738D01*
X15002500Y-16387119D01*
X14992976Y-16358548D01*
X14983452Y-16339500D01*
X14964405Y-16310928D01*
X14954881Y-16301405D01*
D16*
X9942500Y-16753500D02*
X9992500Y-16703500D01*
X9942500Y-16653500D01*
X9892500Y-16703500D01*
X9942500Y-16753500D01*
D11*
X10354881Y-16793976D02*
X10240595Y-16793976D01*
X10297738Y-16793976D02*
X10297738Y-16593976D01*
X10278690Y-16622548D01*
X10259643Y-16641595D01*
X10240595Y-16651119D01*
X10440595Y-16774928D02*
X10450119Y-16784452D01*
X10440595Y-16793976D01*
X10431071Y-16784452D01*
X10440595Y-16774928D01*
X10440595Y-16793976D01*
X10573929Y-16593976D02*
X10592976Y-16593976D01*
X10612024Y-16603500D01*
X10621548Y-16613024D01*
X10631071Y-16632071D01*
X10640595Y-16670167D01*
X10640595Y-16717786D01*
X10631071Y-16755881D01*
X10621548Y-16774928D01*
X10612024Y-16784452D01*
X10592976Y-16793976D01*
X10573929Y-16793976D01*
X10554881Y-16784452D01*
X10545357Y-16774928D01*
X10535833Y-16755881D01*
X10526310Y-16717786D01*
X10526310Y-16670167D01*
X10535833Y-16632071D01*
X10545357Y-16613024D01*
X10554881Y-16603500D01*
X10573929Y-16593976D01*
X10764405Y-16593976D02*
X10783452Y-16593976D01*
X10802500Y-16603500D01*
X10812024Y-16613024D01*
X10821548Y-16632071D01*
X10831071Y-16670167D01*
X10831071Y-16717786D01*
X10821548Y-16755881D01*
X10812024Y-16774928D01*
X10802500Y-16784452D01*
X10783452Y-16793976D01*
X10764405Y-16793976D01*
X10745357Y-16784452D01*
X10735833Y-16774928D01*
X10726310Y-16755881D01*
X10716786Y-16717786D01*
X10716786Y-16670167D01*
X10726310Y-16632071D01*
X10735833Y-16613024D01*
X10745357Y-16603500D01*
X10764405Y-16593976D01*
X10954881Y-16593976D02*
X10973929Y-16593976D01*
X10992976Y-16603500D01*
X11002500Y-16613024D01*
X11012024Y-16632071D01*
X11021548Y-16670167D01*
X11021548Y-16717786D01*
X11012024Y-16755881D01*
X11002500Y-16774928D01*
X10992976Y-16784452D01*
X10973929Y-16793976D01*
X10954881Y-16793976D01*
X10935833Y-16784452D01*
X10926310Y-16774928D01*
X10916786Y-16755881D01*
X10907262Y-16717786D01*
X10907262Y-16670167D01*
X10916786Y-16632071D01*
X10926310Y-16613024D01*
X10935833Y-16603500D01*
X10954881Y-16593976D01*
X11107262Y-16793976D02*
X11107262Y-16660643D01*
X11107262Y-16679690D02*
X11116786Y-16670167D01*
X11135833Y-16660643D01*
X11164405Y-16660643D01*
X11183452Y-16670167D01*
X11192976Y-16689214D01*
X11192976Y-16793976D01*
X11192976Y-16689214D02*
X11202500Y-16670167D01*
X11221548Y-16660643D01*
X11250119Y-16660643D01*
X11269167Y-16670167D01*
X11278690Y-16689214D01*
X11278690Y-16793976D01*
X11373928Y-16793976D02*
X11373928Y-16660643D01*
X11373928Y-16679690D02*
X11383452Y-16670167D01*
X11402500Y-16660643D01*
X11431071Y-16660643D01*
X11450119Y-16670167D01*
X11459643Y-16689214D01*
X11459643Y-16793976D01*
X11459643Y-16689214D02*
X11469167Y-16670167D01*
X11488214Y-16660643D01*
X11516786Y-16660643D01*
X11535833Y-16670167D01*
X11545357Y-16689214D01*
X11545357Y-16793976D01*
X11935833Y-16584452D02*
X11764405Y-16841595D01*
X12192976Y-16593976D02*
X12212024Y-16593976D01*
X12231071Y-16603500D01*
X12240595Y-16613024D01*
X12250119Y-16632071D01*
X12259643Y-16670167D01*
X12259643Y-16717786D01*
X12250119Y-16755881D01*
X12240595Y-16774928D01*
X12231071Y-16784452D01*
X12212024Y-16793976D01*
X12192976Y-16793976D01*
X12173928Y-16784452D01*
X12164405Y-16774928D01*
X12154881Y-16755881D01*
X12145357Y-16717786D01*
X12145357Y-16670167D01*
X12154881Y-16632071D01*
X12164405Y-16613024D01*
X12173928Y-16603500D01*
X12192976Y-16593976D01*
X12345357Y-16774928D02*
X12354881Y-16784452D01*
X12345357Y-16793976D01*
X12335833Y-16784452D01*
X12345357Y-16774928D01*
X12345357Y-16793976D01*
X12478690Y-16593976D02*
X12497738Y-16593976D01*
X12516786Y-16603500D01*
X12526309Y-16613024D01*
X12535833Y-16632071D01*
X12545357Y-16670167D01*
X12545357Y-16717786D01*
X12535833Y-16755881D01*
X12526309Y-16774928D01*
X12516786Y-16784452D01*
X12497738Y-16793976D01*
X12478690Y-16793976D01*
X12459643Y-16784452D01*
X12450119Y-16774928D01*
X12440595Y-16755881D01*
X12431071Y-16717786D01*
X12431071Y-16670167D01*
X12440595Y-16632071D01*
X12450119Y-16613024D01*
X12459643Y-16603500D01*
X12478690Y-16593976D01*
X12612024Y-16593976D02*
X12735833Y-16593976D01*
X12669167Y-16670167D01*
X12697738Y-16670167D01*
X12716786Y-16679690D01*
X12726309Y-16689214D01*
X12735833Y-16708262D01*
X12735833Y-16755881D01*
X12726309Y-16774928D01*
X12716786Y-16784452D01*
X12697738Y-16793976D01*
X12640595Y-16793976D01*
X12621548Y-16784452D01*
X12612024Y-16774928D01*
X12831071Y-16793976D02*
X12869167Y-16793976D01*
X12888214Y-16784452D01*
X12897738Y-16774928D01*
X12916786Y-16746357D01*
X12926309Y-16708262D01*
X12926309Y-16632071D01*
X12916786Y-16613024D01*
X12907262Y-16603500D01*
X12888214Y-16593976D01*
X12850119Y-16593976D01*
X12831071Y-16603500D01*
X12821548Y-16613024D01*
X12812024Y-16632071D01*
X12812024Y-16679690D01*
X12821548Y-16698738D01*
X12831071Y-16708262D01*
X12850119Y-16717786D01*
X12888214Y-16717786D01*
X12907262Y-16708262D01*
X12916786Y-16698738D01*
X12926309Y-16679690D01*
X13097738Y-16660643D02*
X13097738Y-16793976D01*
X13050119Y-16584452D02*
X13002500Y-16727309D01*
X13126309Y-16727309D01*
X13192976Y-16593976D02*
X13192976Y-16632071D01*
X13269167Y-16593976D02*
X13269167Y-16632071D01*
X13564405Y-16870167D02*
X13554881Y-16860643D01*
X13535833Y-16832071D01*
X13526309Y-16813024D01*
X13516786Y-16784452D01*
X13507262Y-16736833D01*
X13507262Y-16698738D01*
X13516786Y-16651119D01*
X13526309Y-16622548D01*
X13535833Y-16603500D01*
X13554881Y-16574928D01*
X13564405Y-16565405D01*
X13621548Y-16593976D02*
X13745357Y-16593976D01*
X13678690Y-16670167D01*
X13707262Y-16670167D01*
X13726309Y-16679690D01*
X13735833Y-16689214D01*
X13745357Y-16708262D01*
X13745357Y-16755881D01*
X13735833Y-16774928D01*
X13726309Y-16784452D01*
X13707262Y-16793976D01*
X13650119Y-16793976D01*
X13631071Y-16784452D01*
X13621548Y-16774928D01*
X13926309Y-16593976D02*
X13831071Y-16593976D01*
X13821548Y-16689214D01*
X13831071Y-16679690D01*
X13850119Y-16670167D01*
X13897738Y-16670167D01*
X13916786Y-16679690D01*
X13926309Y-16689214D01*
X13935833Y-16708262D01*
X13935833Y-16755881D01*
X13926309Y-16774928D01*
X13916786Y-16784452D01*
X13897738Y-16793976D01*
X13850119Y-16793976D01*
X13831071Y-16784452D01*
X13821548Y-16774928D01*
X14173928Y-16793976D02*
X14173928Y-16593976D01*
X14259643Y-16793976D02*
X14259643Y-16689214D01*
X14250119Y-16670167D01*
X14231071Y-16660643D01*
X14202500Y-16660643D01*
X14183452Y-16670167D01*
X14173928Y-16679690D01*
X14383452Y-16793976D02*
X14364405Y-16784452D01*
X14354881Y-16774928D01*
X14345357Y-16755881D01*
X14345357Y-16698738D01*
X14354881Y-16679690D01*
X14364405Y-16670167D01*
X14383452Y-16660643D01*
X14412024Y-16660643D01*
X14431071Y-16670167D01*
X14440595Y-16679690D01*
X14450119Y-16698738D01*
X14450119Y-16755881D01*
X14440595Y-16774928D01*
X14431071Y-16784452D01*
X14412024Y-16793976D01*
X14383452Y-16793976D01*
X14564405Y-16793976D02*
X14545357Y-16784452D01*
X14535833Y-16765405D01*
X14535833Y-16593976D01*
X14716786Y-16784452D02*
X14697738Y-16793976D01*
X14659643Y-16793976D01*
X14640595Y-16784452D01*
X14631071Y-16765405D01*
X14631071Y-16689214D01*
X14640595Y-16670167D01*
X14659643Y-16660643D01*
X14697738Y-16660643D01*
X14716786Y-16670167D01*
X14726309Y-16689214D01*
X14726309Y-16708262D01*
X14631071Y-16727309D01*
X14802500Y-16784452D02*
X14821548Y-16793976D01*
X14859643Y-16793976D01*
X14878690Y-16784452D01*
X14888214Y-16765405D01*
X14888214Y-16755881D01*
X14878690Y-16736833D01*
X14859643Y-16727309D01*
X14831071Y-16727309D01*
X14812024Y-16717786D01*
X14802500Y-16698738D01*
X14802500Y-16689214D01*
X14812024Y-16670167D01*
X14831071Y-16660643D01*
X14859643Y-16660643D01*
X14878690Y-16670167D01*
X14954881Y-16870167D02*
X14964405Y-16860643D01*
X14983452Y-16832071D01*
X14992976Y-16813024D01*
X15002500Y-16784452D01*
X15012024Y-16736833D01*
X15012024Y-16698738D01*
X15002500Y-16651119D01*
X14992976Y-16622548D01*
X14983452Y-16603500D01*
X14964405Y-16574928D01*
X14954881Y-16565405D01*
M02*
