%TF.GenerationSoftware,KiCad,Pcbnew,6.0.11+dfsg-1*%
%TF.CreationDate,2023-12-17T00:58:25-05:00*%
%TF.ProjectId,base_controller,62617365-5f63-46f6-9e74-726f6c6c6572,rev?*%
%TF.SameCoordinates,Original*%
%TF.FileFunction,Soldermask,Bot*%
%TF.FilePolarity,Negative*%
%FSLAX46Y46*%
G04 Gerber Fmt 4.6, Leading zero omitted, Abs format (unit mm)*
G04 Created by KiCad (PCBNEW 6.0.11+dfsg-1) date 2023-12-17 00:58:25*
%MOMM*%
%LPD*%
G01*
G04 APERTURE LIST*
G04 Aperture macros list*
%AMRoundRect*
0 Rectangle with rounded corners*
0 $1 Rounding radius*
0 $2 $3 $4 $5 $6 $7 $8 $9 X,Y pos of 4 corners*
0 Add a 4 corners polygon primitive as box body*
4,1,4,$2,$3,$4,$5,$6,$7,$8,$9,$2,$3,0*
0 Add four circle primitives for the rounded corners*
1,1,$1+$1,$2,$3*
1,1,$1+$1,$4,$5*
1,1,$1+$1,$6,$7*
1,1,$1+$1,$8,$9*
0 Add four rect primitives between the rounded corners*
20,1,$1+$1,$2,$3,$4,$5,0*
20,1,$1+$1,$4,$5,$6,$7,0*
20,1,$1+$1,$6,$7,$8,$9,0*
20,1,$1+$1,$8,$9,$2,$3,0*%
G04 Aperture macros list end*
%ADD10R,1.700000X1.700000*%
%ADD11O,1.700000X1.700000*%
%ADD12RoundRect,0.250000X-0.725000X0.600000X-0.725000X-0.600000X0.725000X-0.600000X0.725000X0.600000X0*%
%ADD13O,1.950000X1.700000*%
%ADD14C,4.300000*%
%ADD15O,0.890000X1.550000*%
%ADD16O,1.250000X0.950000*%
%ADD17RoundRect,0.250000X-0.350000X-0.450000X0.350000X-0.450000X0.350000X0.450000X-0.350000X0.450000X0*%
%ADD18RoundRect,0.250000X0.337500X0.475000X-0.337500X0.475000X-0.337500X-0.475000X0.337500X-0.475000X0*%
%ADD19RoundRect,0.250000X-0.450000X0.350000X-0.450000X-0.350000X0.450000X-0.350000X0.450000X0.350000X0*%
%ADD20RoundRect,0.250000X0.350000X0.450000X-0.350000X0.450000X-0.350000X-0.450000X0.350000X-0.450000X0*%
%ADD21RoundRect,0.062500X-0.350000X-0.062500X0.350000X-0.062500X0.350000X0.062500X-0.350000X0.062500X0*%
%ADD22RoundRect,0.062500X-0.062500X-0.350000X0.062500X-0.350000X0.062500X0.350000X-0.062500X0.350000X0*%
%ADD23R,2.600000X2.600000*%
G04 APERTURE END LIST*
D10*
%TO.C,J4*%
X106680000Y-132588000D03*
D11*
X104140000Y-132588000D03*
%TD*%
D10*
%TO.C,J7*%
X134350000Y-117737500D03*
D11*
X136890000Y-117737500D03*
%TD*%
%TO.C,J6*%
X135090000Y-132080000D03*
D10*
X132550000Y-132080000D03*
%TD*%
%TO.C,J3*%
X106426000Y-117856000D03*
D11*
X103886000Y-117856000D03*
%TD*%
D12*
%TO.C,J1*%
X188976000Y-73660000D03*
D13*
X188976000Y-76160000D03*
X188976000Y-78660000D03*
X188976000Y-81160000D03*
X188976000Y-83660000D03*
%TD*%
D12*
%TO.C,J2*%
X188976000Y-94902000D03*
D13*
X188976000Y-97402000D03*
X188976000Y-99902000D03*
X188976000Y-102402000D03*
X188976000Y-104902000D03*
%TD*%
D14*
%TO.C,REF\u002A\u002A*%
X105000000Y-145000000D03*
%TD*%
D15*
%TO.C,J5*%
X153234000Y-148652500D03*
X160234000Y-148652500D03*
D16*
X154234000Y-145952500D03*
X159234000Y-145952500D03*
%TD*%
D10*
%TO.C,JP1*%
X114106000Y-82550000D03*
D11*
X116646000Y-82550000D03*
X119186000Y-82550000D03*
%TD*%
D10*
%TO.C,JP2*%
X114106000Y-87144000D03*
D11*
X116646000Y-87144000D03*
X119186000Y-87144000D03*
%TD*%
D10*
%TO.C,JP3*%
X114106000Y-91738000D03*
D11*
X116646000Y-91738000D03*
X119186000Y-91738000D03*
%TD*%
D10*
%TO.C,JP4*%
X114106000Y-96332000D03*
D11*
X116646000Y-96332000D03*
X119186000Y-96332000D03*
%TD*%
D10*
%TO.C,JP5*%
X114106000Y-100926000D03*
D11*
X116646000Y-100926000D03*
X119186000Y-100926000D03*
%TD*%
D10*
%TO.C,JP6*%
X114106000Y-58020000D03*
D11*
X116646000Y-58020000D03*
X119186000Y-58020000D03*
%TD*%
D10*
%TO.C,JP7*%
X114106000Y-62670000D03*
D11*
X116646000Y-62670000D03*
X119186000Y-62670000D03*
%TD*%
D10*
%TO.C,JP8*%
X114106000Y-67320000D03*
D11*
X116646000Y-67320000D03*
X119186000Y-67320000D03*
%TD*%
D10*
%TO.C,JP9*%
X114106000Y-71970000D03*
D11*
X116646000Y-71970000D03*
X119186000Y-71970000D03*
%TD*%
D14*
%TO.C,REF\u002A\u002A*%
X105000000Y-60000000D03*
%TD*%
%TO.C,REF\u002A\u002A*%
X190000000Y-60000000D03*
%TD*%
%TO.C,REF\u002A\u002A*%
X190000000Y-145000000D03*
%TD*%
D17*
%TO.C,R9*%
X180356000Y-94996000D03*
X182356000Y-94996000D03*
%TD*%
D18*
%TO.C,C5*%
X159787500Y-124968000D03*
X157712500Y-124968000D03*
%TD*%
%TO.C,C6*%
X159787500Y-121158000D03*
X157712500Y-121158000D03*
%TD*%
D19*
%TO.C,R3*%
X162306000Y-115840000D03*
X162306000Y-117840000D03*
%TD*%
%TO.C,R4*%
X153670000Y-115840000D03*
X153670000Y-117840000D03*
%TD*%
%TO.C,R5*%
X158242000Y-115840000D03*
X158242000Y-117840000D03*
%TD*%
%TO.C,R6*%
X165608000Y-115840000D03*
X165608000Y-117840000D03*
%TD*%
%TO.C,R7*%
X169164000Y-115840000D03*
X169164000Y-117840000D03*
%TD*%
D20*
%TO.C,R8*%
X164068000Y-138176000D03*
X162068000Y-138176000D03*
%TD*%
%TO.C,R10*%
X164068000Y-94742000D03*
X162068000Y-94742000D03*
%TD*%
%TO.C,R11*%
X165592000Y-82296000D03*
X163592000Y-82296000D03*
%TD*%
D21*
%TO.C,U2*%
X160876500Y-131806000D03*
X160876500Y-131306000D03*
X160876500Y-130806000D03*
X160876500Y-130306000D03*
X160876500Y-129806000D03*
X160876500Y-129306000D03*
D22*
X161564000Y-128618500D03*
X162064000Y-128618500D03*
X162564000Y-128618500D03*
X163064000Y-128618500D03*
X163564000Y-128618500D03*
X164064000Y-128618500D03*
D21*
X164751500Y-129306000D03*
X164751500Y-129806000D03*
X164751500Y-130306000D03*
X164751500Y-130806000D03*
X164751500Y-131306000D03*
X164751500Y-131806000D03*
D22*
X164064000Y-132493500D03*
X163564000Y-132493500D03*
X163064000Y-132493500D03*
X162564000Y-132493500D03*
X162064000Y-132493500D03*
X161564000Y-132493500D03*
D23*
X162814000Y-130556000D03*
%TD*%
M02*
