%TF.GenerationSoftware,KiCad,Pcbnew,6.0.11+dfsg-1*%
%TF.CreationDate,2023-12-17T00:58:25-05:00*%
%TF.ProjectId,base_controller,62617365-5f63-46f6-9e74-726f6c6c6572,rev?*%
%TF.SameCoordinates,Original*%
%TF.FileFunction,Profile,NP*%
%FSLAX46Y46*%
G04 Gerber Fmt 4.6, Leading zero omitted, Abs format (unit mm)*
G04 Created by KiCad (PCBNEW 6.0.11+dfsg-1) date 2023-12-17 00:58:25*
%MOMM*%
%LPD*%
G01*
G04 APERTURE LIST*
%TA.AperFunction,Profile*%
%ADD10C,0.150000*%
%TD*%
G04 APERTURE END LIST*
D10*
X100000000Y-145000000D02*
X100000000Y-60000000D01*
X135000000Y-110000000D02*
X140000000Y-110000000D01*
X105000000Y-55000000D02*
G75*
G03*
X100000000Y-60000000I0J-5000000D01*
G01*
X105000000Y-150000000D02*
X190000000Y-150000000D01*
X135000000Y-106000000D02*
G75*
G03*
X135000000Y-110000000I0J-2000000D01*
G01*
X145000000Y-115000000D02*
G75*
G03*
X140000000Y-110000000I-5000000J0D01*
G01*
X149000000Y-110000000D02*
G75*
G03*
X145000000Y-106000000I-4000000J0D01*
G01*
X125000000Y-110000000D02*
G75*
G03*
X125000000Y-106000000I0J2000000D01*
G01*
X105000000Y-55000000D02*
X190000000Y-55000000D01*
X195000000Y-60000000D02*
X195000000Y-145000000D01*
X195000000Y-60000000D02*
G75*
G03*
X190000000Y-55000000I-5000000J0D01*
G01*
X145000000Y-143000000D02*
G75*
G03*
X149000000Y-143000000I2000000J0D01*
G01*
X107000000Y-106000000D02*
X125000000Y-106000000D01*
X107000000Y-106000000D02*
G75*
G03*
X107000000Y-110000000I0J-2000000D01*
G01*
X100000000Y-145000000D02*
G75*
G03*
X105000000Y-150000000I5000000J0D01*
G01*
X107000000Y-110000000D02*
X125000000Y-110000000D01*
X135000000Y-106000000D02*
X145000000Y-106000000D01*
X149000000Y-110000000D02*
X149000000Y-143000000D01*
X145000000Y-115000000D02*
X145000000Y-143000000D01*
X190000000Y-150000000D02*
G75*
G03*
X195000000Y-145000000I0J5000000D01*
G01*
M02*
