%TF.GenerationSoftware,KiCad,Pcbnew,6.0.11+dfsg-1*%
%TF.CreationDate,2023-12-17T00:58:21-05:00*%
%TF.ProjectId,base_controller,62617365-5f63-46f6-9e74-726f6c6c6572,rev?*%
%TF.SameCoordinates,Original*%
%TF.FileFunction,Drillmap*%
%TF.FilePolarity,Positive*%
%FSLAX45Y45*%
G04 Gerber Fmt 4.5, Leading zero omitted, Abs format (unit mm)*
G04 Created by KiCad (PCBNEW 6.0.11+dfsg-1) date 2023-12-17 00:58:21*
%MOMM*%
%LPD*%
G01*
G04 APERTURE LIST*
%ADD10C,0.150000*%
%ADD11C,0.200000*%
%ADD12C,0.430000*%
G04 APERTURE END LIST*
D10*
X10000000Y-14500000D02*
X10000000Y-6000000D01*
X13500000Y-11000000D02*
X14000000Y-11000000D01*
X10500000Y-5500000D02*
G75*
G03*
X10000000Y-6000000I0J-500000D01*
G01*
X10500000Y-15000000D02*
X19000000Y-15000000D01*
X13500000Y-10600000D02*
G75*
G03*
X13500000Y-11000000I0J-200000D01*
G01*
X14500000Y-11500000D02*
G75*
G03*
X14000000Y-11000000I-500000J0D01*
G01*
X14900000Y-11000000D02*
G75*
G03*
X14500000Y-10600000I-400000J0D01*
G01*
X12500000Y-11000000D02*
G75*
G03*
X12500000Y-10600000I0J200000D01*
G01*
X10500000Y-5500000D02*
X19000000Y-5500000D01*
X19500000Y-6000000D02*
X19500000Y-14500000D01*
X19500000Y-6000000D02*
G75*
G03*
X19000000Y-5500000I-500000J0D01*
G01*
X14500000Y-14300000D02*
G75*
G03*
X14900000Y-14300000I200000J0D01*
G01*
X10700000Y-10600000D02*
X12500000Y-10600000D01*
X10700000Y-10600000D02*
G75*
G03*
X10700000Y-11000000I0J-200000D01*
G01*
X10000000Y-14500000D02*
G75*
G03*
X10500000Y-15000000I500000J0D01*
G01*
X10700000Y-11000000D02*
X12500000Y-11000000D01*
X13500000Y-10600000D02*
X14500000Y-10600000D01*
X14900000Y-11000000D02*
X14900000Y-14300000D01*
X14500000Y-11500000D02*
X14500000Y-14300000D01*
X19000000Y-15000000D02*
G75*
G03*
X19500000Y-14500000I0J500000D01*
G01*
D11*
D12*
X10285000Y-5785000D02*
X10715000Y-6215000D01*
X10715000Y-5785000D02*
X10285000Y-6215000D01*
X10285000Y-14285000D02*
X10715000Y-14715000D01*
X10715000Y-14285000D02*
X10285000Y-14715000D01*
X18785000Y-5785000D02*
X19215000Y-6215000D01*
X19215000Y-5785000D02*
X18785000Y-6215000D01*
X18785000Y-14285000D02*
X19215000Y-14715000D01*
X19215000Y-14285000D02*
X18785000Y-14715000D01*
D11*
X10250119Y-15317976D02*
X10250119Y-15117976D01*
X10297738Y-15117976D01*
X10326310Y-15127500D01*
X10345357Y-15146548D01*
X10354881Y-15165595D01*
X10364405Y-15203690D01*
X10364405Y-15232262D01*
X10354881Y-15270357D01*
X10345357Y-15289405D01*
X10326310Y-15308452D01*
X10297738Y-15317976D01*
X10250119Y-15317976D01*
X10450119Y-15317976D02*
X10450119Y-15184643D01*
X10450119Y-15222738D02*
X10459643Y-15203690D01*
X10469167Y-15194167D01*
X10488214Y-15184643D01*
X10507262Y-15184643D01*
X10573929Y-15317976D02*
X10573929Y-15184643D01*
X10573929Y-15117976D02*
X10564405Y-15127500D01*
X10573929Y-15137024D01*
X10583452Y-15127500D01*
X10573929Y-15117976D01*
X10573929Y-15137024D01*
X10697738Y-15317976D02*
X10678690Y-15308452D01*
X10669167Y-15289405D01*
X10669167Y-15117976D01*
X10802500Y-15317976D02*
X10783452Y-15308452D01*
X10773929Y-15289405D01*
X10773929Y-15117976D01*
X11031071Y-15317976D02*
X11031071Y-15117976D01*
X11097738Y-15260833D01*
X11164405Y-15117976D01*
X11164405Y-15317976D01*
X11345357Y-15317976D02*
X11345357Y-15213214D01*
X11335833Y-15194167D01*
X11316786Y-15184643D01*
X11278690Y-15184643D01*
X11259643Y-15194167D01*
X11345357Y-15308452D02*
X11326309Y-15317976D01*
X11278690Y-15317976D01*
X11259643Y-15308452D01*
X11250119Y-15289405D01*
X11250119Y-15270357D01*
X11259643Y-15251309D01*
X11278690Y-15241786D01*
X11326309Y-15241786D01*
X11345357Y-15232262D01*
X11440595Y-15184643D02*
X11440595Y-15384643D01*
X11440595Y-15194167D02*
X11459643Y-15184643D01*
X11497738Y-15184643D01*
X11516786Y-15194167D01*
X11526309Y-15203690D01*
X11535833Y-15222738D01*
X11535833Y-15279881D01*
X11526309Y-15298928D01*
X11516786Y-15308452D01*
X11497738Y-15317976D01*
X11459643Y-15317976D01*
X11440595Y-15308452D01*
X11621548Y-15298928D02*
X11631071Y-15308452D01*
X11621548Y-15317976D01*
X11612024Y-15308452D01*
X11621548Y-15298928D01*
X11621548Y-15317976D01*
X11621548Y-15194167D02*
X11631071Y-15203690D01*
X11621548Y-15213214D01*
X11612024Y-15203690D01*
X11621548Y-15194167D01*
X11621548Y-15213214D01*
X9792500Y-15547500D02*
X9992500Y-15747500D01*
X9992500Y-15547500D02*
X9792500Y-15747500D01*
X10335833Y-15604643D02*
X10335833Y-15737976D01*
X10288214Y-15528452D02*
X10240595Y-15671309D01*
X10364405Y-15671309D01*
X10440595Y-15718928D02*
X10450119Y-15728452D01*
X10440595Y-15737976D01*
X10431071Y-15728452D01*
X10440595Y-15718928D01*
X10440595Y-15737976D01*
X10516786Y-15537976D02*
X10640595Y-15537976D01*
X10573929Y-15614167D01*
X10602500Y-15614167D01*
X10621548Y-15623690D01*
X10631071Y-15633214D01*
X10640595Y-15652262D01*
X10640595Y-15699881D01*
X10631071Y-15718928D01*
X10621548Y-15728452D01*
X10602500Y-15737976D01*
X10545357Y-15737976D01*
X10526310Y-15728452D01*
X10516786Y-15718928D01*
X10764405Y-15537976D02*
X10783452Y-15537976D01*
X10802500Y-15547500D01*
X10812024Y-15557024D01*
X10821548Y-15576071D01*
X10831071Y-15614167D01*
X10831071Y-15661786D01*
X10821548Y-15699881D01*
X10812024Y-15718928D01*
X10802500Y-15728452D01*
X10783452Y-15737976D01*
X10764405Y-15737976D01*
X10745357Y-15728452D01*
X10735833Y-15718928D01*
X10726310Y-15699881D01*
X10716786Y-15661786D01*
X10716786Y-15614167D01*
X10726310Y-15576071D01*
X10735833Y-15557024D01*
X10745357Y-15547500D01*
X10764405Y-15537976D01*
X10954881Y-15537976D02*
X10973929Y-15537976D01*
X10992976Y-15547500D01*
X11002500Y-15557024D01*
X11012024Y-15576071D01*
X11021548Y-15614167D01*
X11021548Y-15661786D01*
X11012024Y-15699881D01*
X11002500Y-15718928D01*
X10992976Y-15728452D01*
X10973929Y-15737976D01*
X10954881Y-15737976D01*
X10935833Y-15728452D01*
X10926310Y-15718928D01*
X10916786Y-15699881D01*
X10907262Y-15661786D01*
X10907262Y-15614167D01*
X10916786Y-15576071D01*
X10926310Y-15557024D01*
X10935833Y-15547500D01*
X10954881Y-15537976D01*
X11107262Y-15737976D02*
X11107262Y-15604643D01*
X11107262Y-15623690D02*
X11116786Y-15614167D01*
X11135833Y-15604643D01*
X11164405Y-15604643D01*
X11183452Y-15614167D01*
X11192976Y-15633214D01*
X11192976Y-15737976D01*
X11192976Y-15633214D02*
X11202500Y-15614167D01*
X11221548Y-15604643D01*
X11250119Y-15604643D01*
X11269167Y-15614167D01*
X11278690Y-15633214D01*
X11278690Y-15737976D01*
X11373928Y-15737976D02*
X11373928Y-15604643D01*
X11373928Y-15623690D02*
X11383452Y-15614167D01*
X11402500Y-15604643D01*
X11431071Y-15604643D01*
X11450119Y-15614167D01*
X11459643Y-15633214D01*
X11459643Y-15737976D01*
X11459643Y-15633214D02*
X11469167Y-15614167D01*
X11488214Y-15604643D01*
X11516786Y-15604643D01*
X11535833Y-15614167D01*
X11545357Y-15633214D01*
X11545357Y-15737976D01*
X11935833Y-15528452D02*
X11764405Y-15785595D01*
X12192976Y-15537976D02*
X12212024Y-15537976D01*
X12231071Y-15547500D01*
X12240595Y-15557024D01*
X12250119Y-15576071D01*
X12259643Y-15614167D01*
X12259643Y-15661786D01*
X12250119Y-15699881D01*
X12240595Y-15718928D01*
X12231071Y-15728452D01*
X12212024Y-15737976D01*
X12192976Y-15737976D01*
X12173928Y-15728452D01*
X12164405Y-15718928D01*
X12154881Y-15699881D01*
X12145357Y-15661786D01*
X12145357Y-15614167D01*
X12154881Y-15576071D01*
X12164405Y-15557024D01*
X12173928Y-15547500D01*
X12192976Y-15537976D01*
X12345357Y-15718928D02*
X12354881Y-15728452D01*
X12345357Y-15737976D01*
X12335833Y-15728452D01*
X12345357Y-15718928D01*
X12345357Y-15737976D01*
X12545357Y-15737976D02*
X12431071Y-15737976D01*
X12488214Y-15737976D02*
X12488214Y-15537976D01*
X12469167Y-15566548D01*
X12450119Y-15585595D01*
X12431071Y-15595119D01*
X12716786Y-15537976D02*
X12678690Y-15537976D01*
X12659643Y-15547500D01*
X12650119Y-15557024D01*
X12631071Y-15585595D01*
X12621548Y-15623690D01*
X12621548Y-15699881D01*
X12631071Y-15718928D01*
X12640595Y-15728452D01*
X12659643Y-15737976D01*
X12697738Y-15737976D01*
X12716786Y-15728452D01*
X12726309Y-15718928D01*
X12735833Y-15699881D01*
X12735833Y-15652262D01*
X12726309Y-15633214D01*
X12716786Y-15623690D01*
X12697738Y-15614167D01*
X12659643Y-15614167D01*
X12640595Y-15623690D01*
X12631071Y-15633214D01*
X12621548Y-15652262D01*
X12831071Y-15737976D02*
X12869167Y-15737976D01*
X12888214Y-15728452D01*
X12897738Y-15718928D01*
X12916786Y-15690357D01*
X12926309Y-15652262D01*
X12926309Y-15576071D01*
X12916786Y-15557024D01*
X12907262Y-15547500D01*
X12888214Y-15537976D01*
X12850119Y-15537976D01*
X12831071Y-15547500D01*
X12821548Y-15557024D01*
X12812024Y-15576071D01*
X12812024Y-15623690D01*
X12821548Y-15642738D01*
X12831071Y-15652262D01*
X12850119Y-15661786D01*
X12888214Y-15661786D01*
X12907262Y-15652262D01*
X12916786Y-15642738D01*
X12926309Y-15623690D01*
X12992976Y-15537976D02*
X13116786Y-15537976D01*
X13050119Y-15614167D01*
X13078690Y-15614167D01*
X13097738Y-15623690D01*
X13107262Y-15633214D01*
X13116786Y-15652262D01*
X13116786Y-15699881D01*
X13107262Y-15718928D01*
X13097738Y-15728452D01*
X13078690Y-15737976D01*
X13021548Y-15737976D01*
X13002500Y-15728452D01*
X12992976Y-15718928D01*
X13192976Y-15537976D02*
X13192976Y-15576071D01*
X13269167Y-15537976D02*
X13269167Y-15576071D01*
X13564405Y-15814167D02*
X13554881Y-15804643D01*
X13535833Y-15776071D01*
X13526309Y-15757024D01*
X13516786Y-15728452D01*
X13507262Y-15680833D01*
X13507262Y-15642738D01*
X13516786Y-15595119D01*
X13526309Y-15566548D01*
X13535833Y-15547500D01*
X13554881Y-15518928D01*
X13564405Y-15509405D01*
X13726309Y-15604643D02*
X13726309Y-15737976D01*
X13678690Y-15528452D02*
X13631071Y-15671309D01*
X13754881Y-15671309D01*
X13983452Y-15737976D02*
X13983452Y-15537976D01*
X14069167Y-15737976D02*
X14069167Y-15633214D01*
X14059643Y-15614167D01*
X14040595Y-15604643D01*
X14012024Y-15604643D01*
X13992976Y-15614167D01*
X13983452Y-15623690D01*
X14192976Y-15737976D02*
X14173928Y-15728452D01*
X14164405Y-15718928D01*
X14154881Y-15699881D01*
X14154881Y-15642738D01*
X14164405Y-15623690D01*
X14173928Y-15614167D01*
X14192976Y-15604643D01*
X14221548Y-15604643D01*
X14240595Y-15614167D01*
X14250119Y-15623690D01*
X14259643Y-15642738D01*
X14259643Y-15699881D01*
X14250119Y-15718928D01*
X14240595Y-15728452D01*
X14221548Y-15737976D01*
X14192976Y-15737976D01*
X14373928Y-15737976D02*
X14354881Y-15728452D01*
X14345357Y-15709405D01*
X14345357Y-15537976D01*
X14526309Y-15728452D02*
X14507262Y-15737976D01*
X14469167Y-15737976D01*
X14450119Y-15728452D01*
X14440595Y-15709405D01*
X14440595Y-15633214D01*
X14450119Y-15614167D01*
X14469167Y-15604643D01*
X14507262Y-15604643D01*
X14526309Y-15614167D01*
X14535833Y-15633214D01*
X14535833Y-15652262D01*
X14440595Y-15671309D01*
X14612024Y-15728452D02*
X14631071Y-15737976D01*
X14669167Y-15737976D01*
X14688214Y-15728452D01*
X14697738Y-15709405D01*
X14697738Y-15699881D01*
X14688214Y-15680833D01*
X14669167Y-15671309D01*
X14640595Y-15671309D01*
X14621548Y-15661786D01*
X14612024Y-15642738D01*
X14612024Y-15633214D01*
X14621548Y-15614167D01*
X14640595Y-15604643D01*
X14669167Y-15604643D01*
X14688214Y-15614167D01*
X14764405Y-15814167D02*
X14773928Y-15804643D01*
X14792976Y-15776071D01*
X14802500Y-15757024D01*
X14812024Y-15728452D01*
X14821548Y-15680833D01*
X14821548Y-15642738D01*
X14812024Y-15595119D01*
X14802500Y-15566548D01*
X14792976Y-15547500D01*
X14773928Y-15518928D01*
X14764405Y-15509405D01*
X15126309Y-15814167D02*
X15116786Y-15804643D01*
X15097738Y-15776071D01*
X15088214Y-15757024D01*
X15078690Y-15728452D01*
X15069167Y-15680833D01*
X15069167Y-15642738D01*
X15078690Y-15595119D01*
X15088214Y-15566548D01*
X15097738Y-15547500D01*
X15116786Y-15518928D01*
X15126309Y-15509405D01*
X15202500Y-15604643D02*
X15202500Y-15737976D01*
X15202500Y-15623690D02*
X15212024Y-15614167D01*
X15231071Y-15604643D01*
X15259643Y-15604643D01*
X15278690Y-15614167D01*
X15288214Y-15633214D01*
X15288214Y-15737976D01*
X15412024Y-15737976D02*
X15392976Y-15728452D01*
X15383452Y-15718928D01*
X15373928Y-15699881D01*
X15373928Y-15642738D01*
X15383452Y-15623690D01*
X15392976Y-15614167D01*
X15412024Y-15604643D01*
X15440595Y-15604643D01*
X15459643Y-15614167D01*
X15469167Y-15623690D01*
X15478690Y-15642738D01*
X15478690Y-15699881D01*
X15469167Y-15718928D01*
X15459643Y-15728452D01*
X15440595Y-15737976D01*
X15412024Y-15737976D01*
X15535833Y-15604643D02*
X15612024Y-15604643D01*
X15564405Y-15537976D02*
X15564405Y-15709405D01*
X15573928Y-15728452D01*
X15592976Y-15737976D01*
X15612024Y-15737976D01*
X15831071Y-15604643D02*
X15831071Y-15804643D01*
X15831071Y-15614167D02*
X15850119Y-15604643D01*
X15888214Y-15604643D01*
X15907262Y-15614167D01*
X15916786Y-15623690D01*
X15926309Y-15642738D01*
X15926309Y-15699881D01*
X15916786Y-15718928D01*
X15907262Y-15728452D01*
X15888214Y-15737976D01*
X15850119Y-15737976D01*
X15831071Y-15728452D01*
X16040595Y-15737976D02*
X16021548Y-15728452D01*
X16012024Y-15709405D01*
X16012024Y-15537976D01*
X16202500Y-15737976D02*
X16202500Y-15633214D01*
X16192976Y-15614167D01*
X16173928Y-15604643D01*
X16135833Y-15604643D01*
X16116786Y-15614167D01*
X16202500Y-15728452D02*
X16183452Y-15737976D01*
X16135833Y-15737976D01*
X16116786Y-15728452D01*
X16107262Y-15709405D01*
X16107262Y-15690357D01*
X16116786Y-15671309D01*
X16135833Y-15661786D01*
X16183452Y-15661786D01*
X16202500Y-15652262D01*
X16269167Y-15604643D02*
X16345357Y-15604643D01*
X16297738Y-15537976D02*
X16297738Y-15709405D01*
X16307262Y-15728452D01*
X16326309Y-15737976D01*
X16345357Y-15737976D01*
X16488214Y-15728452D02*
X16469167Y-15737976D01*
X16431071Y-15737976D01*
X16412024Y-15728452D01*
X16402500Y-15709405D01*
X16402500Y-15633214D01*
X16412024Y-15614167D01*
X16431071Y-15604643D01*
X16469167Y-15604643D01*
X16488214Y-15614167D01*
X16497738Y-15633214D01*
X16497738Y-15652262D01*
X16402500Y-15671309D01*
X16669167Y-15737976D02*
X16669167Y-15537976D01*
X16669167Y-15728452D02*
X16650119Y-15737976D01*
X16612024Y-15737976D01*
X16592976Y-15728452D01*
X16583452Y-15718928D01*
X16573928Y-15699881D01*
X16573928Y-15642738D01*
X16583452Y-15623690D01*
X16592976Y-15614167D01*
X16612024Y-15604643D01*
X16650119Y-15604643D01*
X16669167Y-15614167D01*
X16745357Y-15814167D02*
X16754881Y-15804643D01*
X16773928Y-15776071D01*
X16783452Y-15757024D01*
X16792976Y-15728452D01*
X16802500Y-15680833D01*
X16802500Y-15642738D01*
X16792976Y-15595119D01*
X16783452Y-15566548D01*
X16773928Y-15547500D01*
X16754881Y-15518928D01*
X16745357Y-15509405D01*
M02*
