M48
INCH,TZ
T1C0.0157
T2C0.0197
T3C0.0217
T4C0.0374
T5C0.0394
%
G90
G05
T1
X50700Y-26900
X53000Y-28700
X55500Y-39300
X55798Y-28802
X60800Y-51700
X61194Y-56106
X61300Y-47394
X61533Y-55767
X61937Y-55763
X62000Y-50800
X62400Y-52800
X63050Y-32350
X63200Y-47000
X63805Y-49905
X63806Y-36506
X64900Y-53200
X66000Y-54400
X67250Y-29350
X68200Y-29700
T4
X74400Y-29000
X74400Y-29984
X74400Y-30969
X74400Y-31953
X74400Y-32937
X74400Y-37363
X74400Y-38347
X74400Y-39331
X74400Y-40316
X74400Y-41300
T5
X40900Y-46400
X41000Y-52200
X41900Y-46400
X42000Y-52200
X44924Y-22843
X44924Y-24673
X44924Y-26504
X44924Y-28335
X44924Y-32500
X44924Y-34309
X44924Y-36117
X44924Y-37926
X44924Y-39735
X45924Y-22843
X45924Y-24673
X45924Y-26504
X45924Y-28335
X45924Y-32500
X45924Y-34309
X45924Y-36117
X45924Y-37926
X45924Y-39735
X46924Y-22843
X46924Y-24673
X46924Y-26504
X46924Y-28335
X46924Y-32500
X46924Y-34309
X46924Y-36117
X46924Y-37926
X46924Y-39735
X52185Y-52000
X52894Y-46353
X53185Y-52000
X53894Y-46353
T2
G00X60328Y-58397
M15
G01X60328Y-58653
M16
G05
G00X63084Y-58397
M15
G01X63084Y-58653
M16
G05
T3
G00X60663Y-57462
M15
G01X60781Y-57462
M16
G05
G00X62631Y-57462
M15
G01X62750Y-57462
M16
G05
T0
M30
