%TF.GenerationSoftware,KiCad,Pcbnew,6.0.11+dfsg-1*%
%TF.CreationDate,2023-12-17T00:58:25-05:00*%
%TF.ProjectId,base_controller,62617365-5f63-46f6-9e74-726f6c6c6572,rev?*%
%TF.SameCoordinates,Original*%
%TF.FileFunction,Legend,Top*%
%TF.FilePolarity,Positive*%
%FSLAX46Y46*%
G04 Gerber Fmt 4.6, Leading zero omitted, Abs format (unit mm)*
G04 Created by KiCad (PCBNEW 6.0.11+dfsg-1) date 2023-12-17 00:58:25*
%MOMM*%
%LPD*%
G01*
G04 APERTURE LIST*
%ADD10C,0.150000*%
%ADD11C,0.300000*%
%ADD12C,0.120000*%
G04 APERTURE END LIST*
D10*
X137540952Y-121848571D02*
X136779047Y-121848571D01*
X134691428Y-122300952D02*
X134691428Y-121539047D01*
X135072380Y-121920000D02*
X134310476Y-121920000D01*
X135000952Y-126928571D02*
X134239047Y-126928571D01*
X132151428Y-127380952D02*
X132151428Y-126619047D01*
X132532380Y-127000000D02*
X131770476Y-127000000D01*
X103759047Y-137231428D02*
X104520952Y-137231428D01*
X106608571Y-136779047D02*
X106608571Y-137540952D01*
X106227619Y-137160000D02*
X106989523Y-137160000D01*
X103759047Y-121991428D02*
X104520952Y-121991428D01*
X106608571Y-121539047D02*
X106608571Y-122300952D01*
X106227619Y-121920000D02*
X106989523Y-121920000D01*
X119078380Y-76668380D02*
X119173619Y-76668380D01*
X119268857Y-76716000D01*
X119316476Y-76763619D01*
X119364095Y-76858857D01*
X119411714Y-77049333D01*
X119411714Y-77287428D01*
X119364095Y-77477904D01*
X119316476Y-77573142D01*
X119268857Y-77620761D01*
X119173619Y-77668380D01*
X119078380Y-77668380D01*
X118983142Y-77620761D01*
X118935523Y-77573142D01*
X118887904Y-77477904D01*
X118840285Y-77287428D01*
X118840285Y-77049333D01*
X118887904Y-76858857D01*
X118935523Y-76763619D01*
X118983142Y-76716000D01*
X119078380Y-76668380D01*
X110434380Y-67285904D02*
X109434380Y-67285904D01*
X109434380Y-67047809D01*
X109482000Y-66904952D01*
X109577238Y-66809714D01*
X109672476Y-66762095D01*
X109862952Y-66714476D01*
X110005809Y-66714476D01*
X110196285Y-66762095D01*
X110291523Y-66809714D01*
X110386761Y-66904952D01*
X110434380Y-67047809D01*
X110434380Y-67285904D01*
X109910571Y-66285904D02*
X109910571Y-65952571D01*
X110434380Y-65809714D02*
X110434380Y-66285904D01*
X109434380Y-66285904D01*
X109434380Y-65809714D01*
X109434380Y-65524000D02*
X110434380Y-65190666D01*
X109434380Y-64857333D01*
X110434380Y-63762095D02*
X109434380Y-63762095D01*
X110434380Y-63285904D02*
X109434380Y-63285904D01*
X109434380Y-63047809D01*
X109482000Y-62904952D01*
X109577238Y-62809714D01*
X109672476Y-62762095D01*
X109862952Y-62714476D01*
X110005809Y-62714476D01*
X110196285Y-62762095D01*
X110291523Y-62809714D01*
X110386761Y-62904952D01*
X110434380Y-63047809D01*
X110434380Y-63285904D01*
D11*
X174534571Y-133186214D02*
X174463142Y-133257642D01*
X174248857Y-133329071D01*
X174106000Y-133329071D01*
X173891714Y-133257642D01*
X173748857Y-133114785D01*
X173677428Y-132971928D01*
X173606000Y-132686214D01*
X173606000Y-132471928D01*
X173677428Y-132186214D01*
X173748857Y-132043357D01*
X173891714Y-131900500D01*
X174106000Y-131829071D01*
X174248857Y-131829071D01*
X174463142Y-131900500D01*
X174534571Y-131971928D01*
X175391714Y-133329071D02*
X175248857Y-133257642D01*
X175177428Y-133186214D01*
X175106000Y-133043357D01*
X175106000Y-132614785D01*
X175177428Y-132471928D01*
X175248857Y-132400500D01*
X175391714Y-132329071D01*
X175606000Y-132329071D01*
X175748857Y-132400500D01*
X175820285Y-132471928D01*
X175891714Y-132614785D01*
X175891714Y-133043357D01*
X175820285Y-133186214D01*
X175748857Y-133257642D01*
X175606000Y-133329071D01*
X175391714Y-133329071D01*
X176534571Y-132329071D02*
X176534571Y-133329071D01*
X176534571Y-132471928D02*
X176606000Y-132400500D01*
X176748857Y-132329071D01*
X176963142Y-132329071D01*
X177106000Y-132400500D01*
X177177428Y-132543357D01*
X177177428Y-133329071D01*
X177891714Y-132329071D02*
X177891714Y-133329071D01*
X177891714Y-132471928D02*
X177963142Y-132400500D01*
X178106000Y-132329071D01*
X178320285Y-132329071D01*
X178463142Y-132400500D01*
X178534571Y-132543357D01*
X178534571Y-133329071D01*
X179463142Y-133329071D02*
X179320285Y-133257642D01*
X179248857Y-133186214D01*
X179177428Y-133043357D01*
X179177428Y-132614785D01*
X179248857Y-132471928D01*
X179320285Y-132400500D01*
X179463142Y-132329071D01*
X179677428Y-132329071D01*
X179820285Y-132400500D01*
X179891714Y-132471928D01*
X179963142Y-132614785D01*
X179963142Y-133043357D01*
X179891714Y-133186214D01*
X179820285Y-133257642D01*
X179677428Y-133329071D01*
X179463142Y-133329071D01*
X180606000Y-133329071D02*
X180606000Y-132329071D01*
X180606000Y-132614785D02*
X180677428Y-132471928D01*
X180748857Y-132400500D01*
X180891714Y-132329071D01*
X181034571Y-132329071D01*
X183177428Y-132543357D02*
X183391714Y-132614785D01*
X183463142Y-132686214D01*
X183534571Y-132829071D01*
X183534571Y-133043357D01*
X183463142Y-133186214D01*
X183391714Y-133257642D01*
X183248857Y-133329071D01*
X182677428Y-133329071D01*
X182677428Y-131829071D01*
X183177428Y-131829071D01*
X183320285Y-131900500D01*
X183391714Y-131971928D01*
X183463142Y-132114785D01*
X183463142Y-132257642D01*
X183391714Y-132400500D01*
X183320285Y-132471928D01*
X183177428Y-132543357D01*
X182677428Y-132543357D01*
X184177428Y-133329071D02*
X184177428Y-132329071D01*
X184177428Y-132614785D02*
X184248857Y-132471928D01*
X184320285Y-132400500D01*
X184463142Y-132329071D01*
X184606000Y-132329071D01*
X185106000Y-133329071D02*
X185106000Y-132329071D01*
X185106000Y-131829071D02*
X185034571Y-131900500D01*
X185106000Y-131971928D01*
X185177428Y-131900500D01*
X185106000Y-131829071D01*
X185106000Y-131971928D01*
X186463142Y-132329071D02*
X186463142Y-133543357D01*
X186391714Y-133686214D01*
X186320285Y-133757642D01*
X186177428Y-133829071D01*
X185963142Y-133829071D01*
X185820285Y-133757642D01*
X186463142Y-133257642D02*
X186320285Y-133329071D01*
X186034571Y-133329071D01*
X185891714Y-133257642D01*
X185820285Y-133186214D01*
X185748857Y-133043357D01*
X185748857Y-132614785D01*
X185820285Y-132471928D01*
X185891714Y-132400500D01*
X186034571Y-132329071D01*
X186320285Y-132329071D01*
X186463142Y-132400500D01*
X187820285Y-132329071D02*
X187820285Y-133543357D01*
X187748857Y-133686214D01*
X187677428Y-133757642D01*
X187534571Y-133829071D01*
X187320285Y-133829071D01*
X187177428Y-133757642D01*
X187820285Y-133257642D02*
X187677428Y-133329071D01*
X187391714Y-133329071D01*
X187248857Y-133257642D01*
X187177428Y-133186214D01*
X187106000Y-133043357D01*
X187106000Y-132614785D01*
X187177428Y-132471928D01*
X187248857Y-132400500D01*
X187391714Y-132329071D01*
X187677428Y-132329071D01*
X187820285Y-132400500D01*
X188463142Y-133257642D02*
X188606000Y-133329071D01*
X188891714Y-133329071D01*
X189034571Y-133257642D01*
X189106000Y-133114785D01*
X189106000Y-133043357D01*
X189034571Y-132900500D01*
X188891714Y-132829071D01*
X188677428Y-132829071D01*
X188534571Y-132757642D01*
X188463142Y-132614785D01*
X188463142Y-132543357D01*
X188534571Y-132400500D01*
X188677428Y-132329071D01*
X188891714Y-132329071D01*
X189034571Y-132400500D01*
X171856000Y-135744071D02*
X171856000Y-134244071D01*
X172427428Y-134244071D01*
X172570285Y-134315500D01*
X172641714Y-134386928D01*
X172713142Y-134529785D01*
X172713142Y-134744071D01*
X172641714Y-134886928D01*
X172570285Y-134958357D01*
X172427428Y-135029785D01*
X171856000Y-135029785D01*
X173356000Y-135744071D02*
X173356000Y-134744071D01*
X173356000Y-134244071D02*
X173284571Y-134315500D01*
X173356000Y-134386928D01*
X173427428Y-134315500D01*
X173356000Y-134244071D01*
X173356000Y-134386928D01*
X174284571Y-135744071D02*
X174141714Y-135672642D01*
X174070285Y-135529785D01*
X174070285Y-134244071D01*
X175070285Y-135744071D02*
X174927428Y-135672642D01*
X174856000Y-135601214D01*
X174784571Y-135458357D01*
X174784571Y-135029785D01*
X174856000Y-134886928D01*
X174927428Y-134815500D01*
X175070285Y-134744071D01*
X175284571Y-134744071D01*
X175427428Y-134815500D01*
X175498857Y-134886928D01*
X175570285Y-135029785D01*
X175570285Y-135458357D01*
X175498857Y-135601214D01*
X175427428Y-135672642D01*
X175284571Y-135744071D01*
X175070285Y-135744071D01*
X175998857Y-134744071D02*
X176570285Y-134744071D01*
X176213142Y-134244071D02*
X176213142Y-135529785D01*
X176284571Y-135672642D01*
X176427428Y-135744071D01*
X176570285Y-135744071D01*
X176927428Y-134244071D02*
X177284571Y-135744071D01*
X177570285Y-134672642D01*
X177856000Y-135744071D01*
X178213142Y-134244071D01*
X179427428Y-135744071D02*
X179427428Y-134958357D01*
X179356000Y-134815500D01*
X179213142Y-134744071D01*
X178927428Y-134744071D01*
X178784571Y-134815500D01*
X179427428Y-135672642D02*
X179284571Y-135744071D01*
X178927428Y-135744071D01*
X178784571Y-135672642D01*
X178713142Y-135529785D01*
X178713142Y-135386928D01*
X178784571Y-135244071D01*
X178927428Y-135172642D01*
X179284571Y-135172642D01*
X179427428Y-135101214D01*
X179998857Y-134744071D02*
X180356000Y-135744071D01*
X180713142Y-134744071D01*
X181856000Y-135672642D02*
X181713142Y-135744071D01*
X181427428Y-135744071D01*
X181284571Y-135672642D01*
X181213142Y-135529785D01*
X181213142Y-134958357D01*
X181284571Y-134815500D01*
X181427428Y-134744071D01*
X181713142Y-134744071D01*
X181856000Y-134815500D01*
X181927428Y-134958357D01*
X181927428Y-135101214D01*
X181213142Y-135244071D01*
X183713142Y-135744071D02*
X183713142Y-134244071D01*
X184213142Y-135315500D01*
X184713142Y-134244071D01*
X184713142Y-135744071D01*
X185641714Y-135744071D02*
X185498857Y-135672642D01*
X185427428Y-135601214D01*
X185356000Y-135458357D01*
X185356000Y-135029785D01*
X185427428Y-134886928D01*
X185498857Y-134815500D01*
X185641714Y-134744071D01*
X185856000Y-134744071D01*
X185998857Y-134815500D01*
X186070285Y-134886928D01*
X186141714Y-135029785D01*
X186141714Y-135458357D01*
X186070285Y-135601214D01*
X185998857Y-135672642D01*
X185856000Y-135744071D01*
X185641714Y-135744071D01*
X187427428Y-135744071D02*
X187427428Y-134244071D01*
X187427428Y-135672642D02*
X187284571Y-135744071D01*
X186998857Y-135744071D01*
X186856000Y-135672642D01*
X186784571Y-135601214D01*
X186713142Y-135458357D01*
X186713142Y-135029785D01*
X186784571Y-134886928D01*
X186856000Y-134815500D01*
X186998857Y-134744071D01*
X187284571Y-134744071D01*
X187427428Y-134815500D01*
X188784571Y-134744071D02*
X188784571Y-135744071D01*
X188141714Y-134744071D02*
X188141714Y-135529785D01*
X188213142Y-135672642D01*
X188356000Y-135744071D01*
X188570285Y-135744071D01*
X188713142Y-135672642D01*
X188784571Y-135601214D01*
X189713142Y-135744071D02*
X189570285Y-135672642D01*
X189498857Y-135529785D01*
X189498857Y-134244071D01*
X190856000Y-135672642D02*
X190713142Y-135744071D01*
X190427428Y-135744071D01*
X190284571Y-135672642D01*
X190213142Y-135529785D01*
X190213142Y-134958357D01*
X190284571Y-134815500D01*
X190427428Y-134744071D01*
X190713142Y-134744071D01*
X190856000Y-134815500D01*
X190927428Y-134958357D01*
X190927428Y-135101214D01*
X190213142Y-135244071D01*
D10*
X114077714Y-77668380D02*
X113506285Y-77668380D01*
X113792000Y-77668380D02*
X113792000Y-76668380D01*
X113696761Y-76811238D01*
X113601523Y-76906476D01*
X113506285Y-76954095D01*
X109672380Y-95249523D02*
X108672380Y-95249523D01*
X108672380Y-95011428D01*
X108720000Y-94868571D01*
X108815238Y-94773333D01*
X108910476Y-94725714D01*
X109100952Y-94678095D01*
X109243809Y-94678095D01*
X109434285Y-94725714D01*
X109529523Y-94773333D01*
X109624761Y-94868571D01*
X109672380Y-95011428D01*
X109672380Y-95249523D01*
X109148571Y-94249523D02*
X109148571Y-93916190D01*
X109672380Y-93773333D02*
X109672380Y-94249523D01*
X108672380Y-94249523D01*
X108672380Y-93773333D01*
X108672380Y-93487619D02*
X109672380Y-93154285D01*
X108672380Y-92820952D01*
X109577142Y-91154285D02*
X109624761Y-91201904D01*
X109672380Y-91344761D01*
X109672380Y-91440000D01*
X109624761Y-91582857D01*
X109529523Y-91678095D01*
X109434285Y-91725714D01*
X109243809Y-91773333D01*
X109100952Y-91773333D01*
X108910476Y-91725714D01*
X108815238Y-91678095D01*
X108720000Y-91582857D01*
X108672380Y-91440000D01*
X108672380Y-91344761D01*
X108720000Y-91201904D01*
X108767619Y-91154285D01*
X109672380Y-90249523D02*
X109672380Y-90725714D01*
X108672380Y-90725714D01*
X109386666Y-89963809D02*
X109386666Y-89487619D01*
X109672380Y-90059047D02*
X108672380Y-89725714D01*
X109672380Y-89392380D01*
X109624761Y-89106666D02*
X109672380Y-88963809D01*
X109672380Y-88725714D01*
X109624761Y-88630476D01*
X109577142Y-88582857D01*
X109481904Y-88535238D01*
X109386666Y-88535238D01*
X109291428Y-88582857D01*
X109243809Y-88630476D01*
X109196190Y-88725714D01*
X109148571Y-88916190D01*
X109100952Y-89011428D01*
X109053333Y-89059047D01*
X108958095Y-89106666D01*
X108862857Y-89106666D01*
X108767619Y-89059047D01*
X108720000Y-89011428D01*
X108672380Y-88916190D01*
X108672380Y-88678095D01*
X108720000Y-88535238D01*
X109624761Y-88154285D02*
X109672380Y-88011428D01*
X109672380Y-87773333D01*
X109624761Y-87678095D01*
X109577142Y-87630476D01*
X109481904Y-87582857D01*
X109386666Y-87582857D01*
X109291428Y-87630476D01*
X109243809Y-87678095D01*
X109196190Y-87773333D01*
X109148571Y-87963809D01*
X109100952Y-88059047D01*
X109053333Y-88106666D01*
X108958095Y-88154285D01*
X108862857Y-88154285D01*
X108767619Y-88106666D01*
X108720000Y-88059047D01*
X108672380Y-87963809D01*
X108672380Y-87725714D01*
X108720000Y-87582857D01*
%TO.C,J4*%
X108462380Y-132921333D02*
X109176666Y-132921333D01*
X109319523Y-132968952D01*
X109414761Y-133064190D01*
X109462380Y-133207047D01*
X109462380Y-133302285D01*
X108795714Y-132016571D02*
X109462380Y-132016571D01*
X108414761Y-132254666D02*
X109129047Y-132492761D01*
X109129047Y-131873714D01*
%TO.C,J7*%
X131472380Y-118070833D02*
X132186666Y-118070833D01*
X132329523Y-118118452D01*
X132424761Y-118213690D01*
X132472380Y-118356547D01*
X132472380Y-118451785D01*
X131472380Y-117689880D02*
X131472380Y-117023214D01*
X132472380Y-117451785D01*
%TO.C,J6*%
X129672380Y-132413333D02*
X130386666Y-132413333D01*
X130529523Y-132460952D01*
X130624761Y-132556190D01*
X130672380Y-132699047D01*
X130672380Y-132794285D01*
X129672380Y-131508571D02*
X129672380Y-131699047D01*
X129720000Y-131794285D01*
X129767619Y-131841904D01*
X129910476Y-131937142D01*
X130100952Y-131984761D01*
X130481904Y-131984761D01*
X130577142Y-131937142D01*
X130624761Y-131889523D01*
X130672380Y-131794285D01*
X130672380Y-131603809D01*
X130624761Y-131508571D01*
X130577142Y-131460952D01*
X130481904Y-131413333D01*
X130243809Y-131413333D01*
X130148571Y-131460952D01*
X130100952Y-131508571D01*
X130053333Y-131603809D01*
X130053333Y-131794285D01*
X130100952Y-131889523D01*
X130148571Y-131937142D01*
X130243809Y-131984761D01*
%TO.C,J3*%
X108208380Y-118189333D02*
X108922666Y-118189333D01*
X109065523Y-118236952D01*
X109160761Y-118332190D01*
X109208380Y-118475047D01*
X109208380Y-118570285D01*
X108208380Y-117808380D02*
X108208380Y-117189333D01*
X108589333Y-117522666D01*
X108589333Y-117379809D01*
X108636952Y-117284571D01*
X108684571Y-117236952D01*
X108779809Y-117189333D01*
X109017904Y-117189333D01*
X109113142Y-117236952D01*
X109160761Y-117284571D01*
X109208380Y-117379809D01*
X109208380Y-117665523D01*
X109160761Y-117760761D01*
X109113142Y-117808380D01*
%TO.C,J1*%
X191978380Y-78993333D02*
X192692666Y-78993333D01*
X192835523Y-79040952D01*
X192930761Y-79136190D01*
X192978380Y-79279047D01*
X192978380Y-79374285D01*
X192978380Y-77993333D02*
X192978380Y-78564761D01*
X192978380Y-78279047D02*
X191978380Y-78279047D01*
X192121238Y-78374285D01*
X192216476Y-78469523D01*
X192264095Y-78564761D01*
%TO.C,J2*%
X191978380Y-100235333D02*
X192692666Y-100235333D01*
X192835523Y-100282952D01*
X192930761Y-100378190D01*
X192978380Y-100521047D01*
X192978380Y-100616285D01*
X192073619Y-99806761D02*
X192026000Y-99759142D01*
X191978380Y-99663904D01*
X191978380Y-99425809D01*
X192026000Y-99330571D01*
X192073619Y-99282952D01*
X192168857Y-99235333D01*
X192264095Y-99235333D01*
X192406952Y-99282952D01*
X192978380Y-99854380D01*
X192978380Y-99235333D01*
%TO.C,C1*%
X128124833Y-61727142D02*
X128077214Y-61774761D01*
X127934357Y-61822380D01*
X127839119Y-61822380D01*
X127696261Y-61774761D01*
X127601023Y-61679523D01*
X127553404Y-61584285D01*
X127505785Y-61393809D01*
X127505785Y-61250952D01*
X127553404Y-61060476D01*
X127601023Y-60965238D01*
X127696261Y-60870000D01*
X127839119Y-60822380D01*
X127934357Y-60822380D01*
X128077214Y-60870000D01*
X128124833Y-60917619D01*
X129077214Y-61822380D02*
X128505785Y-61822380D01*
X128791500Y-61822380D02*
X128791500Y-60822380D01*
X128696261Y-60965238D01*
X128601023Y-61060476D01*
X128505785Y-61108095D01*
%TO.C,C2*%
X128103333Y-66553142D02*
X128055714Y-66600761D01*
X127912857Y-66648380D01*
X127817619Y-66648380D01*
X127674761Y-66600761D01*
X127579523Y-66505523D01*
X127531904Y-66410285D01*
X127484285Y-66219809D01*
X127484285Y-66076952D01*
X127531904Y-65886476D01*
X127579523Y-65791238D01*
X127674761Y-65696000D01*
X127817619Y-65648380D01*
X127912857Y-65648380D01*
X128055714Y-65696000D01*
X128103333Y-65743619D01*
X128484285Y-65743619D02*
X128531904Y-65696000D01*
X128627142Y-65648380D01*
X128865238Y-65648380D01*
X128960476Y-65696000D01*
X129008095Y-65743619D01*
X129055714Y-65838857D01*
X129055714Y-65934095D01*
X129008095Y-66076952D01*
X128436666Y-66648380D01*
X129055714Y-66648380D01*
%TO.C,D1*%
X154475904Y-135994380D02*
X154475904Y-134994380D01*
X154714000Y-134994380D01*
X154856857Y-135042000D01*
X154952095Y-135137238D01*
X154999714Y-135232476D01*
X155047333Y-135422952D01*
X155047333Y-135565809D01*
X154999714Y-135756285D01*
X154952095Y-135851523D01*
X154856857Y-135946761D01*
X154714000Y-135994380D01*
X154475904Y-135994380D01*
X155999714Y-135994380D02*
X155428285Y-135994380D01*
X155714000Y-135994380D02*
X155714000Y-134994380D01*
X155618761Y-135137238D01*
X155523523Y-135232476D01*
X155428285Y-135280095D01*
%TO.C,J5*%
X156400666Y-143304880D02*
X156400666Y-144019166D01*
X156353047Y-144162023D01*
X156257809Y-144257261D01*
X156114952Y-144304880D01*
X156019714Y-144304880D01*
X157353047Y-143304880D02*
X156876857Y-143304880D01*
X156829238Y-143781071D01*
X156876857Y-143733452D01*
X156972095Y-143685833D01*
X157210190Y-143685833D01*
X157305428Y-143733452D01*
X157353047Y-143781071D01*
X157400666Y-143876309D01*
X157400666Y-144114404D01*
X157353047Y-144209642D01*
X157305428Y-144257261D01*
X157210190Y-144304880D01*
X156972095Y-144304880D01*
X156876857Y-144257261D01*
X156829238Y-144209642D01*
%TO.C,JP1*%
X120968380Y-82597619D02*
X120968380Y-82502380D01*
X121016000Y-82407142D01*
X121063619Y-82359523D01*
X121158857Y-82311904D01*
X121349333Y-82264285D01*
X121587428Y-82264285D01*
X121777904Y-82311904D01*
X121873142Y-82359523D01*
X121920761Y-82407142D01*
X121968380Y-82502380D01*
X121968380Y-82597619D01*
X121920761Y-82692857D01*
X121873142Y-82740476D01*
X121777904Y-82788095D01*
X121587428Y-82835714D01*
X121349333Y-82835714D01*
X121158857Y-82788095D01*
X121063619Y-82740476D01*
X121016000Y-82692857D01*
X120968380Y-82597619D01*
%TO.C,JP2*%
X121968380Y-86858285D02*
X121968380Y-87429714D01*
X121968380Y-87144000D02*
X120968380Y-87144000D01*
X121111238Y-87239238D01*
X121206476Y-87334476D01*
X121254095Y-87429714D01*
%TO.C,JP3*%
X121063619Y-92023714D02*
X121016000Y-91976095D01*
X120968380Y-91880857D01*
X120968380Y-91642761D01*
X121016000Y-91547523D01*
X121063619Y-91499904D01*
X121158857Y-91452285D01*
X121254095Y-91452285D01*
X121396952Y-91499904D01*
X121968380Y-92071333D01*
X121968380Y-91452285D01*
%TO.C,JP4*%
X120968380Y-96665333D02*
X120968380Y-96046285D01*
X121349333Y-96379619D01*
X121349333Y-96236761D01*
X121396952Y-96141523D01*
X121444571Y-96093904D01*
X121539809Y-96046285D01*
X121777904Y-96046285D01*
X121873142Y-96093904D01*
X121920761Y-96141523D01*
X121968380Y-96236761D01*
X121968380Y-96522476D01*
X121920761Y-96617714D01*
X121873142Y-96665333D01*
%TO.C,JP5*%
X121301714Y-100735523D02*
X121968380Y-100735523D01*
X120920761Y-100973619D02*
X121635047Y-101211714D01*
X121635047Y-100592666D01*
%TO.C,JP6*%
X120968380Y-58067619D02*
X120968380Y-57972380D01*
X121016000Y-57877142D01*
X121063619Y-57829523D01*
X121158857Y-57781904D01*
X121349333Y-57734285D01*
X121587428Y-57734285D01*
X121777904Y-57781904D01*
X121873142Y-57829523D01*
X121920761Y-57877142D01*
X121968380Y-57972380D01*
X121968380Y-58067619D01*
X121920761Y-58162857D01*
X121873142Y-58210476D01*
X121777904Y-58258095D01*
X121587428Y-58305714D01*
X121349333Y-58305714D01*
X121158857Y-58258095D01*
X121063619Y-58210476D01*
X121016000Y-58162857D01*
X120968380Y-58067619D01*
%TO.C,JP7*%
X121968380Y-62384285D02*
X121968380Y-62955714D01*
X121968380Y-62670000D02*
X120968380Y-62670000D01*
X121111238Y-62765238D01*
X121206476Y-62860476D01*
X121254095Y-62955714D01*
%TO.C,JP8*%
X121063619Y-67605714D02*
X121016000Y-67558095D01*
X120968380Y-67462857D01*
X120968380Y-67224761D01*
X121016000Y-67129523D01*
X121063619Y-67081904D01*
X121158857Y-67034285D01*
X121254095Y-67034285D01*
X121396952Y-67081904D01*
X121968380Y-67653333D01*
X121968380Y-67034285D01*
%TO.C,JP9*%
X120968380Y-72303333D02*
X120968380Y-71684285D01*
X121349333Y-72017619D01*
X121349333Y-71874761D01*
X121396952Y-71779523D01*
X121444571Y-71731904D01*
X121539809Y-71684285D01*
X121777904Y-71684285D01*
X121873142Y-71731904D01*
X121920761Y-71779523D01*
X121968380Y-71874761D01*
X121968380Y-72160476D01*
X121920761Y-72255714D01*
X121873142Y-72303333D01*
%TO.C,Q1*%
X137239619Y-102711238D02*
X137192000Y-102806476D01*
X137096761Y-102901714D01*
X136953904Y-103044571D01*
X136906285Y-103139809D01*
X136906285Y-103235047D01*
X137144380Y-103187428D02*
X137096761Y-103282666D01*
X137001523Y-103377904D01*
X136811047Y-103425523D01*
X136477714Y-103425523D01*
X136287238Y-103377904D01*
X136192000Y-103282666D01*
X136144380Y-103187428D01*
X136144380Y-102996952D01*
X136192000Y-102901714D01*
X136287238Y-102806476D01*
X136477714Y-102758857D01*
X136811047Y-102758857D01*
X137001523Y-102806476D01*
X137096761Y-102901714D01*
X137144380Y-102996952D01*
X137144380Y-103187428D01*
X137144380Y-101806476D02*
X137144380Y-102377904D01*
X137144380Y-102092190D02*
X136144380Y-102092190D01*
X136287238Y-102187428D01*
X136382476Y-102282666D01*
X136430095Y-102377904D01*
%TO.C,R12*%
X137279142Y-93544380D02*
X136945809Y-93068190D01*
X136707714Y-93544380D02*
X136707714Y-92544380D01*
X137088666Y-92544380D01*
X137183904Y-92592000D01*
X137231523Y-92639619D01*
X137279142Y-92734857D01*
X137279142Y-92877714D01*
X137231523Y-92972952D01*
X137183904Y-93020571D01*
X137088666Y-93068190D01*
X136707714Y-93068190D01*
X138231523Y-93544380D02*
X137660095Y-93544380D01*
X137945809Y-93544380D02*
X137945809Y-92544380D01*
X137850571Y-92687238D01*
X137755333Y-92782476D01*
X137660095Y-92830095D01*
X138612476Y-92639619D02*
X138660095Y-92592000D01*
X138755333Y-92544380D01*
X138993428Y-92544380D01*
X139088666Y-92592000D01*
X139136285Y-92639619D01*
X139183904Y-92734857D01*
X139183904Y-92830095D01*
X139136285Y-92972952D01*
X138564857Y-93544380D01*
X139183904Y-93544380D01*
%TO.C,R13*%
X142105142Y-96844380D02*
X141771809Y-96368190D01*
X141533714Y-96844380D02*
X141533714Y-95844380D01*
X141914666Y-95844380D01*
X142009904Y-95892000D01*
X142057523Y-95939619D01*
X142105142Y-96034857D01*
X142105142Y-96177714D01*
X142057523Y-96272952D01*
X142009904Y-96320571D01*
X141914666Y-96368190D01*
X141533714Y-96368190D01*
X143057523Y-96844380D02*
X142486095Y-96844380D01*
X142771809Y-96844380D02*
X142771809Y-95844380D01*
X142676571Y-95987238D01*
X142581333Y-96082476D01*
X142486095Y-96130095D01*
X143390857Y-95844380D02*
X144009904Y-95844380D01*
X143676571Y-96225333D01*
X143819428Y-96225333D01*
X143914666Y-96272952D01*
X143962285Y-96320571D01*
X144009904Y-96415809D01*
X144009904Y-96653904D01*
X143962285Y-96749142D01*
X143914666Y-96796761D01*
X143819428Y-96844380D01*
X143533714Y-96844380D01*
X143438476Y-96796761D01*
X143390857Y-96749142D01*
%TO.C,R14*%
X134182380Y-96146857D02*
X133706190Y-96480190D01*
X134182380Y-96718285D02*
X133182380Y-96718285D01*
X133182380Y-96337333D01*
X133230000Y-96242095D01*
X133277619Y-96194476D01*
X133372857Y-96146857D01*
X133515714Y-96146857D01*
X133610952Y-96194476D01*
X133658571Y-96242095D01*
X133706190Y-96337333D01*
X133706190Y-96718285D01*
X134182380Y-95194476D02*
X134182380Y-95765904D01*
X134182380Y-95480190D02*
X133182380Y-95480190D01*
X133325238Y-95575428D01*
X133420476Y-95670666D01*
X133468095Y-95765904D01*
X133515714Y-94337333D02*
X134182380Y-94337333D01*
X133134761Y-94575428D02*
X133849047Y-94813523D01*
X133849047Y-94194476D01*
%TO.C,R15*%
X151202380Y-96400857D02*
X150726190Y-96734190D01*
X151202380Y-96972285D02*
X150202380Y-96972285D01*
X150202380Y-96591333D01*
X150250000Y-96496095D01*
X150297619Y-96448476D01*
X150392857Y-96400857D01*
X150535714Y-96400857D01*
X150630952Y-96448476D01*
X150678571Y-96496095D01*
X150726190Y-96591333D01*
X150726190Y-96972285D01*
X151202380Y-95448476D02*
X151202380Y-96019904D01*
X151202380Y-95734190D02*
X150202380Y-95734190D01*
X150345238Y-95829428D01*
X150440476Y-95924666D01*
X150488095Y-96019904D01*
X150202380Y-94543714D02*
X150202380Y-95019904D01*
X150678571Y-95067523D01*
X150630952Y-95019904D01*
X150583333Y-94924666D01*
X150583333Y-94686571D01*
X150630952Y-94591333D01*
X150678571Y-94543714D01*
X150773809Y-94496095D01*
X151011904Y-94496095D01*
X151107142Y-94543714D01*
X151154761Y-94591333D01*
X151202380Y-94686571D01*
X151202380Y-94924666D01*
X151154761Y-95019904D01*
X151107142Y-95067523D01*
%TO.C,U1*%
X136670380Y-88185904D02*
X137479904Y-88185904D01*
X137575142Y-88138285D01*
X137622761Y-88090666D01*
X137670380Y-87995428D01*
X137670380Y-87804952D01*
X137622761Y-87709714D01*
X137575142Y-87662095D01*
X137479904Y-87614476D01*
X136670380Y-87614476D01*
X137670380Y-86614476D02*
X137670380Y-87185904D01*
X137670380Y-86900190D02*
X136670380Y-86900190D01*
X136813238Y-86995428D01*
X136908476Y-87090666D01*
X136956095Y-87185904D01*
D12*
%TO.C,J4*%
X106680000Y-131258000D02*
X108010000Y-131258000D01*
X102810000Y-131258000D02*
X102810000Y-133918000D01*
X105410000Y-131258000D02*
X102810000Y-131258000D01*
X105410000Y-131258000D02*
X105410000Y-133918000D01*
X108010000Y-131258000D02*
X108010000Y-132588000D01*
X105410000Y-133918000D02*
X102810000Y-133918000D01*
%TO.C,J7*%
X134350000Y-119067500D02*
X133020000Y-119067500D01*
X138220000Y-119067500D02*
X138220000Y-116407500D01*
X135620000Y-119067500D02*
X138220000Y-119067500D01*
X135620000Y-119067500D02*
X135620000Y-116407500D01*
X133020000Y-119067500D02*
X133020000Y-117737500D01*
X135620000Y-116407500D02*
X138220000Y-116407500D01*
%TO.C,J6*%
X133820000Y-130750000D02*
X136420000Y-130750000D01*
X131220000Y-133410000D02*
X131220000Y-132080000D01*
X133820000Y-133410000D02*
X133820000Y-130750000D01*
X133820000Y-133410000D02*
X136420000Y-133410000D01*
X136420000Y-133410000D02*
X136420000Y-130750000D01*
X132550000Y-133410000D02*
X131220000Y-133410000D01*
%TO.C,J3*%
X106426000Y-116526000D02*
X107756000Y-116526000D01*
X102556000Y-116526000D02*
X102556000Y-119186000D01*
X105156000Y-116526000D02*
X102556000Y-116526000D01*
X105156000Y-116526000D02*
X105156000Y-119186000D01*
X107756000Y-116526000D02*
X107756000Y-117856000D01*
X105156000Y-119186000D02*
X102556000Y-119186000D01*
%TO.C,J1*%
X189176000Y-86210000D02*
X189176000Y-85460000D01*
X191426000Y-84410000D02*
X190676000Y-84410000D01*
X191426000Y-86210000D02*
X191426000Y-84410000D01*
X189176000Y-71860000D02*
X186226000Y-71860000D01*
X191426000Y-74410000D02*
X190676000Y-74410000D01*
X189176000Y-85460000D02*
X186226000Y-85460000D01*
X190676000Y-86210000D02*
X191426000Y-86210000D01*
X190676000Y-84410000D02*
X190676000Y-86210000D01*
X186226000Y-85460000D02*
X186226000Y-78660000D01*
X190676000Y-72910000D02*
X191426000Y-72910000D01*
X191426000Y-72910000D02*
X191426000Y-71110000D01*
X191426000Y-82910000D02*
X191426000Y-74410000D01*
X191726000Y-70810000D02*
X190476000Y-70810000D01*
X185466000Y-86220000D02*
X191436000Y-86220000D01*
X191436000Y-71100000D02*
X185466000Y-71100000D01*
X185466000Y-71100000D02*
X185466000Y-86220000D01*
X190676000Y-74410000D02*
X190676000Y-82910000D01*
X191436000Y-86220000D02*
X191436000Y-71100000D01*
X191426000Y-71110000D02*
X190676000Y-71110000D01*
X189176000Y-71110000D02*
X189176000Y-71860000D01*
X191726000Y-72060000D02*
X191726000Y-70810000D01*
X190676000Y-71110000D02*
X190676000Y-72910000D01*
X190676000Y-82910000D02*
X191426000Y-82910000D01*
X186226000Y-71860000D02*
X186226000Y-78660000D01*
%TO.C,J2*%
X191436000Y-107462000D02*
X191436000Y-92342000D01*
X185466000Y-107462000D02*
X191436000Y-107462000D01*
X189176000Y-93102000D02*
X186226000Y-93102000D01*
X190676000Y-92352000D02*
X190676000Y-94152000D01*
X191726000Y-93302000D02*
X191726000Y-92052000D01*
X191426000Y-104152000D02*
X191426000Y-95652000D01*
X185466000Y-92342000D02*
X185466000Y-107462000D01*
X189176000Y-107452000D02*
X189176000Y-106702000D01*
X191436000Y-92342000D02*
X185466000Y-92342000D01*
X190676000Y-105652000D02*
X190676000Y-107452000D01*
X186226000Y-93102000D02*
X186226000Y-99902000D01*
X186226000Y-106702000D02*
X186226000Y-99902000D01*
X189176000Y-106702000D02*
X186226000Y-106702000D01*
X191426000Y-107452000D02*
X191426000Y-105652000D01*
X189176000Y-92352000D02*
X189176000Y-93102000D01*
X190676000Y-107452000D02*
X191426000Y-107452000D01*
X190676000Y-95652000D02*
X190676000Y-104152000D01*
X191426000Y-92352000D02*
X190676000Y-92352000D01*
X191426000Y-95652000D02*
X190676000Y-95652000D01*
X191426000Y-105652000D02*
X190676000Y-105652000D01*
X191726000Y-92052000D02*
X190476000Y-92052000D01*
X190676000Y-94152000D02*
X191426000Y-94152000D01*
X191426000Y-94152000D02*
X191426000Y-92352000D01*
X190676000Y-104152000D02*
X191426000Y-104152000D01*
%TO.C,C1*%
X128552752Y-58955000D02*
X128030248Y-58955000D01*
X128552752Y-60425000D02*
X128030248Y-60425000D01*
%TO.C,C2*%
X128531252Y-63781000D02*
X128008748Y-63781000D01*
X128531252Y-65251000D02*
X128008748Y-65251000D01*
%TO.C,D1*%
X156394000Y-136372000D02*
X153444000Y-136372000D01*
X153994000Y-139472000D02*
X156394000Y-139472000D01*
%TO.C,J5*%
X152974000Y-145692500D02*
X153394000Y-145692500D01*
X152974000Y-150042500D02*
X152974000Y-149642500D01*
X152974000Y-147672500D02*
X152974000Y-145692500D01*
X160494000Y-149642500D02*
X160494000Y-150042500D01*
X160494000Y-145692500D02*
X160074000Y-145692500D01*
X160494000Y-147672500D02*
X160494000Y-145692500D01*
X154974000Y-145462500D02*
X154974000Y-145012500D01*
X155424000Y-145012500D02*
X154974000Y-145012500D01*
%TO.C,JP1*%
X115376000Y-81220000D02*
X120516000Y-81220000D01*
X115376000Y-83880000D02*
X115376000Y-81220000D01*
X112776000Y-83880000D02*
X112776000Y-82550000D01*
X120516000Y-83880000D02*
X120516000Y-81220000D01*
X115376000Y-83880000D02*
X120516000Y-83880000D01*
X114106000Y-83880000D02*
X112776000Y-83880000D01*
%TO.C,JP2*%
X114106000Y-88474000D02*
X112776000Y-88474000D01*
X115376000Y-88474000D02*
X115376000Y-85814000D01*
X112776000Y-88474000D02*
X112776000Y-87144000D01*
X120516000Y-88474000D02*
X120516000Y-85814000D01*
X115376000Y-88474000D02*
X120516000Y-88474000D01*
X115376000Y-85814000D02*
X120516000Y-85814000D01*
%TO.C,JP3*%
X115376000Y-93068000D02*
X115376000Y-90408000D01*
X115376000Y-93068000D02*
X120516000Y-93068000D01*
X115376000Y-90408000D02*
X120516000Y-90408000D01*
X114106000Y-93068000D02*
X112776000Y-93068000D01*
X112776000Y-93068000D02*
X112776000Y-91738000D01*
X120516000Y-93068000D02*
X120516000Y-90408000D01*
%TO.C,JP4*%
X112776000Y-97662000D02*
X112776000Y-96332000D01*
X115376000Y-97662000D02*
X120516000Y-97662000D01*
X115376000Y-95002000D02*
X120516000Y-95002000D01*
X114106000Y-97662000D02*
X112776000Y-97662000D01*
X120516000Y-97662000D02*
X120516000Y-95002000D01*
X115376000Y-97662000D02*
X115376000Y-95002000D01*
%TO.C,JP5*%
X120516000Y-102256000D02*
X120516000Y-99596000D01*
X115376000Y-102256000D02*
X120516000Y-102256000D01*
X115376000Y-99596000D02*
X120516000Y-99596000D01*
X114106000Y-102256000D02*
X112776000Y-102256000D01*
X112776000Y-102256000D02*
X112776000Y-100926000D01*
X115376000Y-102256000D02*
X115376000Y-99596000D01*
%TO.C,JP6*%
X114106000Y-59350000D02*
X112776000Y-59350000D01*
X115376000Y-59350000D02*
X120516000Y-59350000D01*
X112776000Y-59350000D02*
X112776000Y-58020000D01*
X120516000Y-59350000D02*
X120516000Y-56690000D01*
X115376000Y-59350000D02*
X115376000Y-56690000D01*
X115376000Y-56690000D02*
X120516000Y-56690000D01*
%TO.C,JP7*%
X115376000Y-64000000D02*
X115376000Y-61340000D01*
X120516000Y-64000000D02*
X120516000Y-61340000D01*
X114106000Y-64000000D02*
X112776000Y-64000000D01*
X115376000Y-61340000D02*
X120516000Y-61340000D01*
X112776000Y-64000000D02*
X112776000Y-62670000D01*
X115376000Y-64000000D02*
X120516000Y-64000000D01*
%TO.C,JP8*%
X115376000Y-68650000D02*
X120516000Y-68650000D01*
X114106000Y-68650000D02*
X112776000Y-68650000D01*
X115376000Y-68650000D02*
X115376000Y-65990000D01*
X115376000Y-65990000D02*
X120516000Y-65990000D01*
X120516000Y-68650000D02*
X120516000Y-65990000D01*
X112776000Y-68650000D02*
X112776000Y-67320000D01*
%TO.C,JP9*%
X115376000Y-73300000D02*
X115376000Y-70640000D01*
X115376000Y-70640000D02*
X120516000Y-70640000D01*
X114106000Y-73300000D02*
X112776000Y-73300000D01*
X120516000Y-73300000D02*
X120516000Y-70640000D01*
X115376000Y-73300000D02*
X120516000Y-73300000D01*
X112776000Y-73300000D02*
X112776000Y-71970000D01*
%TO.C,Q1*%
X137612000Y-101856000D02*
X138542000Y-101856000D01*
X137612000Y-101856000D02*
X137612000Y-104016000D01*
X140772000Y-101856000D02*
X140772000Y-103316000D01*
X140772000Y-101856000D02*
X139842000Y-101856000D01*
%TO.C,R12*%
X137694936Y-95477000D02*
X138149064Y-95477000D01*
X137694936Y-94007000D02*
X138149064Y-94007000D01*
%TO.C,R13*%
X142975064Y-95477000D02*
X142520936Y-95477000D01*
X142975064Y-94007000D02*
X142520936Y-94007000D01*
%TO.C,R14*%
X132815000Y-95276936D02*
X132815000Y-95731064D01*
X131345000Y-95276936D02*
X131345000Y-95731064D01*
%TO.C,R15*%
X151665000Y-95985064D02*
X151665000Y-95530936D01*
X153135000Y-95985064D02*
X153135000Y-95530936D01*
%TO.C,U1*%
X156948000Y-88874000D02*
X155948000Y-88874000D01*
X138708000Y-69549000D02*
X138328000Y-69549000D01*
X138708000Y-63129000D02*
X156948000Y-63129000D01*
X138708000Y-88094000D02*
X138708000Y-88874000D01*
X156948000Y-88094000D02*
X156948000Y-88874000D01*
X138708000Y-63129000D02*
X138708000Y-69549000D01*
X156948000Y-63129000D02*
X156948000Y-69549000D01*
X138708000Y-88874000D02*
X139708000Y-88874000D01*
%TD*%
M02*
