%TF.GenerationSoftware,KiCad,Pcbnew,6.0.11+dfsg-1*%
%TF.CreationDate,2023-12-17T00:58:24-05:00*%
%TF.ProjectId,base_controller,62617365-5f63-46f6-9e74-726f6c6c6572,rev?*%
%TF.SameCoordinates,Original*%
%TF.FileFunction,Paste,Top*%
%TF.FilePolarity,Positive*%
%FSLAX46Y46*%
G04 Gerber Fmt 4.6, Leading zero omitted, Abs format (unit mm)*
G04 Created by KiCad (PCBNEW 6.0.11+dfsg-1) date 2023-12-17 00:58:24*
%MOMM*%
%LPD*%
G01*
G04 APERTURE LIST*
G04 Aperture macros list*
%AMRoundRect*
0 Rectangle with rounded corners*
0 $1 Rounding radius*
0 $2 $3 $4 $5 $6 $7 $8 $9 X,Y pos of 4 corners*
0 Add a 4 corners polygon primitive as box body*
4,1,4,$2,$3,$4,$5,$6,$7,$8,$9,$2,$3,0*
0 Add four circle primitives for the rounded corners*
1,1,$1+$1,$2,$3*
1,1,$1+$1,$4,$5*
1,1,$1+$1,$6,$7*
1,1,$1+$1,$8,$9*
0 Add four rect primitives between the rounded corners*
20,1,$1+$1,$2,$3,$4,$5,0*
20,1,$1+$1,$4,$5,$6,$7,0*
20,1,$1+$1,$6,$7,$8,$9,0*
20,1,$1+$1,$8,$9,$2,$3,0*%
G04 Aperture macros list end*
%ADD10RoundRect,0.250000X0.337500X0.475000X-0.337500X0.475000X-0.337500X-0.475000X0.337500X-0.475000X0*%
%ADD11R,1.400000X1.200000*%
%ADD12R,1.400000X1.000000*%
%ADD13O,0.890000X1.550000*%
%ADD14O,1.250000X0.950000*%
%ADD15R,0.400000X1.350000*%
%ADD16R,1.500000X1.550000*%
%ADD17R,1.200000X1.550000*%
%ADD18R,0.800000X0.900000*%
%ADD19RoundRect,0.250000X-0.350000X-0.450000X0.350000X-0.450000X0.350000X0.450000X-0.350000X0.450000X0*%
%ADD20RoundRect,0.250000X0.350000X0.450000X-0.350000X0.450000X-0.350000X-0.450000X0.350000X-0.450000X0*%
%ADD21RoundRect,0.250000X-0.450000X0.350000X-0.450000X-0.350000X0.450000X-0.350000X0.450000X0.350000X0*%
%ADD22RoundRect,0.250000X0.450000X-0.350000X0.450000X0.350000X-0.450000X0.350000X-0.450000X-0.350000X0*%
%ADD23R,2.000000X0.900000*%
%ADD24R,0.900000X2.000000*%
%ADD25R,5.000000X5.000000*%
G04 APERTURE END LIST*
D10*
%TO.C,C1*%
X129329000Y-59690000D03*
X127254000Y-59690000D03*
%TD*%
%TO.C,C2*%
X129307500Y-64516000D03*
X127232500Y-64516000D03*
%TD*%
D11*
%TO.C,D1*%
X154094000Y-137152000D03*
D12*
X154094000Y-138872000D03*
X156294000Y-138872000D03*
X156294000Y-136972000D03*
%TD*%
D13*
%TO.C,J5*%
X160234000Y-148652500D03*
X153234000Y-148652500D03*
D14*
X159234000Y-145952500D03*
X154234000Y-145952500D03*
D15*
X155434000Y-145952500D03*
X156084000Y-145952500D03*
X156734000Y-145952500D03*
X157384000Y-145952500D03*
X158034000Y-145952500D03*
D16*
X157734000Y-148652500D03*
D17*
X153834000Y-148652500D03*
D16*
X155734000Y-148652500D03*
D17*
X159634000Y-148652500D03*
%TD*%
D18*
%TO.C,Q1*%
X138242000Y-103616000D03*
X140142000Y-103616000D03*
X139192000Y-101616000D03*
%TD*%
D19*
%TO.C,R12*%
X136922000Y-94742000D03*
X138922000Y-94742000D03*
%TD*%
D20*
%TO.C,R13*%
X143748000Y-94742000D03*
X141748000Y-94742000D03*
%TD*%
D21*
%TO.C,R14*%
X132080000Y-94504000D03*
X132080000Y-96504000D03*
%TD*%
D22*
%TO.C,R15*%
X152400000Y-96758000D03*
X152400000Y-94758000D03*
%TD*%
D23*
%TO.C,U1*%
X139328000Y-70739000D03*
X139328000Y-72009000D03*
X139328000Y-73279000D03*
X139328000Y-74549000D03*
X139328000Y-75819000D03*
X139328000Y-77089000D03*
X139328000Y-78359000D03*
X139328000Y-79629000D03*
X139328000Y-80899000D03*
X139328000Y-82169000D03*
X139328000Y-83439000D03*
X139328000Y-84709000D03*
X139328000Y-85979000D03*
X139328000Y-87249000D03*
D24*
X142113000Y-88249000D03*
X143383000Y-88249000D03*
X144653000Y-88249000D03*
X145923000Y-88249000D03*
X147193000Y-88249000D03*
X148463000Y-88249000D03*
X149733000Y-88249000D03*
X151003000Y-88249000D03*
X152273000Y-88249000D03*
X153543000Y-88249000D03*
D23*
X156328000Y-87249000D03*
X156328000Y-85979000D03*
X156328000Y-84709000D03*
X156328000Y-83439000D03*
X156328000Y-82169000D03*
X156328000Y-80899000D03*
X156328000Y-79629000D03*
X156328000Y-78359000D03*
X156328000Y-77089000D03*
X156328000Y-75819000D03*
X156328000Y-74549000D03*
X156328000Y-73279000D03*
X156328000Y-72009000D03*
X156328000Y-70739000D03*
D25*
X146828000Y-78239000D03*
%TD*%
M02*
