%TF.GenerationSoftware,KiCad,Pcbnew,6.0.11+dfsg-1*%
%TF.CreationDate,2023-12-17T00:58:24-05:00*%
%TF.ProjectId,base_controller,62617365-5f63-46f6-9e74-726f6c6c6572,rev?*%
%TF.SameCoordinates,Original*%
%TF.FileFunction,Paste,Bot*%
%TF.FilePolarity,Positive*%
%FSLAX46Y46*%
G04 Gerber Fmt 4.6, Leading zero omitted, Abs format (unit mm)*
G04 Created by KiCad (PCBNEW 6.0.11+dfsg-1) date 2023-12-17 00:58:24*
%MOMM*%
%LPD*%
G01*
G04 APERTURE LIST*
G04 Aperture macros list*
%AMRoundRect*
0 Rectangle with rounded corners*
0 $1 Rounding radius*
0 $2 $3 $4 $5 $6 $7 $8 $9 X,Y pos of 4 corners*
0 Add a 4 corners polygon primitive as box body*
4,1,4,$2,$3,$4,$5,$6,$7,$8,$9,$2,$3,0*
0 Add four circle primitives for the rounded corners*
1,1,$1+$1,$2,$3*
1,1,$1+$1,$4,$5*
1,1,$1+$1,$6,$7*
1,1,$1+$1,$8,$9*
0 Add four rect primitives between the rounded corners*
20,1,$1+$1,$2,$3,$4,$5,0*
20,1,$1+$1,$4,$5,$6,$7,0*
20,1,$1+$1,$6,$7,$8,$9,0*
20,1,$1+$1,$8,$9,$2,$3,0*%
G04 Aperture macros list end*
%ADD10RoundRect,0.250000X-0.350000X-0.450000X0.350000X-0.450000X0.350000X0.450000X-0.350000X0.450000X0*%
%ADD11RoundRect,0.250000X0.337500X0.475000X-0.337500X0.475000X-0.337500X-0.475000X0.337500X-0.475000X0*%
%ADD12RoundRect,0.250000X-0.450000X0.350000X-0.450000X-0.350000X0.450000X-0.350000X0.450000X0.350000X0*%
%ADD13RoundRect,0.250000X0.350000X0.450000X-0.350000X0.450000X-0.350000X-0.450000X0.350000X-0.450000X0*%
%ADD14RoundRect,0.250000X-0.275000X-0.275000X0.275000X-0.275000X0.275000X0.275000X-0.275000X0.275000X0*%
%ADD15RoundRect,0.062500X-0.350000X-0.062500X0.350000X-0.062500X0.350000X0.062500X-0.350000X0.062500X0*%
%ADD16RoundRect,0.062500X-0.062500X-0.350000X0.062500X-0.350000X0.062500X0.350000X-0.062500X0.350000X0*%
G04 APERTURE END LIST*
D10*
%TO.C,R9*%
X180356000Y-94996000D03*
X182356000Y-94996000D03*
%TD*%
D11*
%TO.C,C5*%
X159787500Y-124968000D03*
X157712500Y-124968000D03*
%TD*%
%TO.C,C6*%
X159787500Y-121158000D03*
X157712500Y-121158000D03*
%TD*%
D12*
%TO.C,R3*%
X162306000Y-115840000D03*
X162306000Y-117840000D03*
%TD*%
%TO.C,R4*%
X153670000Y-115840000D03*
X153670000Y-117840000D03*
%TD*%
%TO.C,R5*%
X158242000Y-115840000D03*
X158242000Y-117840000D03*
%TD*%
%TO.C,R6*%
X165608000Y-115840000D03*
X165608000Y-117840000D03*
%TD*%
%TO.C,R7*%
X169164000Y-115840000D03*
X169164000Y-117840000D03*
%TD*%
D13*
%TO.C,R8*%
X164068000Y-138176000D03*
X162068000Y-138176000D03*
%TD*%
%TO.C,R10*%
X164068000Y-94742000D03*
X162068000Y-94742000D03*
%TD*%
%TO.C,R11*%
X165592000Y-82296000D03*
X163592000Y-82296000D03*
%TD*%
D14*
%TO.C,U2*%
X163464000Y-129906000D03*
X163464000Y-131206000D03*
X162164000Y-131206000D03*
X162164000Y-129906000D03*
D15*
X160876500Y-131806000D03*
X160876500Y-131306000D03*
X160876500Y-130806000D03*
X160876500Y-130306000D03*
X160876500Y-129806000D03*
X160876500Y-129306000D03*
D16*
X161564000Y-128618500D03*
X162064000Y-128618500D03*
X162564000Y-128618500D03*
X163064000Y-128618500D03*
X163564000Y-128618500D03*
X164064000Y-128618500D03*
D15*
X164751500Y-129306000D03*
X164751500Y-129806000D03*
X164751500Y-130306000D03*
X164751500Y-130806000D03*
X164751500Y-131306000D03*
X164751500Y-131806000D03*
D16*
X164064000Y-132493500D03*
X163564000Y-132493500D03*
X163064000Y-132493500D03*
X162564000Y-132493500D03*
X162064000Y-132493500D03*
X161564000Y-132493500D03*
%TD*%
M02*
